<?xml version="1.0" encoding="UTF-8"?>
<!DOCTYPE svg PUBLIC "-//W3C//DTD SVG 1.1//EN" "http://www.w3.org/Graphics/SVG/1.1/DTD/svg11.dtd">
<!-- Creator: CorelDRAW X6 -->
<svg xmlns="http://www.w3.org/2000/svg" xml:space="preserve" width="119.784mm" height="113.041mm" version="1.1" shape-rendering="geometricPrecision" text-rendering="geometricPrecision" image-rendering="optimizeQuality" fill-rule="evenodd" clip-rule="evenodd"
viewBox="0 0 3068 2895"
 xmlns:xlink="http://www.w3.org/1999/xlink">
 <g id="Layer_x0020_1">
  <metadata id="CorelCorpID_0Corel-Layer"/>
  <g id="_181424480">
   <path fill="#F2F2F2" fill-rule="nonzero" d="M71 385c252,-537 1148,-461 1494,-84 346,378 458,620 770,479 312,-141 709,-103 732,345 23,448 -343,978 -922,1135 -580,157 -580,712 -1347,600 -418,-61 -428,-514 -369,-888 59,-374 -650,-963 -357,-1586z"/>
   <g>
    <path fill="#A2C7EB" fill-rule="nonzero" d="M2062 2547l-1617 0c-37,0 -66,-30 -66,-66l0 -1904c0,-37 30,-66 66,-66l1617 0c37,0 66,30 66,66l0 1904c0,37 -30,66 -66,66z"/>
    <g>
     <polygon fill="white" fill-rule="nonzero" points="1845,1647 663,1647 663,1444 1845,1444 "/>
     <g>
      <polygon fill="#202D34" fill-rule="nonzero" fill-opacity="0.400000" points="768,1565 768,1571 727,1571 727,1513 767,1513 767,1518 733,1518 733,1539 763,1539 763,1544 733,1544 733,1565 "/>
      <polygon fill="#202D34" fill-rule="nonzero" fill-opacity="0.400000" points="777,1546 798,1546 798,1551 777,1551 "/>
      <path fill="#202D34" fill-rule="nonzero" fill-opacity="0.400000" d="M883 1545l0 25 -6 0 0 -25c0,-9 -5,-14 -13,-14 -9,0 -15,6 -15,16l0 23 -6 0 0 -25c0,-9 -5,-14 -13,-14 -9,0 -15,6 -15,16l0 23 -6 0 0 -44 6 0 0 8c3,-5 9,-8 16,-8 7,0 13,3 15,9 3,-6 9,-9 17,-9 11,0 18,6 18,19z"/>
      <path fill="#202D34" fill-rule="nonzero" fill-opacity="0.400000" d="M932 1544l0 27 -6 0 0 -7c-3,4 -8,7 -15,7 -10,0 -16,-5 -16,-13 0,-7 4,-12 17,-12l14 0 0 -3c0,-7 -4,-12 -12,-12 -6,0 -11,2 -15,5l-3 -4c4,-4 11,-6 18,-6 11,0 18,6 18,17zm-6 14l0 0 0 -7 -14 0c-8,0 -11,3 -11,8 0,5 4,8 11,8 7,0 12,-3 14,-9z"/>
      <path fill="#202D34" fill-rule="nonzero" fill-opacity="0.400000" d="M947 1513c0,-2 2,-4 4,-4 2,0 4,2 4,4 0,2 -2,4 -4,4 -2,0 -4,-2 -4,-4zm1 14l0 0 6 0 0 44 -6 0 0 -44z"/>
      <polygon fill="#202D34" fill-rule="nonzero" fill-opacity="0.400000" points="971,1509 976,1509 976,1571 971,1571 "/>
     </g>
    </g>
    <g>
     <polygon fill="white" fill-rule="nonzero" points="1845,1923 663,1923 663,1721 1845,1721 "/>
     <g>
      <path fill="#202D34" fill-rule="nonzero" fill-opacity="0.400000" d="M773 1809c0,12 -9,20 -24,20l-16 0 0 18 -6 0 0 -58 22 0c15,0 24,7 24,20zm-6 0l0 0c0,-9 -6,-15 -18,-15l-15 0 0 29 15 0c12,0 18,-5 18,-14z"/>
      <path fill="#202D34" fill-rule="nonzero" fill-opacity="0.400000" d="M817 1820l0 27 -6 0 0 -7c-3,4 -8,7 -15,7 -10,0 -16,-5 -16,-13 0,-7 4,-12 17,-12l14 0 0 -3c0,-7 -4,-12 -12,-12 -6,0 -11,2 -15,5l-3 -4c4,-4 11,-6 18,-6 11,0 18,6 18,17zm-6 14l0 0 0 -7 -14 0c-8,0 -11,3 -11,8 0,5 4,8 11,8 7,0 12,-3 14,-9z"/>
      <path fill="#202D34" fill-rule="nonzero" fill-opacity="0.400000" d="M827 1842l3 -5c3,3 9,5 15,5 8,0 12,-3 12,-7 0,-11 -28,-2 -28,-20 0,-7 6,-12 17,-12 6,0 12,2 15,4l-3 5c-4,-3 -8,-4 -13,-4 -8,0 -11,3 -11,7 0,12 28,3 28,20 0,8 -7,12 -18,12 -7,0 -14,-2 -18,-5z"/>
      <path fill="#202D34" fill-rule="nonzero" fill-opacity="0.400000" d="M868 1842l3 -5c3,3 9,5 15,5 8,0 12,-3 12,-7 0,-11 -28,-2 -28,-20 0,-7 6,-12 17,-12 6,0 12,2 15,4l-3 5c-4,-3 -8,-4 -13,-4 -8,0 -11,3 -11,7 0,12 28,3 28,20 0,8 -7,12 -18,12 -7,0 -14,-2 -18,-5z"/>
      <polygon fill="#202D34" fill-rule="nonzero" fill-opacity="0.400000" points="977,1804 961,1847 955,1847 942,1812 928,1847 922,1847 906,1804 911,1804 925,1841 939,1804 944,1804 958,1841 972,1804 "/>
      <path fill="#202D34" fill-rule="nonzero" fill-opacity="0.400000" d="M981 1826c0,-13 9,-22 22,-22 13,0 22,9 22,22 0,13 -9,22 -22,22 -13,0 -22,-9 -22,-22zm38 0l0 0c0,-10 -7,-17 -16,-17 -9,0 -16,7 -16,17 0,10 7,17 16,17 9,0 16,-7 16,-17z"/>
      <path fill="#202D34" fill-rule="nonzero" fill-opacity="0.400000" d="M1059 1804l0 6c0,0 -1,0 -1,0 -9,0 -15,6 -15,16l0 22 -6 0 0 -44 6 0 0 9c3,-6 8,-9 16,-9z"/>
      <path fill="#202D34" fill-rule="nonzero" fill-opacity="0.400000" d="M1109 1786l0 61 -6 0 0 -9c-4,6 -10,9 -17,9 -12,0 -22,-9 -22,-22 0,-13 9,-22 22,-22 7,0 13,3 17,9l0 -26 6 0zm-6 40l0 0c0,-10 -7,-17 -16,-17 -9,0 -16,7 -16,17 0,10 7,17 16,17 9,0 16,-7 16,-17z"/>
     </g>
    </g>
    <g>
     <path fill="#2A4B80" fill-rule="nonzero" d="M950 2037l-19 0 -4 9 -4 0 16 -35 4 0 16 35 -4 0 -4 -9zm-1 -3l0 0 -8 -19 -8 19 17 0z"/>
     <polygon fill="#2A4B80" fill-rule="nonzero" points="963,2009 967,2009 967,2046 963,2046 "/>
     <path fill="#2A4B80" fill-rule="nonzero" d="M990 2020l0 3c0,0 -1,0 -1,0 -5,0 -9,3 -9,10l0 13 -4 0 0 -26 3 0 0 5c2,-3 5,-5 10,-5z"/>
     <path fill="#2A4B80" fill-rule="nonzero" d="M1018 2034l-22 0c0,5 5,9 10,9 3,0 6,-1 8,-3l2 2c-2,3 -6,4 -10,4 -8,0 -14,-6 -14,-13 0,-8 5,-13 13,-13 7,0 13,5 13,13 0,0 0,1 0,1zm-22 -3l0 0 18 0c0,-5 -4,-9 -9,-9 -5,0 -9,4 -9,9z"/>
     <path fill="#2A4B80" fill-rule="nonzero" d="M1045 2030l0 16 -3 0 0 -4c-2,3 -5,4 -9,4 -6,0 -10,-3 -10,-8 0,-4 3,-7 10,-7l8 0 0 -2c0,-4 -3,-7 -7,-7 -3,0 -7,1 -9,3l-2 -3c3,-2 6,-4 11,-4 7,0 11,3 11,10zm-4 8l0 0 0 -4 -8 0c-5,0 -7,2 -7,5 0,3 2,5 7,5 4,0 7,-2 8,-5z"/>
     <path fill="#2A4B80" fill-rule="nonzero" d="M1078 2009l0 37 -3 0 0 -5c-2,4 -6,5 -10,5 -7,0 -13,-5 -13,-13 0,-8 6,-13 13,-13 4,0 8,2 10,5l0 -16 4 0zm-3 24l0 0c0,-6 -4,-10 -10,-10 -6,0 -10,4 -10,10 0,6 4,10 10,10 5,0 10,-4 10,-10z"/>
     <path fill="#2A4B80" fill-rule="nonzero" d="M1110 2020l-13 29c-2,5 -5,7 -9,7 -2,0 -5,-1 -6,-2l2 -3c1,1 3,2 5,2 2,0 4,-1 5,-4l1 -3 -12 -26 4 0 10 22 10 -22 3 0z"/>
     <path fill="#2A4B80" fill-rule="nonzero" d="M1147 2030l0 16 -3 0 0 -4c-2,3 -5,4 -9,4 -6,0 -10,-3 -10,-8 0,-4 3,-7 10,-7l8 0 0 -2c0,-4 -3,-7 -7,-7 -3,0 -7,1 -9,3l-2 -3c3,-2 6,-4 11,-4 7,0 11,3 11,10zm-4 8l0 0 0 -4 -8 0c-5,0 -7,2 -7,5 0,3 2,5 7,5 4,0 7,-2 8,-5z"/>
     <path fill="#2A4B80" fill-rule="nonzero" d="M1213 2031l0 15 -4 0 0 -15c0,-5 -3,-8 -7,-8 -5,0 -9,3 -9,9l0 14 -4 0 0 -15c0,-5 -3,-8 -8,-8 -5,0 -9,3 -9,9l0 14 -4 0 0 -26 3 0 0 5c2,-3 5,-5 10,-5 4,0 8,2 9,5 2,-3 6,-5 10,-5 6,0 10,4 10,11z"/>
     <path fill="#2A4B80" fill-rule="nonzero" d="M1245 2034l-22 0c0,5 5,9 10,9 3,0 6,-1 8,-3l2 2c-2,3 -6,4 -10,4 -8,0 -14,-6 -14,-13 0,-8 5,-13 13,-13 7,0 13,5 13,13 0,0 0,1 0,1zm-22 -3l0 0 18 0c0,-5 -4,-9 -9,-9 -5,0 -9,4 -9,9z"/>
     <path fill="#2A4B80" fill-rule="nonzero" d="M1295 2031l0 15 -4 0 0 -15c0,-5 -3,-8 -7,-8 -5,0 -9,3 -9,9l0 14 -4 0 0 -15c0,-5 -3,-8 -8,-8 -5,0 -9,3 -9,9l0 14 -4 0 0 -26 3 0 0 5c2,-3 5,-5 10,-5 4,0 8,2 9,5 2,-3 6,-5 10,-5 6,0 10,4 10,11z"/>
     <path fill="#2A4B80" fill-rule="nonzero" d="M1331 2033c0,8 -6,13 -13,13 -4,0 -8,-2 -10,-5l0 5 -3 0 0 -37 4 0 0 16c2,-3 6,-5 10,-5 7,0 13,5 13,13zm-4 0l0 0c0,-6 -4,-10 -10,-10 -6,0 -10,4 -10,10 0,6 4,10 10,10 5,0 10,-4 10,-10z"/>
     <path fill="#2A4B80" fill-rule="nonzero" d="M1361 2034l-22 0c0,5 5,9 10,9 3,0 6,-1 8,-3l2 2c-2,3 -6,4 -10,4 -8,0 -14,-6 -14,-13 0,-8 5,-13 13,-13 7,0 13,5 13,13 0,0 0,1 0,1zm-22 -3l0 0 18 0c0,-5 -4,-9 -9,-9 -5,0 -9,4 -9,9z"/>
     <path fill="#2A4B80" fill-rule="nonzero" d="M1382 2020l0 3c0,0 -1,0 -1,0 -5,0 -9,3 -9,10l0 13 -4 0 0 -26 3 0 0 5c2,-3 5,-5 10,-5z"/>
     <path fill="#2A4B80" fill-rule="nonzero" d="M1404 2020c0,-4 -3,-6 -8,-6 -4,0 -7,1 -9,4l-3 -2c3,-3 7,-5 12,-5 7,0 11,3 11,9 0,8 -9,9 -9,16l-4 0c0,-8 9,-9 9,-15zm-10 23l0 0c0,-1 1,-3 3,-3 1,0 3,1 3,3 0,1 -1,3 -3,3 -1,0 -3,-1 -3,-3z"/>
     <polygon fill="#2A4B80" fill-rule="nonzero" points="1429,2011 1437,2011 1437,2040 1454,2040 1454,2046 1429,2046 "/>
     <path fill="#2A4B80" fill-rule="nonzero" d="M1456 2033c0,-8 6,-14 15,-14 8,0 15,6 15,14 0,8 -6,14 -15,14 -8,0 -15,-6 -15,-14zm21 0l0 0c0,-5 -3,-7 -7,-7 -4,0 -7,3 -7,7 0,5 3,7 7,7 4,0 7,-3 7,-7z"/>
     <path fill="#2A4B80" fill-rule="nonzero" d="M1518 2019l0 22c0,10 -5,14 -15,14 -5,0 -10,-1 -13,-4l3 -6c2,2 6,3 9,3 5,0 8,-2 8,-7l0 -1c-2,2 -5,3 -8,3 -7,0 -13,-5 -13,-13 0,-8 6,-13 13,-13 4,0 7,1 9,4l0 -3 7 0zm-8 12l0 0c0,-4 -3,-7 -7,-7 -4,0 -7,3 -7,7 0,4 3,7 7,7 4,0 7,-3 7,-7z"/>
     <path fill="#2A4B80" fill-rule="nonzero" d="M1538 2011c0,-2 2,-4 5,-4 3,0 5,2 5,4 0,3 -2,4 -5,4 -3,0 -5,-2 -5,-4zm1 8l0 0 8 0 0 27 -8 0 0 -27z"/>
     <path fill="#2A4B80" fill-rule="nonzero" d="M1581 2031l0 15 -8 0 0 -14c0,-4 -2,-6 -5,-6 -4,0 -6,2 -6,7l0 13 -8 0 0 -27 7 0 0 3c2,-2 5,-4 9,-4 6,0 11,4 11,12z"/>
    </g>
    <polygon fill="#4877B0" fill-rule="nonzero" points="1845,2320 663,2320 663,2117 1845,2117 "/>
    <g>
     <path fill="white" fill-rule="nonzero" d="M1101 2250l-15 -21c-1,0 -3,0 -4,0l-17 0 0 21 -10 0 0 -69 27 0c18,0 29,9 29,24 0,11 -6,18 -15,22l16 23 -11 0zm0 -45l0 0c0,-10 -7,-16 -19,-16l-17 0 0 31 17 0c13,0 19,-6 19,-16z"/>
     <path fill="white" fill-rule="nonzero" d="M1173 2227l-43 0c1,9 9,15 19,15 6,0 11,-2 15,-6l5 6c-5,6 -12,9 -21,9 -17,0 -28,-11 -28,-27 0,-16 11,-27 26,-27 15,0 26,11 26,27 0,1 0,2 0,3zm-43 -7l0 0 34 0c-1,-9 -8,-15 -17,-15 -9,0 -16,6 -17,15z"/>
     <path fill="white" fill-rule="nonzero" d="M1236 2198l0 45c0,19 -9,27 -27,27 -10,0 -19,-3 -25,-8l5 -7c5,4 12,7 20,7 12,0 18,-6 18,-18l0 -4c-5,5 -11,8 -19,8 -15,0 -27,-10 -27,-25 0,-15 11,-25 27,-25 8,0 15,3 19,9l0 -8 9 0zm-9 25l0 0c0,-10 -8,-17 -18,-17 -11,0 -18,7 -18,17 0,10 8,17 18,17 10,0 18,-7 18,-17z"/>
     <path fill="white" fill-rule="nonzero" d="M1253 2181c0,-3 3,-6 6,-6 4,0 6,3 6,6 0,4 -3,6 -6,6 -4,0 -6,-3 -6,-6zm2 16l0 0 10 0 0 52 -10 0 0 -52z"/>
     <path fill="white" fill-rule="nonzero" d="M1275 2245l4 -8c4,3 12,5 18,5 9,0 12,-3 12,-7 0,-12 -33,-2 -33,-22 0,-9 8,-16 22,-16 7,0 15,2 19,5l-4 8c-5,-3 -10,-4 -15,-4 -8,0 -12,3 -12,7 0,12 33,2 33,23 0,10 -9,16 -23,16 -9,0 -17,-3 -22,-6z"/>
     <path fill="white" fill-rule="nonzero" d="M1361 2247c-3,2 -7,4 -11,4 -11,0 -17,-6 -17,-16l0 -29 -9 0 0 -8 9 0 0 -11 10 0 0 11 15 0 0 8 -15 0 0 28c0,6 3,9 8,9 3,0 5,-1 7,-2l3 7z"/>
     <path fill="white" fill-rule="nonzero" d="M1418 2227l-43 0c1,9 9,15 19,15 6,0 11,-2 15,-6l5 6c-5,6 -12,9 -21,9 -17,0 -28,-11 -28,-27 0,-16 11,-27 26,-27 15,0 26,11 26,27 0,1 0,2 0,3zm-43 -7l0 0 34 0c-1,-9 -8,-15 -17,-15 -9,0 -16,6 -17,15z"/>
     <path fill="white" fill-rule="nonzero" d="M1460 2197l0 9c-1,0 -1,0 -2,0 -10,0 -17,6 -17,18l0 26 -10 0 0 -52 9 0 0 9c3,-6 10,-9 19,-9z"/>
    </g>
    <path fill="#4877B0" fill-rule="nonzero" d="M1047 735l4 -8c6,5 15,9 25,9 13,0 19,-5 19,-12 0,-19 -46,-7 -46,-35 0,-12 9,-22 29,-22 9,0 18,2 24,7l-4 9c-7,-4 -14,-6 -21,-6 -13,0 -18,5 -18,12 0,19 46,7 46,35 0,12 -9,22 -29,22 -12,0 -23,-4 -29,-10z"/>
    <path fill="#4877B0" fill-rule="nonzero" d="M1118 668c0,-4 3,-7 7,-7 4,0 7,3 7,7 0,4 -3,7 -7,7 -4,0 -7,-3 -7,-7zm2 18l0 0 10 0 0 57 -10 0 0 -57z"/>
    <path fill="#4877B0" fill-rule="nonzero" d="M1205 686l0 50c0,20 -10,29 -30,29 -11,0 -21,-3 -27,-9l5 -8c5,5 14,7 22,7 14,0 20,-6 20,-19l0 -5c-5,6 -12,9 -21,9 -17,0 -29,-11 -29,-28 0,-17 13,-28 29,-28 9,0 16,3 21,9l0 -9 10 0zm-10 27l0 0c0,-11 -8,-19 -20,-19 -12,0 -20,7 -20,19 0,11 8,19 20,19 11,0 20,-8 20,-19z"/>
    <path fill="#4877B0" fill-rule="nonzero" d="M1279 710l0 33 -10 0 0 -32c0,-11 -6,-17 -15,-17 -11,0 -18,7 -18,19l0 30 -10 0 0 -57 10 0 0 9c4,-6 12,-9 21,-9 14,0 24,8 24,25z"/>
    <path fill="#4877B0" fill-rule="nonzero" d="M1381 686l0 57 -10 0 0 -9c-4,6 -11,9 -20,9 -15,0 -25,-8 -25,-25l0 -33 10 0 0 32c0,11 6,17 15,17 11,0 18,-7 18,-19l0 -30 10 0z"/>
    <path fill="#4877B0" fill-rule="nonzero" d="M1460 715c0,18 -12,29 -29,29 -8,0 -15,-3 -20,-9l0 30 -10 0 0 -78 10 0 0 9c5,-6 12,-10 20,-10 17,0 29,12 29,29zm-11 0l0 0c0,-12 -8,-20 -19,-20 -11,0 -19,8 -19,20 0,12 8,20 19,20 11,0 19,-8 19,-20z"/>
    <g>
     <polygon fill="white" fill-rule="nonzero" points="1845,1370 663,1370 663,1168 1845,1168 "/>
     <g>
      <polygon fill="#202D34" fill-rule="nonzero" fill-opacity="0.400000" points="727,1236 733,1236 733,1289 766,1289 766,1294 727,1294 "/>
      <path fill="#202D34" fill-rule="nonzero" fill-opacity="0.400000" d="M808 1267l0 27 -6 0 0 -7c-3,4 -8,7 -15,7 -10,0 -16,-5 -16,-13 0,-7 4,-12 17,-12l14 0 0 -3c0,-7 -4,-12 -12,-12 -6,0 -11,2 -15,5l-3 -4c4,-4 11,-6 18,-6 11,0 18,6 18,17zm-6 14l0 0 0 -7 -14 0c-8,0 -11,3 -11,8 0,5 4,8 11,8 7,0 12,-3 14,-9z"/>
      <path fill="#202D34" fill-rule="nonzero" fill-opacity="0.400000" d="M818 1289l3 -5c3,3 9,5 15,5 8,0 12,-3 12,-7 0,-11 -28,-2 -28,-20 0,-7 6,-12 17,-12 6,0 12,2 15,4l-3 5c-4,-3 -8,-4 -13,-4 -8,0 -11,3 -11,7 0,12 28,3 28,20 0,8 -7,12 -18,12 -7,0 -14,-2 -18,-5z"/>
      <path fill="#202D34" fill-rule="nonzero" fill-opacity="0.400000" d="M887 1291c-2,2 -6,3 -9,3 -8,0 -13,-5 -13,-13l0 -26 -8 0 0 -5 8 0 0 -10 6 0 0 10 13 0 0 5 -13 0 0 26c0,5 3,8 8,8 2,0 5,-1 6,-2l2 4z"/>
      <polygon fill="#202D34" fill-rule="nonzero" fill-opacity="0.400000" points="969,1236 969,1294 964,1294 927,1247 927,1294 921,1294 921,1236 926,1236 963,1283 963,1236 "/>
      <path fill="#202D34" fill-rule="nonzero" fill-opacity="0.400000" d="M1020 1267l0 27 -6 0 0 -7c-3,4 -8,7 -15,7 -10,0 -16,-5 -16,-13 0,-7 4,-12 17,-12l14 0 0 -3c0,-7 -4,-12 -12,-12 -6,0 -11,2 -15,5l-3 -4c4,-4 11,-6 18,-6 11,0 18,6 18,17zm-6 14l0 0 0 -7 -14 0c-8,0 -11,3 -11,8 0,5 4,8 11,8 7,0 12,-3 14,-9z"/>
      <path fill="#202D34" fill-rule="nonzero" fill-opacity="0.400000" d="M1108 1269l0 25 -6 0 0 -25c0,-9 -5,-14 -13,-14 -9,0 -15,6 -15,16l0 23 -6 0 0 -25c0,-9 -5,-14 -13,-14 -9,0 -15,6 -15,16l0 23 -6 0 0 -44 6 0 0 8c3,-5 9,-8 16,-8 7,0 13,3 15,9 3,-6 9,-9 17,-9 11,0 18,6 18,19z"/>
      <path fill="#202D34" fill-rule="nonzero" fill-opacity="0.400000" d="M1162 1274l-36 0c1,9 8,15 17,15 5,0 10,-2 13,-6l3 4c-4,5 -10,7 -17,7 -14,0 -23,-9 -23,-22 0,-13 9,-22 21,-22 12,0 21,9 21,22 0,0 0,1 0,2zm-36 -4l0 0 31 0c-1,-9 -7,-14 -15,-14 -8,0 -15,6 -15,14z"/>
     </g>
    </g>
    <g>
     <polygon fill="white" fill-rule="nonzero" points="1845,1094 663,1094 663,891 1845,891 "/>
     <g>
      <polygon fill="#202D34" fill-rule="nonzero" fill-opacity="0.400000" points="733,965 733,988 763,988 763,993 733,993 733,1018 727,1018 727,960 767,960 767,965 "/>
      <path fill="#202D34" fill-rule="nonzero" fill-opacity="0.400000" d="M776 960c0,-2 2,-4 4,-4 2,0 4,2 4,4 0,2 -2,4 -4,4 -2,0 -4,-2 -4,-4zm1 14l0 0 6 0 0 44 -6 0 0 -44z"/>
      <path fill="#202D34" fill-rule="nonzero" fill-opacity="0.400000" d="M822 974l0 6c0,0 -1,0 -1,0 -9,0 -15,6 -15,16l0 22 -6 0 0 -44 6 0 0 9c3,-6 8,-9 16,-9z"/>
      <path fill="#202D34" fill-rule="nonzero" fill-opacity="0.400000" d="M827 1013l3 -5c3,3 9,5 15,5 8,0 12,-3 12,-7 0,-11 -28,-2 -28,-20 0,-7 6,-12 17,-12 6,0 12,2 15,4l-3 5c-4,-3 -8,-4 -13,-4 -8,0 -11,3 -11,7 0,12 28,3 28,20 0,8 -7,12 -18,12 -7,0 -14,-2 -18,-5z"/>
      <path fill="#202D34" fill-rule="nonzero" fill-opacity="0.400000" d="M896 1015c-2,2 -6,3 -9,3 -8,0 -13,-5 -13,-13l0 -26 -8 0 0 -5 8 0 0 -10 6 0 0 10 13 0 0 5 -13 0 0 26c0,5 3,8 8,8 2,0 5,-1 6,-2l2 4z"/>
      <polygon fill="#202D34" fill-rule="nonzero" fill-opacity="0.400000" points="978,960 978,1018 973,1018 936,971 936,1018 930,1018 930,960 935,960 972,1007 972,960 "/>
      <path fill="#202D34" fill-rule="nonzero" fill-opacity="0.400000" d="M1029 991l0 27 -6 0 0 -7c-3,4 -8,7 -15,7 -10,0 -16,-5 -16,-13 0,-7 4,-12 17,-12l14 0 0 -3c0,-7 -4,-12 -12,-12 -6,0 -11,2 -15,5l-3 -4c4,-4 11,-6 18,-6 11,0 18,6 18,17zm-6 14l0 0 0 -7 -14 0c-8,0 -11,3 -11,8 0,5 4,8 11,8 7,0 12,-3 14,-9z"/>
      <path fill="#202D34" fill-rule="nonzero" fill-opacity="0.400000" d="M1117 992l0 25 -6 0 0 -25c0,-9 -5,-14 -13,-14 -9,0 -15,6 -15,16l0 23 -6 0 0 -25c0,-9 -5,-14 -13,-14 -9,0 -15,6 -15,16l0 23 -6 0 0 -44 6 0 0 8c3,-5 9,-8 16,-8 7,0 13,3 15,9 3,-6 9,-9 17,-9 11,0 18,6 18,19z"/>
      <path fill="#202D34" fill-rule="nonzero" fill-opacity="0.400000" d="M1171 998l-36 0c1,9 8,15 17,15 5,0 10,-2 13,-6l3 4c-4,5 -10,7 -17,7 -14,0 -23,-9 -23,-22 0,-13 9,-22 21,-22 12,0 21,9 21,22 0,0 0,1 0,2zm-36 -4l0 0 31 0c-1,-9 -7,-14 -15,-14 -8,0 -15,6 -15,14z"/>
     </g>
    </g>
   </g>
   <g>
    <path fill="#FFA277" fill-rule="nonzero" d="M2755 27l-260 0c-44,0 -80,36 -80,80l0 226c0,44 36,80 80,80l76 0 -18 71 72 -71 130 0c44,0 80,-36 80,-80l0 -226c0,-44 -36,-80 -80,-80z"/>
    <g>
     <g>
      <path fill="#E25953" fill-rule="nonzero" d="M2754 219c0,71 -58,129 -129,129 -71,0 -129,-58 -129,-129 0,-71 58,-129 129,-129 71,0 129,58 129,129z"/>
     </g>
     <g>
      <path fill="white" fill-rule="nonzero" d="M2611 277c-3,0 -7,-2 -9,-4l-51 -60c-4,-5 -4,-12 1,-17 5,-4 12,-4 17,1l42 49 69 -81c4,-5 12,-6 17,-1 5,4 6,12 1,17l-78 91c-2,3 -6,4 -9,4z"/>
     </g>
    </g>
   </g>
   <g>
    <g>
     <path fill="#067CFF" fill-rule="nonzero" d="M2710 1421c0,0 -157,-20 -396,46 0,0 -38,-426 -34,-484 5,-59 368,-41 368,-41 0,0 9,170 33,273 23,103 41,187 29,207z"/>
     <path fill="#822635" fill-rule="nonzero" d="M2710 1421c0,0 -157,-20 -396,46 0,0 -38,-426 -34,-484 5,-59 368,-41 368,-41 0,0 9,170 33,273 23,103 41,187 29,207z"/>
    </g>
    <polygon fill="#E3AC81" fill-rule="nonzero" points="2199,2831 2263,2849 2279,2749 2287,2696 2223,2678 2212,2749 "/>
    <polygon fill="#E3AC81" fill-rule="nonzero" points="2568,2836 2634,2845 2635,2749 2635,2690 2569,2681 2569,2749 "/>
    <polygon fill="black" fill-rule="nonzero" fill-opacity="0.200000" points="2569,2681 2569,2749 2635,2749 2635,2690 "/>
    <polygon fill="black" fill-rule="nonzero" fill-opacity="0.200000" points="2212,2749 2279,2749 2287,2696 2223,2678 "/>
    <g>
     <path fill="#E3AC81" fill-rule="nonzero" d="M1914 1017l-64 -19 12 73c0,0 58,13 63,-17l-11 -37z"/>
     <polygon fill="#E3AC81" fill-rule="nonzero" points="1787,1015 1818,1074 1862,1071 1851,998 "/>
    </g>
    <polygon fill="#E3AC81" fill-rule="nonzero" points="2002,1035 1898,1012 1888,1063 1983,1086 "/>
    <path fill="#E94B65" fill-rule="nonzero" d="M2319 989c0,0 -2,3 -6,7 -13,15 -45,53 -79,85 -27,26 -55,49 -72,54 -51,13 -237,-42 -237,-42l19 -76c0,0 173,23 187,23 10,0 116,-153 141,-165l47 114z"/>
    <path fill="black" fill-rule="nonzero" fill-opacity="0.200000" d="M2313 997c-13,15 -45,53 -79,85 7,-53 26,-102 52,-132 3,-3 5,-6 8,-8l19 55z"/>
    <g>
     <path fill="#C43D53" fill-rule="nonzero" d="M2200 2821l73 -2c3,0 5,2 6,4l15 59c2,6 -3,12 -9,12 -26,0 -64,0 -97,1 -39,1 -63,-1 -108,0 -27,1 -36,-27 -25,-29 52,-13 86,-10 130,-39 5,-3 10,-5 16,-6z"/>
     <path fill="#C43D53" fill-rule="nonzero" d="M2194 2831c0,0 0,0 0,0 -11,2 -30,6 -37,-1 -2,-2 -3,-4 -3,-8 0,-2 1,-3 2,-4 8,-5 35,8 38,10 1,0 1,1 1,2 0,1 0,1 -1,1zm-36 -10l0 0c0,0 0,0 -1,0 -1,0 -1,1 -1,2 0,2 1,4 2,5 4,4 15,4 30,1 -11,-5 -25,-10 -30,-8z"/>
     <path fill="#C43D53" fill-rule="nonzero" d="M2194 2831c0,0 -1,0 -1,0 -8,-3 -25,-17 -24,-25 0,-2 1,-4 6,-5 3,0 6,0 9,2 9,7 11,25 11,25 0,1 0,1 -1,1 0,0 0,0 0,0zm-20 -26l0 0c-1,0 -1,1 -1,1 -1,5 11,16 19,20 -1,-5 -4,-16 -10,-20 -2,-2 -4,-2 -7,-2 -1,0 -1,0 -2,0z"/>
    </g>
    <g>
     <path fill="#C43D53" fill-rule="nonzero" d="M2571 2821l73 -2c3,0 5,2 6,4l15 59c2,6 -3,12 -9,12 -26,0 -64,0 -97,1 -39,1 -63,-1 -108,0 -27,1 -36,-27 -25,-29 52,-13 86,-10 130,-39 5,-3 10,-5 16,-6z"/>
     <path fill="#C43D53" fill-rule="nonzero" d="M2564 2831c0,0 0,0 0,0 -11,2 -30,6 -37,-1 -2,-2 -3,-4 -3,-8 0,-2 1,-3 2,-4 8,-5 35,8 38,10 1,0 1,1 1,2 0,1 0,1 -1,1zm-36 -10l0 0c0,0 0,0 -1,0 -1,0 -1,1 -1,2 0,2 1,4 2,5 4,4 15,4 30,1 -11,-5 -25,-10 -30,-8z"/>
     <path fill="#C43D53" fill-rule="nonzero" d="M2564 2831c0,0 -1,0 -1,0 -8,-3 -25,-17 -24,-25 0,-2 1,-4 6,-5 3,0 6,0 9,2 9,7 11,25 11,25 0,1 0,1 -1,1 0,0 0,0 0,0zm-20 -26l0 0c-1,0 -1,1 -1,1 -1,5 11,16 19,20 -1,-5 -4,-16 -10,-20 -2,-2 -4,-2 -7,-2 -1,0 -1,0 -2,0z"/>
    </g>
    <path fill="#202D34" fill-rule="nonzero" d="M2704 1382c35,152 -25,1347 -25,1347l-116 0 -50 -996 -183 996 -124 -9c81,-771 153,-1232 153,-1232l0 -58 345 -48z"/>
    <path fill="#222837" fill-rule="nonzero" fill-opacity="0.400000" d="M2206 2720l124 9 144 -784 39 -212 50 996 116 0c0,0 60,-1195 25,-1347l-345 48 0 58c0,0 -72,461 -153,1232z"/>
    <g>
     <path fill="#AD3247" fill-rule="nonzero" d="M2642 820c-4,74 -1,149 6,218 5,51 12,98 19,142 17,101 36,177 38,203 -51,7 -241,33 -345,48 -126,-352 -79,-557 -79,-557 0,0 36,-15 79,-27 6,-2 12,-3 17,-4 38,-9 102,-16 147,-20 9,-1 19,-1 28,-2 47,-2 90,1 90,1z"/>
    </g>
    <g>
     <path fill="#E3AC81" fill-rule="nonzero" d="M2457 661c3,48 8,139 48,162 0,0 -25,48 -79,53 -41,4 -38,-37 -38,-37 24,-18 18,-48 0,-81l70 -97z"/>
     <path fill="black" fill-rule="nonzero" fill-opacity="0.200000" d="M2429 700l-41 57c4,8 8,16 11,24 19,-8 41,-36 38,-57 -2,-11 -4,-20 -7,-25z"/>
    </g>
    <g>
     <path fill="#181855" fill-rule="nonzero" d="M2281 564c-8,25 -4,77 31,60 35,-17 -18,-103 -31,-60z"/>
     <path fill="#E3AC81" fill-rule="nonzero" d="M2461 598c4,64 9,102 -19,138 -43,55 -126,34 -149,-28 -21,-56 -24,-152 36,-184 59,-32 128,9 132,74z"/>
     <path fill="#181855" fill-rule="nonzero" d="M2416 563l0 -72c0,0 77,-6 73,34 42,21 22,87 -35,119 -31,-25 -28,-85 -28,-85 -3,1 -7,3 -11,4z"/>
     <path fill="#E3AC81" fill-rule="nonzero" d="M2493 648c-3,17 -14,31 -26,39 -18,12 -34,-3 -34,-23 -1,-18 8,-47 29,-50 20,-4 35,15 31,34z"/>
     <path fill="#181855" fill-rule="nonzero" d="M2450 589c0,0 -45,-16 -66,-43 0,0 -41,11 -49,27 0,0 -14,-12 -4,-27 0,0 -31,6 -37,27 0,0 -15,-5 -14,-27 0,0 -14,5 -18,27 0,0 -34,-71 78,-91 0,0 -9,-4 -26,-4 0,0 78,-32 140,-3 62,29 51,84 -4,113z"/>
    </g>
    <g>
     <path fill="#E94B65" fill-rule="nonzero" d="M2731 1443l-108 14c0,0 -45,-313 -64,-413l0 -216 57 -15 44 15c10,35 20,81 28,132 5,34 10,70 14,107 6,50 11,101 15,148 7,77 11,145 13,186 2,26 2,42 2,42z"/>
     <path fill="#FFA277" fill-rule="nonzero" d="M2558 1044c0,0 9,-152 57,-231 0,0 -1,-22 -11,-26 -10,-4 -46,18 -46,18 0,0 -23,-15 -28,-8 -5,7 -17,56 28,247z"/>
    </g>
    <g>
     <path fill="#E94B65" fill-rule="nonzero" d="M2312 1485l12 9c0,0 -18,-101 -11,-356 0,-12 1,-24 1,-35 9,-216 43,-255 45,-257l-31 11 -57 20c-17,184 40,609 40,609z"/>
     <path fill="#FFA277" fill-rule="nonzero" d="M2317 1066c0,0 -31,-148 -22,-199 9,-51 43,-28 43,-28 0,0 31,-25 40,3 0,0 -42,30 -60,224z"/>
    </g>
    <path fill="black" fill-rule="nonzero" fill-opacity="0.200000" d="M2701 1067c-46,-26 -52,-94 -52,-94 3,-1 20,-7 38,-13 5,34 10,70 14,107z"/>
    <path fill="black" fill-rule="nonzero" fill-opacity="0.200000" d="M2474 1945l39 -212 -8 -112c0,0 -53,194 -31,324z"/>
    <path fill="black" fill-rule="nonzero" fill-opacity="0.200000" d="M2729 1401c-29,-2 -54,-4 -54,-4l-6 -118c0,0 9,-8 30,-6 0,0 9,-23 16,-58 7,77 11,145 13,186z"/>
    <g>
     <polygon fill="#E3AC81" fill-rule="nonzero" points="2739,1215 2682,1306 2727,1332 2780,1250 "/>
     <path fill="#E94B65" fill-rule="nonzero" d="M2656 827c38,4 200,227 207,294 7,67 -95,183 -95,183l-68 -40c0,0 69,-107 73,-135 4,-28 -127,-145 -127,-145 0,0 -14,-34 -16,-84 -2,-49 26,-72 26,-72z"/>
     <path fill="#FFA277" fill-rule="nonzero" d="M2669 1279c0,0 58,13 82,49 0,0 -24,76 -42,85 -17,8 -61,8 -61,8 0,0 -3,-85 21,-142z"/>
    </g>
   </g>
  </g>
 </g>
</svg>
