<?xml version="1.0" encoding="UTF-8"?>
<!DOCTYPE svg PUBLIC "-//W3C//DTD SVG 1.1//EN" "http://www.w3.org/Graphics/SVG/1.1/DTD/svg11.dtd">
<!-- Creator: CorelDRAW X6 -->
<svg xmlns="http://www.w3.org/2000/svg" xml:space="preserve" width="134.685mm" height="123.564mm" version="1.1" shape-rendering="geometricPrecision" text-rendering="geometricPrecision" image-rendering="optimizeQuality" fill-rule="evenodd" clip-rule="evenodd"
viewBox="0 0 9540 8752"
 xmlns:xlink="http://www.w3.org/1999/xlink">
 <g id="Layer_x0020_1">
  <metadata id="CorelCorpID_0Corel-Layer"/>
  <g id="_521132144">
   <g>
    <path fill="#F2F2F2" fill-rule="nonzero" fill-opacity="0.901961" d="M168 4507c-901,-2328 2028,-3674 3718,-3416 671,102 941,314 1605,64 482,-182 727,-747 1260,-871 1168,-273 2400,808 2680,1798 291,1027 9,2089 -906,2462 -669,273 -1352,-77 -1744,91 -805,346 -769,894 -1245,1478 -1745,2143 -4549,509 -5367,-1606z"/>
   </g>
   <g>
    <g>
     <g>
      <path fill="#5F90CB" fill-rule="nonzero" d="M8533 4941l-6929 0c-46,0 -83,-37 -83,-83 0,-46 37,-83 83,-83l6929 0c46,0 83,37 83,83 0,46 -37,83 -83,83z"/>
      <path fill="#355389" fill-rule="nonzero" fill-opacity="0.301961" d="M8533 4941l-1622 0c-46,0 -83,-37 -83,-83 0,-46 37,-83 83,-83l1622 0c46,0 83,37 83,83 0,46 -37,83 -83,83z"/>
     </g>
     <g>
      <polygon fill="#5F90CB" fill-rule="nonzero" points="8357,5729 3028,5729 3028,5149 8357,5149 "/>
      <polygon fill="#355389" fill-rule="nonzero" points="8279,8624 8439,8624 8432,4941 8212,4941 "/>
      <polygon fill="#355389" fill-rule="nonzero" points="6810,8624 6651,8624 7011,4941 7232,4941 "/>
      <polygon fill="#355389" fill-rule="nonzero" points="2973,8624 3132,8624 3126,4941 2905,4941 "/>
      <polygon fill="#355389" fill-rule="nonzero" points="1503,8624 1344,8624 1705,4941 1925,4941 "/>
     </g>
    </g>
    <g>
     <polygon fill="#355389" fill-rule="nonzero" points="5991,4774 5624,4774 5476,4055 5844,4055 "/>
     <path fill="#355389" fill-rule="nonzero" d="M6479 4626l-1596 0c-53,0 -94,-43 -90,-96l61 -1010c3,-53 49,-96 102,-96l1596 0c53,0 94,43 90,96l-61 1010c-3,53 -49,96 -102,96z"/>
     <path fill="#5F90CB" fill-rule="nonzero" d="M6455 4626l-1596 0c-53,0 -94,-43 -90,-96l61 -1010c3,-53 49,-96 102,-96l1596 0c53,0 94,43 90,96l-61 1010c-3,53 -49,96 -102,96z"/>
     <path fill="#C2DBF2" fill-rule="nonzero" d="M4859 4576c-12,0 -22,-4 -30,-12 -8,-8 -11,-19 -11,-31l61 -1010c2,-27 25,-49 52,-49l1596 0c12,0 22,4 30,12 8,8 11,19 11,31l-61 1010c-2,27 -25,49 -52,49l-1596 0z"/>
     <polygon fill="black" fill-rule="nonzero" fill-opacity="0.200000" points="5559,3424 5663,3779 5971,3424 "/>
    </g>
   </g>
   <g>
    <g>
     <path fill="#BD916F" fill-rule="nonzero" d="M3100 2590c0,0 43,94 86,139 -28,28 -78,16 -78,16l-9 -155z"/>
     <path fill="#BD916F" fill-rule="nonzero" d="M2512 2863l150 115 205 157c-7,8 -17,47 -20,75 -7,58 -14,101 113,135 27,7 50,29 55,57 5,34 -16,76 -134,95 -137,22 -247,-15 -333,-57 -50,-24 -51,-55 -29,-106 63,-144 32,-328 -7,-471z"/>
     <path fill="#E94B65" fill-rule="nonzero" d="M2341 3380c50,-98 71,-173 71,-173 0,0 380,-21 505,17 125,37 203,200 203,200l-780 -44z"/>
     <g>
      <path fill="#BD916F" fill-rule="nonzero" d="M2499 3662c-9,28 -20,62 -29,94l-28 97c-18,65 -34,130 -48,195 -14,65 -25,129 -32,192 -7,63 -10,125 -6,179 2,28 6,52 12,74 2,5 3,11 4,15 2,4 3,9 5,13l0 1c0,0 0,1 -1,-1 -1,-2 -3,-5 -4,-7 -4,-5 -5,-7 -8,-11 -5,-5 -9,-8 -11,-10 -5,-3 -6,-3 -5,-2 3,3 12,8 23,13 11,5 25,10 39,15 28,9 60,18 92,27 129,33 270,58 407,87l-4 173c-74,10 -147,16 -221,18 -74,2 -148,2 -225,-4 -38,-3 -77,-7 -118,-14 -21,-4 -42,-8 -64,-14 -23,-6 -47,-14 -75,-28 -15,-7 -30,-16 -49,-31 -9,-8 -20,-17 -30,-29 -6,-7 -10,-12 -16,-21 -3,-4 -5,-8 -8,-13l-3 -6 -17 -35c-5,-12 -9,-23 -14,-35 -16,-46 -28,-92 -34,-135 -24,-174 -5,-328 21,-479 14,-75 30,-149 50,-221 10,-36 20,-72 32,-108 11,-37 23,-70 38,-109l329 120z"/>
      <g>
       <path fill="#E94B65" fill-rule="nonzero" d="M2268 3349c236,-62 376,131 296,451 -80,320 -107,331 -107,331l-487 -81c60,-314 55,-636 297,-700z"/>
      </g>
      <path fill="#CE5A50" fill-rule="nonzero" d="M3031 4567l-37 -3c-104,0 -122,29 -187,88l-24 131c169,86 259,-8 259,-8l156 0 -55 -126c-20,-46 -63,-77 -113,-82z"/>
     </g>
     <path fill="#BD916F" fill-rule="nonzero" d="M2448 2614c42,228 56,363 186,465 196,153 466,8 492,-229 24,-213 -50,-550 -285,-609 -232,-59 -435,146 -393,374z"/>
     <path fill="#181855" fill-rule="nonzero" d="M2899 2694c162,-13 115,-184 65,-220 76,-29 129,-150 55,-233 43,-112 -80,-247 -295,-227 -158,15 -175,98 -175,98 0,0 -189,-20 -267,136 -67,133 14,205 14,205 0,0 -141,41 -102,226 42,198 194,152 194,152 0,0 -34,182 172,184 178,2 180,-131 180,-131 0,0 231,-23 160,-190z"/>
     <path fill="#BD916F" fill-rule="nonzero" d="M2778 2707c19,53 59,93 99,113 59,30 105,-33 94,-98 -9,-58 -60,-133 -123,-137 -62,-3 -93,60 -70,121z"/>
     <g>
      <g>
       <g>
        <g>
         <g>
          <polygon fill="#BD916F" fill-rule="nonzero" points="5201,8338 5423,8248 5266,7714 5044,7804 "/>
          <polygon fill="black" fill-rule="nonzero" fill-opacity="0.200000" points="5120,8063 5344,7981 5266,7714 5044,7804 "/>
          <path fill="#C43D53" fill-rule="nonzero" d="M5404 8158l-254 88c-9,3 -14,12 -11,21l58 205c6,21 32,34 54,26 88,-32 123,-50 232,-97 67,-29 226,-98 313,-149 85,-50 34,-135 -8,-121 -98,33 -258,54 -339,26 -15,-5 -30,-5 -44,0z"/>
          <g>
           <path fill="#0E0E36" fill-rule="nonzero" d="M3416 5259c0,0 1679,151 1722,634 88,983 221,1930 221,1930l-342 125c0,0 -418,-1080 -413,-1850 -484,-137 -1758,64 -1966,-310 -184,-330 -23,-567 -23,-567l799 36z"/>
          </g>
          <polygon fill="#355389" fill-rule="nonzero" points="4994,8026 5419,7883 5400,7689 4921,7843 "/>
          <path fill="#C43D53" fill-rule="nonzero" d="M5497 8169c-21,7 -45,11 -63,13 -2,0 -4,-1 -5,-3 -1,-2 -1,-4 0,-6 5,-8 54,-74 86,-72 7,0 13,4 17,11 7,11 8,21 3,31 -6,12 -21,21 -38,27zm-51 0l0 0c43,-6 73,-18 79,-32 3,-6 2,-12 -3,-20 -2,-4 -5,-5 -8,-5 -17,-1 -48,31 -68,57z"/>
          <path fill="#C43D53" fill-rule="nonzero" d="M5436 8182c-1,0 -2,0 -3,0 -2,0 -4,-1 -4,-3 -1,-3 -29,-66 -14,-96 4,-8 11,-13 20,-15 11,-2 20,1 25,9 14,23 -3,82 -21,103 -1,1 -2,1 -2,2zm-1 -102l0 0c-4,2 -8,4 -10,9 -9,18 2,56 10,77 14,-23 24,-67 15,-82 -2,-3 -5,-6 -13,-4 -1,0 -2,0 -3,1z"/>
         </g>
         <g>
          <polygon fill="#BD916F" fill-rule="nonzero" points="4012,8497 4249,8486 4288,7925 4051,7936 "/>
          <path fill="#C43D53" fill-rule="nonzero" d="M4255 8445l-269 -9c-10,0 -17,6 -18,16l-20 212c-2,22 18,44 41,44 94,1 139,-3 257,1 73,2 216,13 315,1 97,-12 84,-111 41,-114 -103,-8 -240,-79 -306,-135 -12,-10 -26,-16 -41,-16z"/>
          <path fill="#C43D53" fill-rule="nonzero" d="M4338 8489c-22,-1 -46,-6 -63,-11 -2,-1 -4,-2 -4,-4 0,-2 1,-4 2,-6 8,-5 77,-49 106,-37 7,3 11,8 12,16 2,13 0,23 -8,30 -10,9 -27,12 -45,11zm-48 -18l0 0c43,10 74,10 86,-1 5,-4 6,-11 5,-20 -1,-4 -3,-7 -6,-8 -16,-7 -56,12 -84,29z"/>
          <path fill="#C43D53" fill-rule="nonzero" d="M4276 8479c-1,0 -2,0 -3,-1 -2,-1 -3,-3 -3,-5 0,-3 -3,-72 22,-94 7,-6 15,-8 24,-7 11,2 18,8 20,18 5,26 -33,75 -57,89 -1,0 -2,1 -3,1zm36 -96l0 0c-5,0 -9,1 -12,5 -15,13 -18,53 -18,76 21,-17 46,-54 43,-71 -1,-3 -2,-7 -10,-8 -1,0 -2,0 -3,0z"/>
          <g>
           <polygon fill="#977459" fill-rule="nonzero" points="4051,7936 4288,7925 4266,8246 4029,8245 "/>
          </g>
          <path fill="#181855" fill-rule="nonzero" d="M2859 5234c0,0 1809,276 1780,693 -52,750 -303,2215 -303,2215l-356 5c0,0 -84,-1503 49,-2050 -445,0 -1700,-16 -1872,-244 -189,-253 5,-650 5,-650l696 32z"/>
          <polygon fill="#355389" fill-rule="nonzero" points="3938,8174 4369,8168 4390,7940 3917,7958 "/>
         </g>
         <path fill="#067CFF" fill-rule="nonzero" fill-opacity="0.200000" d="M3177 3324c-146,-28 -803,-20 -803,-20 -136,-3 -252,97 -268,232 -23,203 106,655 110,886 6,284 -49,399 -54,780l1254 57c0,-768 -33,-1404 -64,-1708 -11,-106 -30,-199 -175,-227z"/>
         <path fill="#FF7654" fill-rule="nonzero" d="M3177 3324c-146,-28 -803,-20 -803,-20 -136,-3 -252,97 -268,232 -23,203 106,655 110,886 6,284 -49,399 -54,780l1254 57c0,-768 -33,-1404 -64,-1708 -11,-106 -30,-199 -175,-227z"/>
         <g>
          <path fill="#BD916F" fill-rule="nonzero" d="M3349 3566c39,135 79,273 119,409 41,136 82,272 129,400 11,33 24,63 36,95l19 44 2 6 1 3 1 1 0 1 -1 -2c-6,-10 -12,-17 -16,-21 -9,-8 -12,-9 -13,-9 0,1 8,7 19,12 11,5 24,10 38,15 28,10 60,19 92,27 131,33 273,59 412,88l-4 173c-75,10 -149,16 -224,18 -75,2 -150,2 -228,-4 -39,-3 -79,-8 -121,-16 -21,-4 -43,-9 -66,-16 -24,-7 -49,-15 -80,-33 -16,-9 -34,-21 -55,-42 -10,-11 -22,-25 -32,-43l-9 -16 -28 -53c-17,-35 -34,-70 -49,-105 -31,-70 -58,-139 -85,-209 -25,-70 -50,-140 -73,-210 -46,-141 -88,-280 -124,-424l338 -90z"/>
          <g>
           <path fill="#E94B65" fill-rule="nonzero" d="M2993 3426c171,-174 390,-79 485,236 94,316 77,339 77,339l-460 179c-109,-301 -277,-576 -101,-754z"/>
          </g>
          <path fill="#BD916F" fill-rule="nonzero" d="M4311 4567l-37 -3c-104,0 -122,29 -187,88l-24 131c169,86 259,-8 259,-8l156 0 -55 -126c-20,-46 -63,-77 -113,-82z"/>
         </g>
        </g>
       </g>
      </g>
     </g>
    </g>
    <g>
     <path fill="#5F90CB" fill-rule="nonzero" d="M2218 6187l1601 0c35,0 64,-29 64,-64l0 -103c0,-35 -29,-64 -64,-64l-1601 0c-35,0 -64,29 -64,64l0 103c0,35 29,64 64,64z"/>
     <g>
      <polygon fill="#5F90CB" fill-rule="nonzero" points="2225,8752 2154,8752 2236,6187 2334,6187 "/>
     </g>
     <g>
      <polygon fill="#5F90CB" fill-rule="nonzero" points="2878,8752 2949,8752 2867,6187 2769,6187 "/>
     </g>
     <g>
      <polygon fill="#5F90CB" fill-rule="nonzero" points="3159,8752 3088,8752 3170,6187 3268,6187 "/>
     </g>
     <polygon fill="#5F90CB" fill-rule="nonzero" points="3812,8752 3883,8752 3801,6187 3703,6187 "/>
     <g>
      <polygon fill="#395F9C" fill-rule="nonzero" fill-opacity="0.301961" points="2236,6187 2334,6187 2329,6296 2232,6296 "/>
      <polygon fill="#395F9C" fill-rule="nonzero" fill-opacity="0.301961" points="2871,6296 2774,6296 2769,6187 2867,6187 "/>
      <polygon fill="#395F9C" fill-rule="nonzero" fill-opacity="0.301961" points="3268,6187 3263,6296 3166,6296 3170,6187 "/>
      <polygon fill="#395F9C" fill-rule="nonzero" fill-opacity="0.301961" points="3805,6296 3708,6296 3703,6187 3801,6187 "/>
     </g>
    </g>
   </g>
   <g>
    <g>
     <path fill="#A2C7EB" fill-rule="nonzero" d="M8561 3052l-4001 0c-133,0 -235,-109 -227,-241l153 -2533c8,-133 123,-241 256,-241l4001 0c133,0 235,109 227,241l-153 2533c-8,133 -123,241 -256,241z"/>
     <polygon fill="#A2C7EB" fill-rule="nonzero" points="5096,2516 5465,3779 6560,2516 "/>
     <path fill="#4877B0" fill-rule="nonzero" fill-opacity="0.301961" d="M8367 2032l-2243 0c-74,0 -132,-61 -127,-135l86 -1420c4,-74 69,-135 143,-135l2243 0c74,0 132,61 127,135l-86 1420c-4,74 -69,135 -143,135z"/>
     <path fill="#4877B0" fill-rule="nonzero" fill-opacity="0.200000" d="M7167 2645l-2243 0c-74,0 -132,-61 -127,-135l86 -1420c4,-74 69,-135 143,-135l2243 0c74,0 132,61 127,135l-86 1420c-4,74 -69,135 -143,135z"/>
     <g>
      <path fill="white" fill-rule="nonzero" fill-opacity="0.501961" d="M4894 256c-3,41 -35,74 -72,74 -37,0 -64,-33 -61,-74 3,-41 35,-74 72,-74 37,0 64,33 61,74z"/>
      <path fill="white" fill-rule="nonzero" fill-opacity="0.501961" d="M5140 256c-3,41 -35,74 -72,74 -37,0 -64,-33 -61,-74 3,-41 35,-74 72,-74 37,0 64,33 61,74z"/>
      <path fill="white" fill-rule="nonzero" fill-opacity="0.501961" d="M5385 256c-3,41 -35,74 -72,74 -37,0 -64,-33 -61,-74 3,-41 35,-74 72,-74 37,0 64,33 61,74z"/>
     </g>
     <path fill="#202D34" fill-rule="nonzero" fill-opacity="0.301961" d="M8532 3028l-4001 0c-66,0 -126,-26 -170,-73 -44,-47 -66,-109 -62,-175l153 -2533c8,-136 126,-247 262,-247l4001 0c66,0 126,26 170,73 44,47 66,109 62,175l-153 2533c-8,136 -126,247 -262,247zm-3820 -3015l0 0c-130,0 -242,106 -250,235l-153 2533c-4,63 17,121 59,166 42,44 99,69 161,69l4001 0c130,0 242,-106 250,-235l153 -2533c4,-63 -17,-121 -59,-166 -42,-44 -99,-69 -161,-69l-4001 0z"/>
    </g>
    <g>
     <path fill="#355389" fill-rule="nonzero" d="M6365 1547c-17,36 -33,67 -50,99 -17,32 -35,63 -53,95 -37,62 -75,124 -116,183 -21,30 -42,60 -63,89 -23,29 -44,58 -68,87 -46,58 -98,113 -153,166 -14,13 -29,26 -43,39 -14,13 -29,26 -45,38l-48 36c0,0 -9,6 -15,10 -6,4 -13,8 -20,11 -14,7 -28,12 -43,15 -30,7 -60,7 -89,1 -29,-6 -57,-19 -81,-38 -12,-9 -23,-20 -32,-32l-7 -9 -3 -4 -1 -2 -5 -8 -18 -32c-5,-11 -9,-20 -14,-31 -17,-41 -28,-78 -39,-116 -19,-75 -29,-147 -37,-220 -7,-73 -11,-143 -9,-217 1,-48 40,-85 88,-85 39,1 71,27 81,62l1 3c36,128 74,261 123,374 13,27 25,55 39,76 3,5 7,11 10,15 3,4 6,8 9,11l2 3 1 1 -1 -2c-1,-1 -2,-3 -3,-4 -4,-5 -8,-10 -14,-14 -10,-8 -22,-14 -34,-17 -12,-3 -25,-3 -38,-1 -6,1 -13,3 -19,6 -3,1 -6,3 -9,5 -3,1 -7,5 -4,2l31 -30c11,-10 21,-21 31,-32 10,-11 21,-22 31,-33 80,-94 154,-201 223,-312 34,-56 68,-113 101,-170l48 -86 46 -85 2 -4c45,-84 150,-115 234,-70 81,44 112,143 74,225z"/>
     <path fill="#F6C199" fill-rule="nonzero" d="M5336 1698l-122 -70 131 -134c0,0 55,39 106,96 32,36 23,92 -20,112 -30,14 -66,13 -95,-5z"/>
     <path fill="#F6C199" fill-rule="nonzero" d="M5186 1485l66 -47c18,-13 43,-9 56,9l36 48 -131 134 -41 -94c-8,-18 -2,-38 14,-49z"/>
     <path fill="white" fill-rule="nonzero" d="M6103 1435c19,-66 76,-116 144,-129 54,-9 78,-17 147,-23 118,-8 313,-1 447,8 78,5 158,16 221,27l2 0c70,12 118,78 106,148 -31,180 -123,494 -133,790 -13,389 -7,613 -14,706l-1001 -19c-70,-951 17,-1294 80,-1509z"/>
     <path fill="#355389" fill-rule="nonzero" d="M7091 1304l-2 0c-67,-11 -151,-23 -233,-28 -14,-1 -29,-2 -45,-3 -44,181 -304,485 -383,947 -30,-386 -54,-789 -9,-946 -27,0 -157,9 -211,18 -72,13 -132,70 -159,147 -61,181 -179,586 -107,1583l1112 0c7,-99 -19,-310 21,-633 39,-313 94,-739 127,-929 13,-73 -38,-144 -112,-156z"/>
     <path fill="white" fill-rule="nonzero" fill-opacity="0.200000" d="M6403 2970c-3,0 -6,-3 -7,-6 -24,-281 20,-685 21,-689 0,-4 4,-6 7,-6 4,0 6,4 6,7 0,4 -44,406 -21,686 0,4 -2,7 -6,7 0,0 0,0 -1,0z"/>
     <path fill="black" fill-rule="nonzero" fill-opacity="0.301961" d="M7052 1700c-41,187 -19,446 25,682 33,-265 78,-609 110,-822 -45,-30 -102,-9 -135,140z"/>
     <path fill="#F6C199" fill-rule="nonzero" d="M6415 1283c130,-28 152,-108 143,-197 -2,-22 -6,-44 -11,-66l162 -132 119 -97c-32,143 -68,405 30,503 0,0 -80,131 -302,115 -188,-14 -141,-126 -141,-126z"/>
     <polygon fill="#E0E0E0" fill-rule="nonzero" points="6613,1376 6577,1410 6691,1453 6677,1409 "/>
     <path fill="#FF7654" fill-rule="nonzero" d="M6700 1514c0,0 -45,-114 -88,-138 150,-40 223,-123 223,-123l68 27c0,0 22,131 -203,234z"/>
     <polygon fill="#E0E0E0" fill-rule="nonzero" points="6549,1367 6577,1410 6456,1420 6480,1382 "/>
     <path fill="#FF7654" fill-rule="nonzero" d="M6395 1482c0,0 64,-72 155,-115 -66,-20 -70,-110 -70,-110l-64 12c0,0 -117,114 -21,213z"/>
     <path fill="black" fill-rule="nonzero" fill-opacity="0.200000" d="M6547 1020c5,22 9,44 11,66 61,-11 141,-74 150,-136 3,-23 3,-46 2,-62l-162 132z"/>
     <path fill="#6F3428" fill-rule="nonzero" d="M6351 366c-58,71 -52,329 70,332 123,3 35,-462 -70,-332z"/>
     <path fill="#F6C199" fill-rule="nonzero" d="M6879 553c-12,195 -10,310 -108,411 -148,152 -388,65 -434,-130 -41,-175 -14,-465 176,-544 188,-78 378,68 366,263z"/>
     <path fill="#6F3428" fill-rule="nonzero" d="M6784 391c-123,122 37,211 -26,277 116,60 73,105 73,105 0,0 -19,47 1,103 130,-34 372,-467 108,-533 -159,71 -157,49 -157,49z"/>
     <path fill="#6F3428" fill-rule="nonzero" d="M6834 478c-116,18 -262,-37 -353,-84 -91,-47 -104,42 -71,69 -58,2 -132,-44 -114,-147 17,-94 140,-182 314,-103 124,56 276,-18 335,47 59,65 -35,207 -112,219z"/>
     <path fill="#6F3428" fill-rule="nonzero" d="M6913 351c78,-10 81,-59 60,-146 84,120 51,156 0,185 -55,-19 -59,-40 -59,-40z"/>
     <path fill="#FFC5BD" fill-rule="nonzero" d="M6932 703c-19,42 -53,73 -85,87 -48,22 -73,-23 -60,-75 12,-47 51,-115 100,-115 48,0 67,54 45,102z"/>
     <path fill="#355389" fill-rule="nonzero" d="M7232 1417c30,64 56,124 81,188 25,62 47,126 69,190 42,129 80,259 106,397 6,35 12,69 16,105l3 27 2 13 1 7 1 9c2,25 2,51 0,78 -5,54 -25,111 -57,158 -32,47 -73,82 -113,106 -41,24 -81,40 -120,51 -39,11 -77,17 -115,21 -37,4 -74,4 -110,3 -37,-1 -70,-5 -110,-12 -47,-8 -78,-52 -71,-99 6,-36 33,-62 66,-70l9 -2c26,-6 58,-13 86,-20 29,-8 57,-16 83,-26 52,-19 100,-44 126,-70 13,-13 19,-25 22,-33 2,-9 2,-15 0,-27 -1,-6 -2,-12 -4,-20l-9 -41c-6,-29 -14,-58 -21,-87 -16,-59 -33,-117 -53,-176 -19,-59 -40,-118 -62,-177 -22,-59 -45,-117 -68,-176 -23,-58 -48,-118 -71,-173l-1 -3c-37,-88 4,-189 91,-226 85,-36 184,2 223,85z"/>
     <path fill="#F6C199" fill-rule="nonzero" d="M6805 2658l-110 52 190 68c0,0 127,-40 65,-111l-34 -11c-55,-17 -82,-15 -112,2z"/>
     <path fill="#F6C199" fill-rule="nonzero" d="M6710 2846l84 16c25,5 49,-7 61,-29l31 -55 -190 -68 -26 52c-17,34 3,76 41,83z"/>
    </g>
   </g>
  </g>
 </g>
</svg>
