<?xml version="1.0" encoding="UTF-8"?>
<!DOCTYPE svg PUBLIC "-//W3C//DTD SVG 1.1//EN" "http://www.w3.org/Graphics/SVG/1.1/DTD/svg11.dtd">
<!-- Creator: CorelDRAW X6 -->
<svg xmlns="http://www.w3.org/2000/svg" xml:space="preserve" width="232.283mm" height="59.1408mm" version="1.1" shape-rendering="geometricPrecision" text-rendering="geometricPrecision" image-rendering="optimizeQuality" fill-rule="evenodd" clip-rule="evenodd"
viewBox="0 0 23228 5914"
 xmlns:xlink="http://www.w3.org/1999/xlink">
 <g id="Layer_x0020_1">
  <metadata id="CorelCorpID_0Corel-Layer"/>
  <g id="_1043221984">
   <line fill="none" stroke="#B7B8B7" stroke-width="204.61" x1="23" y1="4250" x2="23205" y2= "4250" />
   <g>
    <path fill="#1C80B7" d="M18276 5785c-54,0 -119,8 -119,-43 0,-21 23,-46 32,-65 46,0 162,8 162,54 0,42 -33,54 -76,54zm11 -378c-56,0 -54,-13 -54,-76 0,-53 6,-162 54,-162 53,0 54,18 54,76 0,49 -12,162 -54,162zm152 -292c-44,-29 -23,-41 -113,-50 -155,-17 -255,95 -255,267 0,96 37,91 49,135 -111,74 -99,165 -22,183 -35,52 -97,51 -97,151 0,104 201,97 281,97 110,0 200,-64 200,-173l0 -32c0,-149 -223,-100 -318,-146 2,-69 41,-32 119,-32 208,0 235,-254 194,-340l114 -47 89 586c3,45 -68,49 -112,49 -32,139 -4,119 43,119 107,0 179,-56 206,-139l175 -526c58,-173 82,-144 -117,-144l-100 377c-10,-19 -21,-214 -25,-257 -15,-157 7,-120 -172,-120l5 43c-7,-19 -19,-62 -31,-76l-113 76z"/>
    <path fill="#1C80B7" d="M4390 5580l28 -275 69 0c60,0 86,42 86,102 0,145 -41,173 -183,173zm43 -405l23 -226 47 0c90,0 114,51 94,137 -21,89 -60,89 -164,89zm-238 534l275 0c170,0 275,-116 275,-286 0,-155 -31,-133 -119,-194 80,-7 135,-108 135,-200l0 -38c0,-111 -92,-167 -205,-167l-270 0 -92 885z"/>
    <path fill="#1C80B7" d="M8139 5488c0,154 69,232 216,232 81,0 114,-38 151,-81l6 70 118 0 48 -459 -253 0 -12 113 87 0c0,80 -17,221 -92,221 -68,0 -86,-8 -86,-97 0,-94 20,-215 31,-304 13,-113 1,-241 104,-241 89,0 63,75 56,178l176 0 5 -135c0,-102 -83,-173 -189,-173l-76 0c-153,0 -214,109 -244,236 -19,80 -47,344 -47,438z"/>
    <path fill="#1C80B7" d="M7589 5785c-48,0 -101,8 -119,-22 -25,-29 12,-64 27,-86 41,1 156,10 156,49 0,43 -23,59 -65,59zm-5 -378c-45,0 -49,-20 -49,-65 0,-72 4,-173 70,-173 70,0 44,237 -22,237zm160 -295c-45,-28 -29,-38 -109,-48 -42,-5 -103,5 -138,23 -108,57 -118,165 -118,276 0,47 30,74 49,102 -25,7 -81,64 -81,97 0,33 0,74 54,86l0 11c-86,23 -201,237 97,237l81 0c124,0 210,-67 210,-189 0,-91 -62,-119 -145,-131 -46,-6 -242,-12 -158,-74 8,-5 52,11 97,11 126,0 210,-102 210,-227 0,-109 -7,-73 -11,-113l107 -44 -31 -92 -117 73z"/>
    <path fill="#1C80B7" d="M13156 5785c-63,0 -124,9 -124,-43 0,-27 21,-48 32,-65 58,1 156,3 156,59 0,34 -31,49 -65,49zm-5 -378c-36,0 -49,-10 -49,-65 0,-71 5,-173 70,-173 75,0 47,237 -22,237zm160 -294c-47,-30 -28,-40 -115,-49 -142,-15 -251,88 -251,251 0,143 35,101 49,151 -67,18 -129,160 -27,183l0 11c-99,26 -183,237 97,237l81 0c122,0 210,-65 210,-183 0,-212 -318,-102 -318,-183 0,-48 46,-16 113,-16 89,0 150,-44 180,-106 51,-102 28,-131 20,-234l108 -44 -31 -92 -116 74z"/>
    <path fill="#1C80B7" d="M6246 5785c-107,0 -157,-3 -86,-108 37,1 156,11 156,43 0,42 -7,65 -70,65zm0 -378c-26,0 -49,-5 -49,-54 0,-72 4,-183 70,-183 37,0 43,27 43,59 0,62 -6,178 -65,178zm160 -294c-50,-32 -24,-39 -115,-49 -142,-15 -251,92 -251,246 0,111 -1,77 49,151 -34,47 -81,41 -81,129 0,29 31,53 54,59 -11,40 -92,35 -92,156 0,96 194,92 270,92 126,0 210,-64 210,-189 0,-202 -318,-99 -318,-178 0,-48 42,-16 124,-16 171,0 226,-180 189,-340l108 -44 -31 -92 -116 74z"/>
    <path fill="#1C80B7" d="M5701 5601l-32 -5c-7,-29 -11,-7 -11,-54 0,-80 16,-159 21,-238 13,-183 108,-122 108,-108 0,77 -24,241 -34,333 -5,46 3,71 -53,71zm97 -496c-44,-12 -55,-60 -153,-34 -54,14 -87,58 -105,105 -33,85 -49,294 -49,404 0,82 47,140 129,140 57,0 83,-29 119,-49l0 38 151 0c26,0 30,-180 34,-214 11,-101 66,-654 74,-671l-167 0 -32 280z"/>
    <path fill="#1C80B7" d="M15676 5709l162 0c14,-58 41,-346 48,-437 5,-58 12,-86 76,-86 15,0 7,4 29,6l-52 517 153 0c28,0 33,-192 36,-223 9,-82 17,-151 25,-234 25,-237 -108,-221 -250,-126l30 -302 -154 0c-25,0 -30,177 -34,209 -18,163 -69,556 -69,676z"/>
    <path fill="#1C80B7" d="M13436 5709l168 0 51 -491c5,-16 40,-38 89,-27 3,11 6,15 5,22l-49 496 167 0 54 -534c6,-63 -41,-112 -102,-111 -73,1 -110,31 -157,62l33 -302 -168 0 -93 885z"/>
    <path fill="#1C80B7" d="M10948 5709l164 0c18,-75 24,-205 34,-290 17,-154 -1,-233 90,-233 15,0 7,4 29,6l-52 517 153 0c28,0 32,-192 36,-223 9,-81 17,-152 26,-233 27,-242 -115,-217 -251,-127l31 -302 -166 0 -94 884z"/>
    <path fill="#1C80B7" d="M9483 5601c-41,0 -30,-4 -59,-11l40 -399c45,-19 46,-19 84,-10 7,29 11,7 11,54 0,72 -22,367 -76,367zm-11 -485l0 -43 -151 0c-26,0 -31,166 -33,199l-70 642 167 0 28 -248c29,20 62,54 113,54 102,0 153,-90 167,-178 15,-88 32,-237 32,-329 0,-181 -144,-170 -254,-97z"/>
    <path fill="#1C80B7" d="M7039 5127c11,-68 32,-54 -146,-54 -30,0 -44,267 -48,308 -10,93 -33,241 -33,329l151 0c32,0 40,-247 44,-290 5,-49 11,-98 17,-151 3,-30 -1,-52 20,-66 14,-10 47,-19 65,-10 30,22 -10,272 -16,329 -23,215 -72,189 145,189l58 -539c3,-65 -46,-109 -105,-106 -86,3 -105,50 -152,63z"/>
    <path fill="#1C80B7" d="M12639 5655c0,69 -44,54 162,54l67 -636 -153 0c-29,0 -38,239 -43,276 -6,47 -12,96 -16,140 -8,87 4,107 -76,107 -10,0 -22,-10 -22,-16l50 -507 -152 0c-33,0 -55,399 -61,457 -27,238 103,221 245,126z"/>
    <path fill="#1C80B7" d="M16431 5132c2,-26 5,-14 5,-59l-151 0c-28,0 -44,269 -48,308 -8,101 -33,239 -33,328l167 0c0,-79 21,-202 30,-288 17,-164 -2,-235 89,-235 14,0 7,4 30,6l-54 517 153 0c26,0 35,-211 39,-247 13,-119 26,-175 26,-303 0,-62 -47,-101 -110,-94 -71,8 -99,38 -143,67z"/>
    <path fill="#1C80B7" d="M17747 5601c-43,0 -43,-19 -43,-54 0,-67 11,-136 18,-203 9,-81 0,-164 74,-164 55,0 21,168 15,215 -6,57 -4,206 -64,206zm-22 119c118,0 191,-55 224,-142 20,-52 40,-282 40,-354 0,-202 -342,-227 -414,-9 -13,39 -39,278 -39,327 1,113 72,178 188,178z"/>
    <path fill="#1C80B7" d="M12083 5601c-36,0 -38,-23 -38,-49 0,-87 8,-372 81,-372 73,0 32,157 26,214 -7,60 -3,206 -69,206zm-16 119c115,0 198,-58 224,-148 20,-66 40,-262 40,-343 0,-207 -339,-235 -414,-14 -15,45 -41,268 -40,327 3,115 71,178 189,178z"/>
    <path fill="#1C80B7" d="M16949 5601c-40,0 -38,-28 -38,-54 0,-86 9,-367 81,-367 73,0 32,157 26,214 -7,60 -3,206 -69,206zm-16 119c115,0 198,-58 224,-148 20,-66 40,-262 40,-343 0,-207 -339,-235 -414,-14 -15,44 -41,270 -40,327 3,115 71,178 189,178z"/>
    <path fill="#1C80B7" d="M8895 5542c0,-65 69,-122 113,-146 0,32 -8,150 -16,167 -20,40 -97,49 -97,-21zm86 -351c67,0 45,29 38,119 -144,76 -281,82 -281,286 0,63 60,124 124,124 87,0 98,-50 135,-92l6 81 134 0c25,0 19,-155 22,-183 7,-60 11,-122 18,-187 15,-136 24,-256 -117,-272 -138,-16 -229,32 -266,138 -37,105 -21,81 84,83 58,1 55,19 62,-29 4,-29 13,-68 40,-68z"/>
    <path fill="#1C80B7" d="M14953 5321l-76 0c0,-105 9,-147 86,-129 4,18 26,129 -11,129zm-264 216c0,250 329,221 392,68 8,-19 35,-113 25,-130 -13,-21 -122,-8 -152,-8 -2,108 -23,140 -92,124 -8,-33 -24,-182 21,-189 41,-7 181,0 232,0 10,-98 12,-94 11,-189 0,-170 -229,-184 -330,-103 -84,67 -107,276 -107,427z"/>
    <path fill="#1C80B7" d="M10502 4954l140 0 -78 755 181 0c2,-106 28,-269 41,-385 6,-51 23,-370 56,-370l124 0 11 -129 -464 0 -11 129z"/>
    <path fill="#1C80B7" d="M14255 4954c170,0 148,-34 123,181l-41 390c-22,223 -64,184 163,184 0,-126 31,-310 46,-440 9,-76 13,-144 21,-221 14,-127 3,-94 149,-94l16 -130 -463 0 -13 129z"/>
    <path fill="#1C80B7" d="M15374 5720c246,0 249,-270 216,-270l-124 0c-32,0 -24,92 -33,118 -16,49 -80,34 -80,-5 0,-48 21,-325 43,-362 19,-32 79,-28 76,16l-6 102c182,0 163,29 163,-124 0,-161 -333,-215 -407,36 -12,40 -38,273 -34,318 11,112 68,170 187,170z"/>
    <path fill="#1C80B7" d="M9806 5240l0 32c0,120 200,196 200,286 0,28 -22,43 -49,43 -57,0 -59,-62 -76,-97l-123 46c3,234 403,215 403,-8 0,-167 -205,-234 -205,-313 0,-57 103,-75 113,49l113 -45c1,-248 -377,-201 -377,7z"/>
    <path fill="#1C80B7" d="M17254 5709l153 0c28,0 32,-177 35,-213 8,-79 16,-149 24,-224 6,-59 38,-426 49,-447l-167 0 -94 884z"/>
    <path fill="#1C80B7" d="M11711 5159c5,-43 7,-45 5,-86l-162 0c-29,125 -42,427 -64,590 -9,63 -23,47 161,47 4,-44 35,-406 53,-433 14,-21 74,-64 109,-58l43 6c2,-85 43,-157 -16,-157 -70,0 -94,68 -129,92z"/>
    <path fill="#1C80B7" d="M5037 5164c2,-106 63,-92 -156,-92l-67 636 164 0c17,-73 25,-207 33,-290 4,-41 1,-111 21,-141 13,-20 75,-65 108,-59l43 6 18 -157c-100,-1 -98,21 -164,97z"/>
    <path fill="#1C80B7" d="M5202 5709l154 0c30,0 48,-343 53,-389 29,-265 48,-249 -26,-248 -38,1 -76,0 -114,0l-67 636z"/>
    <path fill="#1C80B7" d="M6537 5709l162 0 68 -636c-211,0 -162,-32 -182,150 -14,128 -48,378 -48,486z"/>
    <polygon fill="#1C80B7" points="5278,4975 5447,4976 5459,4846 5291,4846 "/>
    <path fill="#1C80B7" d="M6611 4975l153 0c22,0 18,-36 20,-56 3,-27 7,-49 7,-74l-167 0 -13 129z"/>
   </g>
   <g>
    <g>
     <path fill="#1C80B7" d="M19818 3594l986 -5c42,5 95,0 95,-42 0,-54 -146,-15 -278,-59 -88,-30 -112,-109 -131,-212 -30,-165 -34,-457 -34,-646 0,-125 -29,-1312 -37,-1328 25,2 255,259 288,297 91,101 203,204 285,305 77,94 469,475 584,591 197,197 390,390 588,588 87,87 519,560 615,560 75,0 58,-299 58,-390 0,-142 7,-298 11,-437 8,-295 12,-596 10,-891 -2,-288 14,-585 16,-880 1,-114 6,-333 43,-405 86,-168 311,-47 311,-148 0,-45 -135,-32 -184,-32l-316 11 -422 -13c-56,0 -183,-11 -190,39 30,128 356,-103 417,273 26,157 20,487 20,670 0,447 32,901 32,1349 -37,-3 -261,-249 -299,-291 -93,-103 -192,-208 -290,-306 -199,-199 -390,-401 -590,-601l-880 -901c-50,-52 -241,-289 -307,-289 -77,0 -58,312 -58,406 0,138 3,323 -6,463 -9,143 2,319 -10,459 -11,133 -6,328 -6,463 0,305 -17,616 -16,917 1,135 -9,327 -96,373 -39,20 -139,34 -199,33 -130,-1 -95,79 -11,79z"/>
     <path fill="#1C80B7" d="M17850 1246c12,6 397,1019 397,1062 0,28 -151,16 -184,16 -100,0 -588,7 -616,-4l403 -1074zm-1574 2295c0,85 159,51 248,47 96,-4 201,4 293,-7 76,-9 200,8 286,7 67,0 253,30 253,-37 0,-87 -290,29 -290,-148 0,-156 85,-333 138,-468 21,-52 145,-402 178,-402l922 0c53,0 93,162 112,209 47,119 267,663 267,713 0,79 -98,26 -100,100 42,45 331,32 432,32l511 5c48,0 158,-1 158,-42 0,-53 -59,-33 -109,-39 -126,-13 -222,-27 -309,-149 -95,-134 -142,-243 -209,-402 -120,-281 -241,-576 -353,-864 -111,-287 -240,-577 -352,-865 -56,-144 -114,-290 -175,-431 -30,-70 -141,-401 -210,-401 -89,0 -180,304 -214,387 -59,145 -119,285 -175,431 -55,144 -118,283 -174,427 -57,145 -112,290 -174,432 -62,142 -114,284 -172,428 -59,144 -120,285 -175,431 -46,123 -122,320 -190,416 -166,238 -419,113 -419,188z"/>
     <path fill="#1C80B7" d="M14521 490c0,95 268,0 362,123 60,79 55,291 55,430l0 1692c0,184 -2,390 -23,557 -10,79 -27,169 -93,197 -47,20 -237,20 -237,53l0 16c0,60 251,31 316,32 115,0 241,-15 349,-6 109,9 240,6 353,6 72,0 311,40 311,-42 0,-81 -350,34 -415,-155 -41,-119 -44,-369 -44,-530l0 -2155c0,-70 114,-69 184,-69 395,0 664,347 664,748 0,236 -67,408 -202,541 -107,107 -197,162 -351,170 -55,3 -110,3 -122,52 19,35 42,42 95,42l74 0c565,0 996,-433 996,-1001 0,-246 -131,-441 -271,-551 -182,-144 -459,-184 -741,-181l-553 11c-215,0 -424,-14 -648,-11 -23,0 -58,10 -58,32z"/>
     <path fill="#1C80B7" d="M12704 1159l0 53c0,414 330,729 564,916 238,190 648,430 648,838 0,498 -721,643 -1034,276 -87,-102 -123,-238 -143,-374 -7,-47 8,-123 -51,-123 -56,0 -58,202 -58,269 0,125 -10,270 -10,416 0,112 150,146 242,169 203,50 291,47 501,47 529,0 991,-345 991,-864l0 -63c0,-880 -1233,-1146 -1233,-1671l0 -58c0,-231 220,-395 453,-395 201,0 330,31 455,167 208,227 83,381 188,381 58,0 42,-234 42,-306 0,-54 21,-311 12,-334 -27,-70 -480,-104 -613,-104 -497,0 -954,279 -954,759z"/>
    </g>
    <g>
     <path fill="#5E5E5E" d="M10898 1586c14,-61 23,-127 35,-192 6,-31 43,-188 13,-188l-648 0c-32,0 -59,245 -66,288l-158 907c-37,201 -65,401 -105,601 -20,99 -37,201 -53,300 -14,82 -50,235 -50,308l680 0c6,-71 33,-197 48,-274l146 -829c33,-185 52,-381 133,-515 67,-113 205,-268 380,-268l53 0c173,0 258,146 258,321l11 44 -263 1521 680 0c32,-138 50,-295 77,-440l154 -878c39,-222 59,-292 59,-531 0,-675 -651,-726 -1064,-474 -57,35 -123,88 -170,135 -24,24 -132,160 -146,165z"/>
     <path fill="#5E5E5E" d="M1659 2988c0,222 36,369 147,506 99,122 235,155 436,175 181,18 364,-59 475,-128 180,-111 273,-266 316,-295l-63 364 680 0c44,-187 72,-405 106,-600 35,-200 69,-403 107,-605 58,-311 102,-598 157,-908 7,-38 65,-291 36,-291 -101,0 -612,-8 -669,5 0,57 -78,460 -93,555 -30,187 -66,368 -97,556 -33,197 -54,359 -133,515 -73,145 -214,260 -420,260 -188,0 -279,-133 -279,-321 0,-163 95,-587 124,-782 19,-130 134,-724 134,-778 0,-7 -7,-11 -16,-11l-648 0c-29,0 -44,173 -50,208 -11,76 -27,146 -39,219 -25,148 -48,297 -78,444 -30,149 -51,295 -77,445 -25,144 -57,294 -57,464z"/>
     <path fill="#5E5E5E" d="M468 1207l-369 0 -99 553 368 1 -322 1850 681 0 324 -1849 488 0c28,0 49,-199 56,-234 15,-85 29,-168 43,-247 16,-89 56,-72 -193,-72 -98,0 -197,0 -295,0 0,-84 64,-354 92,-419 45,-106 157,-213 304,-213 215,0 153,23 279,53l103 -574c-30,-38 -256,-53 -335,-53 -509,0 -883,294 -1024,720 -28,83 -98,390 -98,487z"/>
     <path fill="#5E5E5E" d="M4264 2034l0 95c0,328 351,468 598,561 119,45 324,113 263,289 -46,133 -224,182 -403,182 -184,0 -354,-52 -496,-136 -24,-14 -116,-76 -131,-80l-104 605c67,6 168,97 599,117 210,10 454,-29 610,-91 189,-76 295,-152 419,-293 92,-105 194,-327 194,-523l0 -79c0,-299 -324,-466 -555,-546 -112,-39 -304,-106 -305,-245 -1,-145 168,-231 318,-231 147,0 219,3 360,51 47,16 220,107 225,107l97 -574 -268 -67c-386,-69 -802,-10 -1077,199 -169,128 -343,365 -343,658z"/>
     <path fill="#5E5E5E" d="M5967 3610l680 0c45,-192 67,-403 106,-600 39,-198 70,-403 107,-604 38,-203 74,-405 105,-606 16,-106 35,-196 51,-302 7,-45 65,-291 36,-291l-654 0c-31,0 -57,248 -64,289 -16,97 -33,201 -52,301 -38,199 -71,402 -107,605 -35,197 -72,400 -105,601 -16,93 -103,558 -104,608z"/>
     <path fill="#5E5E5E" d="M6784 833l37 0c238,0 443,-209 443,-469 0,-173 -138,-295 -311,-295l-47 0c-488,0 -624,764 -121,764z"/>
     <g>
      <path fill="#1C80B7" d="M8632 2677c0,165 206,109 206,-47 0,-164 -206,-110 -206,47z"/>
      <path fill="#1C80B7" d="M8374 2598c0,172 200,118 200,-53 0,-160 -200,-103 -200,53z"/>
      <path fill="#1C80B7" d="M8126 2498c0,60 32,105 95,105 109,0 169,-248 21,-248 -66,0 -116,77 -116,142z"/>
      <path fill="#1C80B7" d="M7889 2398c0,59 33,100 95,100 54,0 105,-78 105,-153 0,-48 -29,-95 -90,-95 -57,0 -111,84 -111,148z"/>
      <path fill="#1C80B7" d="M8796 2498c141,0 157,-248 32,-248 -124,0 -150,248 -32,248z"/>
      <path fill="#1C80B7" d="M8891 2730c0,167 195,122 195,-42 0,-154 -195,-108 -195,42z"/>
      <path fill="#1C80B7" d="M8479 2319c0,172 190,120 190,-53 0,-37 -27,-84 -63,-84l-26 0c-53,0 -100,79 -100,137z"/>
      <path fill="#1C80B7" d="M7947 2999c0,149 195,145 195,0 0,-56 -40,-105 -105,-105 -46,0 -90,57 -90,105z"/>
      <path fill="#1C80B7" d="M8190 3093c0,143 200,130 200,-16 0,-132 -200,-111 -200,16z"/>
      <path fill="#1C80B7" d="M9223 1507l0 0zm-84 -32l-5 -5 5 5zm-5 -5l-5 -5 5 5zm-47 0l-5 -5 5 5zm42 -5l-5 -5 5 5zm-47 0l0 0zm42 -5l0 0zm-116 -26l0 0zm-5 -11l5 11 -5 -11zm-5 -11l5 11 -5 -11zm79 -5l5 4 25 24c-12,-2 -7,1 -18,-10 -5,-5 -8,-9 -12,-14l-1 -5zm-42 -5l0 0zm53 -16l0 0zm0 84l79 69 9 -9 -36 -55 84 60 7 -8 -6 -21 51 -14c-2,-35 -182,-165 -188,-107l-31 -13 -3 4 24 30 -46 -29 4 23 -45 -34 8 45 -53 -47c0,55 35,157 84,158l-14 -80c27,22 35,78 87,80l-16 -53z"/>
      <path fill="#1C80B7" d="M7594 2530c0,188 163,154 163,-21 0,-156 -163,-115 -163,21z"/>
      <path fill="#1C80B7" d="M9133 2777c0,156 169,103 169,-37 0,-48 2,-111 -69,-111 -54,0 -100,90 -100,148z"/>
      <path fill="#1C80B7" d="M8363 1987c0,153 184,73 184,-69 0,-62 -36,-69 -74,-69 -52,0 -111,83 -111,137z"/>
      <path fill="#1C80B7" d="M8580 2034l0 47c0,28 29,69 69,69 101,0 147,-232 26,-232 -47,0 -95,67 -95,116z"/>
      <path fill="#1C80B7" d="M8796 2103c0,162 163,142 163,-26 0,-132 -163,-128 -163,26z"/>
      <path fill="#1C80B7" d="M9006 2140c0,172 153,161 153,11 0,-161 -153,-158 -153,-11z"/>
      <path fill="#1C80B7" d="M8163 1908c0,131 190,56 190,-90 0,-27 -28,-53 -53,-53 -63,0 -137,83 -137,142z"/>
      <path fill="#1C80B7" d="M7425 2440c0,153 142,128 142,-63 0,-34 -16,-90 -53,-90 -52,0 -90,96 -90,153z"/>
      <path fill="#1C80B7" d="M7657 1945c0,120 184,35 184,-105 0,-108 -184,-13 -184,105z"/>
      <path fill="#1C80B7" d="M9339 2798c0,172 142,48 142,-90 0,-58 -17,-74 -53,-74 -42,0 -90,111 -90,163z"/>
      <path fill="#1C80B7" d="M7388 2097c0,149 153,3 153,-126 0,-136 -153,-4 -153,126z"/>
      <path fill="#1C80B7" d="M7905 3204c0,114 169,145 169,16 0,-113 -169,-134 -169,-16z"/>
      <path fill="#1C80B7" d="M8116 3299c0,113 179,113 179,-5 0,-54 -42,-79 -95,-79 -38,0 -84,47 -84,84z"/>
      <path fill="#1C80B7" d="M7842 1728c0,112 200,-19 200,-111 0,-17 -23,-32 -42,-32 -61,0 -158,82 -158,142z"/>
      <path fill="#1C80B7" d="M7531 1860c0,98 179,-16 179,-132 0,-101 -179,22 -179,132z"/>
      <path fill="#1C80B7" d="M9238 3104c0,100 158,7 158,-148 0,-32 -23,-42 -51,-30 -45,20 -107,113 -107,178z"/>
      <path fill="#1C80B7" d="M8553 3441c0,102 200,34 200,-47 0,-110 -200,-24 -200,47z"/>
      <path fill="#1C80B7" d="M7294 2340c0,145 116,116 116,-105 0,-37 -12,-58 -42,-58 -40,0 -74,112 -74,163z"/>
      <path fill="#1C80B7" d="M9370 2140c0,168 116,213 116,105l0 -53c0,-118 -116,-197 -116,-53z"/>
      <path fill="#1C80B7" d="M8669 1802c0,52 -4,90 63,90 34,0 74,-63 74,-132 0,-117 -137,-67 -137,42z"/>
      <path fill="#1C80B7" d="M8321 1697c0,101 179,19 179,-84 0,-92 -179,-20 -179,84z"/>
      <path fill="#1C80B7" d="M8490 1771c0,110 158,32 158,-90 0,-24 -21,-47 -42,-47 -55,0 -116,80 -116,137z"/>
      <path fill="#1C80B7" d="M8168 1628c0,76 195,6 195,-100 0,-75 -195,2 -195,100z"/>
      <path fill="#1C80B7" d="M7726 1639c0,14 3,15 5,26 126,29 252,-169 169,-169 -62,0 -174,88 -174,142z"/>
      <path fill="#1C80B7" d="M7262 2545c0,198 100,169 100,37 0,-171 -100,-167 -100,-37z"/>
      <path fill="#1C80B7" d="M9180 1834l0 42c0,58 39,143 90,148 67,-58 -7,-227 -63,-227 -17,0 -26,19 -26,37z"/>
      <path fill="#1C80B7" d="M9502 2777c0,86 0,41 11,84 45,0 55,-28 69,-58 22,-49 26,-84 26,-137 0,-13 -12,-42 -21,-42 -49,0 -84,101 -84,153z"/>
      <path fill="#1C80B7" d="M8753 3494c0,82 195,-9 195,-90 0,-65 -195,15 -195,90z"/>
      <path fill="#1C80B7" d="M9096 3341c0,79 179,-49 179,-137 0,-71 -179,52 -179,137z"/>
      <path fill="#1C80B7" d="M9539 2440c0,38 -6,137 42,137 61,0 57,-276 -6,-244 -23,12 -36,71 -36,107z"/>
      <path fill="#1C80B7" d="M9502 2087c0,63 4,189 74,206 46,-34 10,-161 -8,-198 -34,-70 -66,-43 -66,-8z"/>
      <path fill="#1C80B7" d="M7383 2861c0,54 51,196 95,169 0,0 21,3 21,-42 0,-47 -38,-169 -90,-169 -19,0 -26,24 -26,42z"/>
      <path fill="#1C80B7" d="M9307 1818c0,67 18,134 59,184 14,18 20,22 52,22 21,-92 -53,-227 -90,-227 -12,0 -21,9 -21,21z"/>
      <path fill="#1C80B7" d="M7652 1560c0,80 200,-75 200,-132 0,-63 -200,70 -200,132z"/>
      <path fill="#1C80B7" d="M7315 2008c0,108 148,-82 121,-195 -67,-14 -121,149 -121,195z"/>
      <path fill="#1C80B7" d="M7968 1491c71,0 200,-73 200,-116 0,-54 -138,3 -202,67 -12,12 -35,49 2,49z"/>
      <path fill="#1C80B7" d="M7457 1786c81,19 216,-195 158,-195 -38,0 -158,104 -158,195z"/>
      <path fill="#1C80B7" d="M9402 3104c0,76 132,-61 132,-184 0,-46 -58,10 -92,66 -18,30 -40,73 -40,118z"/>
      <path fill="#1C80B7" d="M8427 3578c0,43 102,27 144,1 34,-21 39,-26 36,-64 -28,-7 -7,-11 -53,-11 -48,0 -126,27 -126,74z"/>
      <path fill="#1C80B7" d="M7225 2266c0,30 -3,39 16,53 35,-9 93,-182 58,-248 -53,4 -74,150 -74,195z"/>
      <path fill="#1C80B7" d="M8933 3525c38,0 97,-33 122,-52 49,-36 84,-90 47,-90 -81,0 -236,142 -169,142z"/>
      <path fill="#1C80B7" d="M9707 2387c-17,-26 0,-65 -37,-90 -45,30 -41,234 11,248 31,-23 26,-103 26,-158z"/>
      <path fill="#1C80B7" d="M9101 1576c0,46 19,88 39,129 8,16 20,30 33,41 32,28 44,12 44,-23 0,-87 -116,-209 -116,-148z"/>
      <path fill="#1C80B7" d="M9244 3346l16 0c46,0 148,-122 148,-169 0,-63 -163,91 -163,169z"/>
      <path fill="#1C80B7" d="M7884 1396c0,51 151,-26 187,-50 19,-13 34,-21 35,-50 -60,0 -87,10 -128,30 -22,11 -93,46 -93,70z"/>
      <path fill="#1C80B7" d="M7657 3304c65,0 -6,-163 -74,-163 -58,0 21,163 74,163z"/>
      <path fill="#1C80B7" d="M9402 1808c0,50 18,94 37,132 9,18 17,33 30,49 93,119 15,-190 -62,-197 -4,6 -5,6 -5,16z"/>
      <path fill="#1C80B7" d="M9660 2118l-5 -16 -5 -16c-21,-24 -21,-65 -58,-69 -15,65 21,244 79,232 0,-99 -10,-99 -11,-132z"/>
      <path fill="#1C80B7" d="M9613 2772l5 53c51,-4 85,-172 69,-242 -47,4 -74,147 -74,190z"/>
      <path fill="#1C80B7" d="M8606 3631c104,0 244,-100 148,-100 -105,0 -219,100 -148,100z"/>
      <path fill="#1C80B7" d="M8432 1228l47 5c-25,0 -22,4 -42,5l111 16c-31,0 -93,-2 -100,26 31,0 170,-5 190,-32l-84 -5c19,0 27,0 45,-3 27,-4 23,3 34,-13 -17,-8 -24,-5 -47,-5l0 -5c28,0 32,-4 53,-5l0 -11c-34,0 -82,-3 -115,1 -12,2 -34,4 -52,6 -29,4 -33,-2 -39,19z"/>
      <path fill="#1C80B7" d="M7283 2730c0,59 0,80 23,135 11,26 25,68 56,71 23,-41 -20,-217 -74,-221 -4,6 -5,6 -5,16z"/>
      <path fill="#1C80B7" d="M8211 1354c62,0 84,-10 136,-27 16,-5 64,-25 72,-40 26,-54 -140,3 -148,6 -19,7 -35,13 -52,22 -11,6 -46,39 -9,39z"/>
      <path fill="#1C80B7" d="M9286 1660c-11,-8 -7,-1 -11,-16 -21,-16 -42,-75 -95,-79 3,41 53,128 77,160 8,11 53,68 60,24 4,-22 -27,-67 -32,-90z"/>
      <path fill="#1C80B7" d="M9460 1776c0,32 50,134 72,165 15,20 19,35 49,35 0,-56 -21,-84 -46,-134 -9,-17 -36,-62 -51,-71 -7,-5 -25,-11 -25,5z"/>
      <path fill="#1C80B7" d="M9275 1644c11,8 7,1 11,16 13,9 30,41 44,56 16,19 29,38 62,38 0,-47 -11,-54 -37,-90 -6,-9 -10,-16 -17,-25 -23,-27 -57,-78 -93,-81 1,37 24,52 32,84z"/>
      <path fill="#1C80B7" d="M9502 3093c37,-1 57,-46 77,-86 15,-30 44,-81 44,-119 0,-3 -7,-11 -11,-16 -22,15 -52,73 -65,98 -20,39 -46,68 -46,123z"/>
      <path fill="#1C80B7" d="M7599 1512c-32,3 -77,53 -99,75 -113,114 -77,173 70,-14 15,-19 28,-31 29,-61z"/>
      <path fill="#1C80B7" d="M8279 1228c-25,16 -122,22 -132,58 30,15 100,0 131,-7l83 -28c23,-12 16,-2 19,-23 -28,-14 -68,0 -100,0z"/>
      <path fill="#1C80B7" d="M7631 1502c28,-2 136,-75 165,-99 18,-15 39,-22 41,-49 -43,1 -200,78 -206,148z"/>
      <path fill="#1C80B7" d="M7283 1950c24,-6 32,-25 44,-45 13,-22 21,-32 33,-57 9,-17 60,-110 45,-125 -16,-16 -66,78 -75,95 -19,38 -47,77 -47,132z"/>
      <path fill="#1C80B7" d="M7204 2450c0,83 -3,64 16,142 19,-5 18,-8 22,-31 6,-36 15,-188 -16,-211 -20,15 -21,72 -21,100z"/>
      <path fill="#1C80B7" d="M7552 3225c0,-58 -54,-173 -105,-174 0,44 17,73 33,104 15,28 37,69 72,70z"/>
      <path fill="#1C80B7" d="M8901 3578c12,-17 14,-7 16,-32 -48,0 -79,13 -115,27 -27,10 -72,33 -80,63 30,15 107,-22 137,-37 13,-7 28,-17 42,-21z"/>
      <path fill="#1C80B7" d="M9054 3510c42,0 80,-31 108,-51 17,-12 30,-21 44,-35 14,-14 31,-22 33,-46 -60,0 -175,90 -184,132z"/>
      <path fill="#1C80B7" d="M7879 1344c39,0 134,-41 172,-60 22,-11 38,-13 44,-35 -65,0 -131,21 -180,52 -17,11 -34,18 -36,43z"/>
      <path fill="#1C80B7" d="M9444 1734c0,-57 -81,-143 -130,-181 -31,-24 -41,-8 -22,16l103 124c33,38 24,39 49,41z"/>
      <path fill="#1C80B7" d="M8458 1159c1,1 3,0 4,2 1,2 3,1 4,2l30 7c14,1 32,1 47,1l0 5c-31,0 -54,-2 -85,5 -25,5 -7,-7 -21,11 27,15 159,3 200,0 -5,-13 11,-11 -21,-11l53 -5c-21,-28 -189,-24 -211,-16z"/>
      <path fill="#1C80B7" d="M9613 1939c18,-21 -33,-104 -44,-124 -11,-18 -19,-32 -30,-49 -12,-19 -19,-37 -41,-43 0,36 5,37 18,62l75 136c10,16 5,14 23,19z"/>
      <path fill="#1C80B7" d="M7273 2840c0,-56 -4,-81 -15,-122 -8,-29 -19,-86 -49,-94 0,48 21,156 43,199 8,14 3,13 20,17z"/>
      <path fill="#1C80B7" d="M7889 1291c35,-1 87,-29 117,-41 20,-8 40,-15 57,-22 39,-16 41,-13 47,-32 -53,0 -89,14 -129,29 -26,10 -30,15 -52,27 -20,11 -34,16 -40,39z"/>
      <path fill="#1C80B7" d="M9649 2087c5,6 5,-9 5,16 5,6 5,-9 5,16 22,25 15,63 37,79 18,-37 -15,-146 -37,-184 -12,-22 -20,-38 -37,-42 0,47 23,73 26,116z"/>
      <path fill="#1C80B7" d="M7752 3425c49,0 -41,-105 -116,-105 1,52 89,105 116,105z"/>
      <path fill="#1C80B7" d="M8811 1444c0,50 69,29 69,-58 0,-22 -8,-33 -21,-42 -34,9 -47,67 -47,100z"/>
      <path fill="#1C80B7" d="M8269 1191c1,-1 3,-3 4,-1 1,1 3,-1 4,-1 26,-7 73,-9 92,-18 -6,-15 11,-6 -17,-14 -11,-3 -24,-2 -35,-2 -47,0 -87,4 -127,15 -25,7 -39,7 -41,32 50,0 75,-11 121,-11z"/>
      <path fill="#1C80B7" d="M7199 2208l16 0c8,-33 73,-185 53,-227 -36,24 -69,188 -69,227z"/>
      <path fill="#1C80B7" d="M8279 1228c18,-12 74,-10 90,-32 -22,-11 -69,-5 -100,-5l-34 8c-17,3 -20,4 -34,8 -33,9 -47,9 -53,31 80,0 94,-11 132,-11z"/>
      <path fill="#1C80B7" d="M8891 1386c0,36 -5,105 37,116 28,-20 16,-85 5,-111 -8,-19 -11,-31 -32,-37 -5,10 -11,16 -11,32z"/>
      <path fill="#1C80B7" d="M7446 3136c-4,-43 -51,-111 -75,-147 -32,-48 -54,-44 -22,22 16,33 60,122 97,125z"/>
      <path fill="#1C80B7" d="M9317 1523c2,30 19,32 36,49 15,15 23,28 39,45 21,21 66,93 79,81 18,-18 -90,-159 -154,-174z"/>
      <path fill="#1C80B7" d="M9707 2387c1,1 1,2 1,4 0,2 1,3 1,4l8 66c14,-4 20,-5 21,-47 1,-19 1,-50 0,-68 -2,-26 -18,-87 -37,-100 -12,26 5,102 5,142z"/>
      <path fill="#1C80B7" d="M8406 3663c24,14 111,2 137,0 28,-3 53,-6 64,-21 -24,-13 -133,-5 -177,8 -25,8 -11,-5 -24,13z"/>
      <path fill="#1C80B7" d="M7520 3246c17,72 158,164 96,78 -21,-29 -56,-77 -96,-78z"/>
      <path fill="#1C80B7" d="M9381 3283c35,-8 124,-124 126,-158 -29,8 -122,137 -126,158z"/>
      <path fill="#1C80B7" d="M8464 1302l0 11c56,0 94,-8 145,-19 24,-5 29,-4 35,-23 -74,0 -158,30 -179,32z"/>
      <path fill="#1C80B7" d="M8901 3578c-4,8 -3,6 -5,16 37,0 57,-10 83,-23 31,-16 53,-20 60,-46 -26,1 -52,13 -73,22 -19,8 -48,27 -64,31z"/>
      <path fill="#1C80B7" d="M7815 3520c-20,-37 -111,-109 -142,-116 7,28 114,114 142,116z"/>
      <path fill="#1C80B7" d="M9697 2682c22,-6 19,-15 26,-74 4,-34 5,-55 5,-95 -18,13 -22,53 -25,75 -5,35 -7,55 -7,94z"/>
      <path fill="#1C80B7" d="M9080 1411l-4 1c4,5 6,9 12,14 11,11 6,8 18,10l-25 -24z"/>
     </g>
    </g>
   </g>
  </g>
 </g>
</svg>
