<?xml version="1.0" encoding="UTF-8"?>
<!DOCTYPE svg PUBLIC "-//W3C//DTD SVG 1.1//EN" "http://www.w3.org/Graphics/SVG/1.1/DTD/svg11.dtd">
<!-- Creator: CorelDRAW X6 -->
<svg xmlns="http://www.w3.org/2000/svg" xml:space="preserve" width="185.085mm" height="155.258mm" version="1.1" shape-rendering="geometricPrecision" text-rendering="geometricPrecision" image-rendering="optimizeQuality" fill-rule="evenodd" clip-rule="evenodd"
viewBox="0 0 10739 9008"
 xmlns:xlink="http://www.w3.org/1999/xlink">
 <defs>
      <linearGradient id="id0" gradientUnits="userSpaceOnUse" x1="3451.97" y1="3632.15" x2="6600.99" y2="3632.15">
       <stop offset="0" stop-color="#979797"/>
       <stop offset="1" stop-color="#D2D4D2"/>
      </linearGradient>
 </defs>
 <g id="Layer_x0020_1">
  <metadata id="CorelCorpID_0Corel-Layer"/>
  <g id="_519624728">
   <g>
    <path fill="#F2F2F2" fill-rule="nonzero" fill-opacity="0.901961" d="M473 1539c1271,-2739 4901,-1317 6095,370 474,670 516,1083 1291,1451 563,267 1260,7 1816,366 1218,788 1310,2768 683,3842 -650,1115 -1811,1761 -2904,1277 -799,-354 -1068,-1242 -1543,-1442 -977,-410 -1424,81 -2332,157 -3331,279 -4261,-3534 -3106,-6021z"/>
   </g>
   <g>
    <path fill="white" fill-rule="nonzero" d="M2190 1622l0 3410c0,89 72,161 161,161l5345 0c89,0 161,-72 161,-161l0 -3410 -5666 0z"/>
    <rect fill="#E2EEF9" x="2478" y="1920" width="5090" height="2962" rx="98" ry="95"/>
    <path fill="#E2EEF9" fill-rule="nonzero" d="M7856 1490c0,-89 -72,-161 -161,-161l-5345 0c-89,0 -161,72 -161,161l0 132 5666 0 0 -132z"/>
    <path fill="#7B99B4" fill-rule="nonzero" d="M2199 1613l5649 0 0 -123c0,-84 -68,-152 -152,-152l-5345 0c-84,0 -152,68 -152,152l0 123zm5666 17l-5683 0 0 -140c0,-93 76,-169 169,-169l5345 0c93,0 169,76 169,169l0 140z"/>
    <path fill="#7B99B4" fill-rule="nonzero" d="M2199 1630l0 3401c0,84 68,152 152,152l5345 0c84,0 152,-68 152,-152l0 -3401 -5649 0zm5497 3570l-5345 0c-93,0 -169,-76 -169,-169l0 -3418 5683 0 0 3418c0,93 -76,169 -169,169z"/>
    <path fill="white" fill-rule="nonzero" d="M2522 1476c0,32 -26,57 -57,57 -32,0 -57,-26 -57,-57 0,-32 26,-57 57,-57 32,0 57,26 57,57z"/>
    <path fill="#7B99B4" fill-rule="nonzero" d="M2465 1427c-27,0 -49,22 -49,49 0,27 22,49 49,49 27,0 49,-22 49,-49 0,-27 -22,-49 -49,-49zm0 115c-36,0 -66,-30 -66,-66 0,-36 30,-66 66,-66 36,0 66,29 66,66 0,36 -30,66 -66,66z"/>
    <path fill="white" fill-rule="nonzero" d="M2746 1476c0,32 -26,57 -57,57 -32,0 -57,-26 -57,-57 0,-32 26,-57 57,-57 32,0 57,26 57,57z"/>
    <path fill="#7B99B4" fill-rule="nonzero" d="M2688 1427c-27,0 -49,22 -49,49 0,27 22,49 49,49 27,0 49,-22 49,-49 0,-27 -22,-49 -49,-49zm0 115c-36,0 -66,-30 -66,-66 0,-36 30,-66 66,-66 36,0 66,29 66,66 0,36 -30,66 -66,66z"/>
    <path fill="white" fill-rule="nonzero" d="M2969 1476c0,32 -26,57 -57,57 -32,0 -57,-26 -57,-57 0,-32 26,-57 57,-57 32,0 57,26 57,57z"/>
    <path fill="#7B99B4" fill-rule="nonzero" d="M2911 1427c-27,0 -49,22 -49,49 0,27 22,49 49,49 27,0 49,-22 49,-49 0,-27 -22,-49 -49,-49zm0 115c-36,0 -66,-30 -66,-66 0,-36 30,-66 66,-66 36,0 66,29 66,66 0,36 -30,66 -66,66z"/>
    <g>
     <path fill="white" fill-rule="nonzero" d="M2883 2703l-1677 0c-48,0 -86,-39 -86,-86l0 -689c0,-48 39,-86 86,-86l1677 0c48,0 86,39 86,86l0 689c0,48 -39,86 -86,86z"/>
     <path fill="#7B99B4" fill-rule="nonzero" d="M1207 1849c-43,0 -78,35 -78,78l0 689c0,43 35,78 78,78l1677 0c43,0 78,-35 78,-78l0 -689c0,-43 -35,-78 -78,-78l-1677 0zm1677 862l-1677 0c-52,0 -95,-42 -95,-95l0 -689c0,-52 42,-95 95,-95l1677 0c52,0 95,42 95,95l0 689c0,52 -42,95 -95,95z"/>
     <polygon fill="#C2DBF2" fill-rule="nonzero" points="1326,2071 2764,2071 2764,2053 1326,2053 "/>
     <polygon fill="#C2DBF2" fill-rule="nonzero" points="1326,2281 2764,2281 2764,2264 1326,2264 "/>
     <polygon fill="#C2DBF2" fill-rule="nonzero" points="1326,2491 2764,2491 2764,2474 1326,2474 "/>
     <polygon fill="#7B99B4" fill-rule="nonzero" points="1350,2493 1337,2482 1439,2353 1616,2413 1768,2248 1922,2373 2103,2170 2268,2359 2415,1979 2567,2219 2744,1963 2758,1973 2566,2250 2418,2017 2273,2392 2103,2196 1924,2396 1769,2272 1621,2433 1445,2373 "/>
    </g>
    <g>
     <path fill="white" fill-rule="nonzero" d="M3714 1120l-83 -669c-334,41 -592,325 -592,669 0,373 302,675 675,675 373,0 675,-302 675,-675 0,-20 -1,-39 -3,-59l-672 59z"/>
     <path fill="#7B99B4" fill-rule="nonzero" d="M3624 461c-329,45 -576,327 -576,660 0,367 299,666 666,666 367,0 666,-299 666,-666 0,-16 -1,-32 -2,-49l-672 58 -83 -669zm90 1343c-377,0 -683,-306 -683,-683 0,-345 258,-636 599,-678l9 -1 83 670 672 -59 1 9c2,21 3,41 3,59 0,377 -307,683 -683,683z"/>
     <path fill="#A2C7EB" fill-rule="nonzero" d="M4066 983l672 -59c-11,-126 -56,-242 -127,-338l-545 397z"/>
     <path fill="#C2DBF2" fill-rule="nonzero" d="M4259 723c-123,-168 -321,-278 -545,-278 -28,0 -56,2 -83,5l83 669 545 -397z"/>
     <path fill="#7B99B4" fill-rule="nonzero" d="M3641 459l80 646 527 -383c-125,-168 -324,-267 -533,-267 -24,0 -48,1 -73,4zm66 677l-86 -692 9 -1c29,-4 57,-5 84,-5 217,0 424,105 552,281l5 7 -564 411z"/>
    </g>
    <g>
     <path fill="white" fill-rule="nonzero" d="M8912 4091l-1232 0c-59,0 -107,-48 -107,-107l0 -1352c0,-59 48,-107 107,-107l1232 0c59,0 107,48 107,107l0 1352c0,59 -48,107 -107,107z"/>
     <path fill="#7B99B4" fill-rule="nonzero" d="M7679 2534c-54,0 -98,44 -98,98l0 1352c0,54 44,98 98,98l1232 0c54,0 98,-44 98,-98l0 -1352c0,-54 -44,-98 -98,-98l-1232 0zm1232 1565l-1232 0c-63,0 -115,-51 -115,-115l0 -1352c0,-63 52,-115 115,-115l1232 0c63,0 115,51 115,115l0 1352c0,63 -52,115 -115,115z"/>
     <polygon fill="#C2DBF2" fill-rule="nonzero" points="7737,2768 8853,2768 8853,2750 7737,2750 "/>
     <polygon fill="#C2DBF2" fill-rule="nonzero" points="7737,3043 8853,3043 8853,3025 7737,3025 "/>
     <polygon fill="#C2DBF2" fill-rule="nonzero" points="7737,3318 8853,3318 8853,3299 7737,3299 "/>
     <polygon fill="#C2DBF2" fill-rule="nonzero" points="7737,3592 8853,3592 8853,3574 7737,3574 "/>
     <polygon fill="#C2DBF2" fill-rule="nonzero" points="7737,3867 8853,3867 8853,3849 7737,3849 "/>
     <polygon fill="#A2C7EB" fill-rule="nonzero" points="7737,3867 7832,3867 7832,3119 7737,3119 "/>
     <polygon fill="#C2DBF2" fill-rule="nonzero" points="7944,3867 8039,3867 8039,3397 7944,3397 "/>
     <polygon fill="#A2C7EB" fill-rule="nonzero" points="8151,3867 8246,3867 8246,3224 8151,3224 "/>
     <polygon fill="#C2DBF2" fill-rule="nonzero" points="8357,3867 8452,3867 8452,3108 8357,3108 "/>
     <polygon fill="#A2C7EB" fill-rule="nonzero" points="8564,3867 8659,3867 8659,2968 8564,2968 "/>
     <polygon fill="#C2DBF2" fill-rule="nonzero" points="8771,3867 8866,3867 8866,2819 8771,2819 "/>
    </g>
    <polygon fill="#5F90CB" fill-rule="nonzero" points="3686,8946 3926,8946 3926,6028 3686,6028 "/>
    <polygon fill="#5F90CB" fill-rule="nonzero" points="6132,8946 6373,8946 6373,6028 6132,6028 "/>
    <polygon fill="#B2B2C6" fill-rule="nonzero" points="3926,6534 3926,6028 3686,6028 3686,6020 3926,6020 "/>
    <polygon fill="#355389" fill-rule="nonzero" points="3686,6534 3926,6534 3926,6028 3686,6028 "/>
    <polygon fill="#B2B2C6" fill-rule="nonzero" points="6373,6534 6373,6028 6132,6028 6132,6020 6373,6020 "/>
    <polygon fill="#355389" fill-rule="nonzero" points="6132,6534 6373,6534 6373,6028 6132,6028 "/>
    <polygon fill="#5F90CB" fill-rule="nonzero" points="2330,6170 7728,6170 7728,5928 2330,5928 "/>
    <polygon fill="#355389" fill-rule="nonzero" points="6468,5929 7093,5929 7093,5846 6468,5846 "/>
    <path fill="#355389" fill-rule="nonzero" d="M6561 5929l-92 0 -369 -972c-11,-28 10,-59 40,-59 18,0 34,11 40,28l380 1003z"/>
    <polygon fill="#355389" fill-rule="nonzero" points="3107,5929 3733,5929 3733,5846 3107,5846 "/>
    <path fill="#355389" fill-rule="nonzero" d="M3640 5929l92 0 368 -972c11,-28 -10,-59 -40,-59 -18,0 -34,11 -40,28l-380 1003z"/>
    <polygon fill="#E3AC81" fill-rule="nonzero" points="1878,4809 2219,4864 2223,4677 2227,4491 2230,4332 2135,4288 1973,4477 "/>
    <path fill="#B68A67" fill-rule="nonzero" d="M2084 4489c0,0 41,86 139,188l4 -186 -143 -2z"/>
    <path fill="#E3AC81" fill-rule="nonzero" d="M2463 4259c4,2 108,161 61,176 -47,14 -106,9 -106,9l44 -185z"/>
    <path fill="#E3AC81" fill-rule="nonzero" d="M2497 4124l-43 396c-4,34 -26,62 -57,75 -22,9 -46,8 -68,-1l-245 -104 -33 -223 198 -208 248 66z"/>
    <polygon fill="#FF7654" fill-rule="nonzero" points="1908,4592 1790,4852 2245,4924 2277,4721 "/>
    <path fill="#181855" fill-rule="nonzero" d="M2207 4266c0,0 201,-34 291,-142 0,0 33,-209 -274,-236 -333,-30 -645,441 -645,441l406 355 221 -418z"/>
    <path fill="#E3AC81" fill-rule="nonzero" d="M2132 4315c23,45 69,66 103,49 34,-18 43,-68 20,-112 -23,-45 -69,-66 -103,-49 -34,18 -43,68 -20,112z"/>
    <path fill="#1B1B43" fill-rule="nonzero" d="M2208 4316c-1,-9 -8,-36 -23,-46 -6,-4 -12,-5 -19,-3l-4 -17c12,-3 23,-1 33,6 24,16 30,56 30,58l-17 2z"/>
    <path fill="#FF7654" fill-rule="nonzero" d="M2394 5436c-27,99 -96,183 -194,224 -6,2 -12,5 -18,7 -6,2 -12,4 -17,6 -184,72 -327,223 -385,412 -3,11 -6,21 -8,31 0,0 -382,56 -768,-159 0,0 213,-755 683,-1115 109,-83 251,-107 382,-66 57,18 111,45 159,80 48,35 90,77 126,125l8 12 42 303c7,47 3,94 -9,139z"/>
    <path fill="#BE443D" fill-rule="nonzero" d="M2394 5436c-27,99 -96,183 -194,224 -6,2 -12,5 -18,7 -6,2 -12,4 -17,6 -59,-146 -108,-378 -108,-378l286 38 51 102z"/>
    <path fill="#E3AC81" fill-rule="nonzero" d="M3012 5113c0,0 251,-269 331,-249 34,9 -69,116 -69,116 0,0 98,2 256,-79 17,-9 38,-1 46,17 5,11 3,24 -5,34 -33,41 -133,152 -271,201l-59 76 -147 70 -82 -185z"/>
    <path fill="#FF7654" fill-rule="nonzero" d="M3241 5227l-329 586c-41,73 -118,118 -201,118 -33,0 -66,-7 -96,-21 -30,-14 -56,-34 -78,-59l-481 -555 305 -301 334 457 318 -339 229 114z"/>
    <path fill="#1B1B43" fill-rule="nonzero" d="M2788 5622c-193,-301 -449,-657 -586,-775l11 -13c159,136 445,553 590,779l-14 9z"/>
    <path fill="#1B1B43" fill-rule="nonzero" d="M2720 5947c-35,0 -72,-10 -108,-30 -105,-57 -543,-594 -562,-616l13 -11c5,6 454,557 556,612 116,63 195,6 232,-34 58,-63 379,-640 382,-646l15 8c-13,24 -325,584 -385,649 -41,44 -91,67 -144,67z"/>
    <path fill="#852D3C" fill-rule="nonzero" d="M2180 8269l-296 584 65 9 107 -152 337 238 197 -1c0,0 40,-40 -62,-146 -121,-125 -189,-289 -186,-461l0 -15 -81 -82 -81 27z"/>
    <path fill="#C43D53" fill-rule="nonzero" d="M2192 8451l-65 495 65 0 85 -166 314 160 248 0c0,0 34,-45 -82,-136 -137,-107 -228,-260 -249,-430l-2 -15 -91 -70 -222 163z"/>
    <path fill="#355389" fill-rule="nonzero" d="M2540 8512l460 -1616c37,-130 -25,-268 -147,-327l-414 -199 -25 1918 126 224z"/>
    <path fill="#5F90CB" fill-rule="nonzero" d="M1004 5958l-93 441c-54,257 142,499 405,499l866 0c-87,423 -30,1006 0,1605l358 9 247 -1540c41,-258 -104,-509 -348,-602l-667 -253 -768 -159z"/>
    <path fill="#8889BC" fill-rule="nonzero" d="M2437 8513l-17 -2c0,0 0,-1 0,-2l17 0c0,2 0,3 0,4z"/>
    <path fill="#355389" fill-rule="nonzero" d="M2438 8510l-17 0c8,-58 187,-1458 137,-1718 -52,-273 -579,-352 -862,-395 -25,-4 -48,-7 -69,-11 -71,-11 -121,-42 -150,-91 -56,-97 -8,-230 -6,-235l16 6c0,1 -48,131 4,221 26,44 72,72 138,83 21,3 44,7 69,11 287,43 822,123 877,408 22,112 5,437 -49,965 -38,372 -83,718 -88,757z"/>
    <polygon fill="#5F90CB" fill-rule="nonzero" points="1200,6968 1141,7310 858,8949 738,8949 1022,7310 1081,6968 "/>
    <polygon fill="#5F90CB" fill-rule="nonzero" points="1990,8949 1871,8949 1587,7310 1528,6968 1647,6968 1707,7310 "/>
    <polygon fill="#1B1B43" fill-rule="nonzero" points="1141,7310 1022,7310 1081,6968 1200,6968 "/>
    <polygon fill="#1B1B43" fill-rule="nonzero" points="1707,7310 1587,7310 1528,6968 1647,6968 "/>
    <path fill="#355389" fill-rule="nonzero" d="M1891 7061l-1115 0 0 -163 1115 0c45,0 82,37 82,82 0,45 -37,82 -82,82z"/>
    <path fill="#355389" fill-rule="nonzero" d="M933 7061l-157 0 -532 -1303c-15,-36 1,-78 37,-94 38,-18 84,0 100,39l552 1359z"/>
    <path fill="#BD916F" fill-rule="nonzero" d="M8175 4248c-4,2 -114,156 -68,172 46,16 105,13 105,13l-36 -186z"/>
    <polygon fill="#BD916F" fill-rule="nonzero" points="8732,4820 8365,4863 8372,4677 8379,4492 8384,4333 8488,4292 8650,4486 "/>
    <path fill="#947156" fill-rule="nonzero" d="M8531 4495c0,0 -49,85 -160,183l7 -185 153 3z"/>
    <path fill="#BD916F" fill-rule="nonzero" d="M8147 4112l25 395c2,34 23,63 54,77 21,9 46,10 68,2l248 -93 43 -220 -188 -215 -249 54z"/>
    <path fill="#1B1B43" fill-rule="nonzero" d="M8434 4273c0,0 -61,-118 -124,-136 0,0 -244,80 -298,-108 0,0 138,1 256,-81 118,-83 241,-43 326,34 0,0 278,14 59,505 0,0 -55,18 -196,-178l-23 -36z"/>
    <path fill="#BD916F" fill-rule="nonzero" d="M8503 4313c-25,43 -71,63 -104,44 -33,-19 -40,-69 -15,-112 25,-43 71,-63 104,-44 33,19 40,69 15,112z"/>
    <path fill="#1B1B43" fill-rule="nonzero" d="M8423 4309c-3,-22 3,-68 50,-81l5 17c-45,13 -38,60 -38,62l-17 3z"/>
    <polygon fill="#CBCBFF" fill-rule="nonzero" points="8365,4863 8369,4672 8692,4589 8787,4827 "/>
    <path fill="#5F90CB" fill-rule="nonzero" d="M8415 4787c-162,158 -281,395 -429,635 0,0 -504,130 -649,275l260 132 887 -246 -69 -795z"/>
    <path fill="#C43D53" fill-rule="nonzero" d="M7103 8371l-202 574 -633 -158c0,0 98,-135 396,-96l158 -444 282 123z"/>
    <path fill="#0E0E36" fill-rule="nonzero" d="M8369 6100l-914 297c-215,70 -379,245 -434,463l-368 1523 498 129c195,-463 385,-1015 515,-1551l704 -861z"/>
    <path fill="#C43D53" fill-rule="nonzero" d="M8037 8415l74 532 -692 0c0,0 63,-155 361,-189l-17 -321 275 -23z"/>
    <path fill="#181855" fill-rule="nonzero" d="M9198 5948l93 441c54,257 -139,514 -402,514l-833 0c47,428 92,992 62,1591l-456 9 -247 -1540c-41,-258 104,-509 348,-602l606 -260 829 -152z"/>
    <path fill="#5F90CB" fill-rule="nonzero" d="M9227 6091c-75,-716 -182,-1392 -722,-1361 -32,2 -62,16 -85,39 -93,93 -140,222 -130,353l78 978c0,0 421,77 858,-9z"/>
    <path fill="#BD916F" fill-rule="nonzero" d="M7337 5690c0,0 -318,60 -369,240l451 0 86 -60 -167 -180z"/>
    <path fill="#5F90CB" fill-rule="nonzero" d="M8508 4887l-412 640 -760 163 82 240 637 -3c171,-3 317,-93 412,-235l354 -509 -313 -296z"/>
    <path fill="#5254CF" fill-rule="nonzero" d="M7339 5698l-4 -17 755 -162c20,-57 40,-116 59,-173 79,-233 154,-454 247,-574l14 10c-91,118 -166,337 -244,569 -20,58 -40,119 -61,177l-2 5 -5 1 -760 163z"/>
    <path fill="#5254CF" fill-rule="nonzero" d="M7792 5942c-177,0 -360,-3 -374,-3l0 -17c6,0 620,10 696,-6l2 0c182,-41 333,-168 404,-341l85 -207 16 7 -85 207c-73,178 -229,310 -417,351l-2 0c-35,8 -178,10 -326,10z"/>
    <polygon fill="#5F90CB" fill-rule="nonzero" points="9381,8949 9501,8949 9158,6968 9039,6968 "/>
    <polygon fill="#5F90CB" fill-rule="nonzero" points="8368,8949 8249,8949 8592,6968 8711,6968 "/>
    <polygon fill="#B2B2C6" fill-rule="nonzero" points="8532,7310 8532,7310 8591,6968 8592,6968 "/>
    <polygon fill="#1B1B43" fill-rule="nonzero" points="8651,7310 8532,7310 8592,6968 8711,6968 "/>
    <polygon fill="#B2B2C6" fill-rule="nonzero" points="9098,7310 9098,7310 9039,6968 9039,6968 "/>
    <polygon fill="#1B1B43" fill-rule="nonzero" points="9217,7310 9098,7310 9039,6968 9158,6968 "/>
    <path fill="#355389" fill-rule="nonzero" d="M8348 7061l1115 0 0 -163 -1115 0c-45,0 -81,37 -81,82 0,45 36,82 81,82z"/>
    <path fill="#355389" fill-rule="nonzero" d="M9306 7061l157 0 532 -1303c15,-36 -1,-78 -37,-94 -38,-18 -84,0 -100,39l-552 1359z"/>
    <g>
     <path fill="white" d="M7415 666c30,-46 69,7 97,10l4 -27c-20,-15 -15,-10 -35,-7 -13,2 -18,-7 -32,-14 23,-50 96,-5 106,24 11,36 -40,82 -50,116 -25,-7 -24,-11 -31,-28 -40,3 -86,-30 -58,-74zm-641 -123c78,-20 129,116 27,142 -76,19 -132,-115 -27,-142zm-120 8l18 30 -62 43 21 31 53 -33 17 29 -53 33 35 59 -35 20 -94 -151 99 -62zm533 50c8,24 32,14 46,-1l37 7c-3,57 -155,62 -120,-61 12,-43 40,-55 84,-43 46,13 46,45 42,89l-72 -11 -18 -2 1 22zm125 -77l41 17 -5 92 54 -73 39 13c-7,17 -78,90 -96,110l-35 -15 2 -143zm-401 -2c12,-10 17,-22 38,-26 19,-4 37,-2 48,15 11,17 21,90 22,112 -10,6 -24,8 -38,7 -10,-27 -3,-75 -23,-96 -58,-11 -27,74 -23,106l-40 6 -23 -133 31 -6 10 15zm209 -31c8,4 7,-2 7,15 0,5 -1,10 -2,17l-29 0 1 62c4,12 10,10 23,10 5,5 4,-7 6,10l-2 22c-13,3 -22,4 -32,-2 -53,-3 -35,-66 -39,-104l-16 -5 0 -20c5,-28 13,26 20,-42l39 -5 0 40 23 1zm-945 1011c6,10 5,12 7,24 7,66 51,136 70,196 25,24 184,80 225,97 12,2 9,0 18,6 46,9 108,32 157,44 39,9 135,32 170,31l6 -2c-284,-130 -447,-409 -381,-723 62,-296 324,-505 625,-505 301,1 562,212 623,507 64,313 -98,590 -381,720l6 2c36,1 132,-22 170,-31 50,-12 112,-35 157,-44 9,-7 5,-5 18,-6 42,-17 200,-73 225,-97 19,-59 64,-130 70,-196 2,-12 1,-14 7,-24 114,-577 -307,-1112 -898,-1111 -270,0 -527,120 -700,327 -188,225 -249,497 -195,784z"/>
     <path fill="#702784" d="M7041 1697c-83,2 -149,-66 -149,-148 0,-81 67,-151 149,-148l0 296zm25 -244c-6,-188 293,-204 296,1l-296 -1zm-64 -80c-12,-2 -10,-1 -18,-8 -65,-20 -96,-95 -88,-161 31,-2 50,1 82,-8 25,-6 44,-19 65,-25l-1 207 -39 -5zm-282 -56c-5,-18 19,-49 18,-67 -1,-13 -8,-10 0,-23 9,-16 7,10 14,-46 4,-35 0,-41 14,-48 0,18 -3,38 -6,56 -7,49 7,34 5,49 -10,23 -11,7 -7,40 2,15 4,30 3,45l-41 -5zm406 -236l236 1c14,63 -54,130 -111,144 -70,17 -141,-20 -170,-83l45 -62zm-301 39c30,-6 142,-21 160,-36 26,-22 81,-74 107,-90 9,10 18,40 22,54 7,24 1,34 -12,52 -20,28 -47,53 -78,69 -38,20 -82,29 -126,25 -27,-2 -33,-6 -46,-28 -8,-14 -22,-32 -27,-47zm361 -230l9 -3c2,16 2,3 -4,8 -25,16 -76,65 -102,86 -142,122 -97,96 -253,126 -26,5 -139,30 -156,27 27,-31 171,-128 214,-161 32,-24 103,-35 144,-46 34,-9 118,-35 147,-38zm-663 613l7 17c22,89 124,207 198,260 207,151 486,150 693,-1 73,-53 174,-171 196,-259l7 -16c139,-377 -156,-779 -552,-777 -185,1 -355,87 -466,234 -113,150 -150,366 -83,543z"/>
     <path fill="#008AD0" d="M7081 2174c16,36 -43,54 -73,40 -32,-15 -34,-60 -16,-86 19,-28 68,-29 87,2 34,56 -40,37 -72,39 1,21 13,35 35,30 26,-6 10,-34 38,-24zm238 9c1,21 -17,15 -35,17 -19,3 -32,14 -36,-9 10,-12 8,-3 22,-9l-9 -65c-17,0 -20,7 -23,-12 9,-8 18,-8 30,-9 16,-1 16,-1 19,16 3,21 4,42 9,63 15,9 9,-4 23,7zm-465 9c18,-17 23,14 27,-23 2,-13 3,-34 3,-47 -10,-5 -19,0 -19,-13 1,-17 32,-5 44,-4 6,0 12,-3 22,-3 53,-1 48,72 3,50 -4,-27 5,-7 10,-27 -40,-19 -40,37 -38,63 15,8 20,-6 21,17 -13,9 -72,6 -72,-14zm-15 -35c15,59 -128,57 -92,-36 12,-31 42,-43 73,-31 35,14 34,65 -9,50 -7,-25 3,-12 7,-27 -58,-41 -66,89 -12,63 18,-9 6,-31 34,-19zm686 -47c20,58 -102,88 -106,2 -3,-75 105,-78 103,-10l-73 20c2,21 25,30 43,19 22,-13 -1,-40 33,-31zm-271 -22c-6,-22 4,-29 25,-21l1 19c-13,7 -13,8 -26,2zm-134 110c-16,-19 -18,-50 -5,-71 17,-28 40,-25 68,-19l-2 -17c-5,-1 -36,-2 -20,-17 7,-7 32,-6 42,-4l11 118c5,1 42,3 19,18 -12,8 -32,2 -44,4 -25,3 -46,18 -70,-11zm-403 -63c9,35 -43,47 -71,32 -31,-17 -31,-60 -10,-86 22,-26 73,-24 86,4 8,17 3,41 -20,37 -28,-5 -4,-27 -3,-30 -20,-30 -59,6 -50,43 4,17 23,25 37,16 16,-10 4,-25 32,-15zm644 52c-19,-5 -21,-26 -24,-43 -10,-59 -6,-20 -26,-42 3,-18 1,-9 15,-17 -1,-12 -8,-29 7,-31 15,-3 15,17 17,27 16,0 20,-6 35,0 1,25 -11,14 -30,24 1,14 6,74 25,59 16,-15 -7,-19 9,-35 30,-17 33,74 -30,58zm-929 -101c21,-15 14,10 34,-9 25,-24 44,-50 67,-76 55,-60 34,103 47,124 14,12 24,1 22,23 -15,8 -29,-4 -47,-8 -20,-5 -39,-2 -35,-24 12,-6 16,0 29,2l-1 -29 -45 -14 -17 20c14,13 25,1 23,23 -15,9 -27,-4 -44,-10 -17,-6 -35,-3 -34,-23zm1183 -105c6,8 5,6 7,17l3 13 8 18 20 55c9,2 33,-9 27,10 -3,10 -21,13 -31,16 -26,7 -38,27 -70,19 -25,-6 -71,-62 -11,-107 10,-6 14,-6 29,-6l0 -7 -3 -9c-63,17 8,-44 19,-18zm-1404 -218l-35 69c-7,27 -55,109 -71,140 -12,23 -24,48 -36,70 -9,17 -36,53 -28,71l161 75c27,6 67,25 94,35 32,12 65,22 97,33 69,22 135,38 206,54 310,69 633,68 943,1 101,-22 206,-50 303,-86 28,-10 69,-30 97,-36l161 -75c8,-18 -20,-55 -30,-73 -12,-22 -24,-45 -35,-68 -16,-31 -64,-113 -71,-140l-35 -69c-12,-9 -19,-30 -26,-44l-15 4c-25,24 -184,80 -225,97l-18 6c-46,9 -108,32 -157,44 -39,9 -135,32 -170,31 -7,6 -6,5 -17,4l-75 7c-107,12 -205,12 -311,0l-75 -7c-9,1 -12,3 -17,-4 -36,1 -132,-22 -170,-31 -50,-12 -112,-35 -157,-44l-18 -6c-42,-17 -200,-73 -225,-97l-15 -4c-6,14 -14,35 -26,44z"/>
     <path fill="#702784" d="M6211 1763c11,-9 20,-30 26,-44l15 4c-19,-59 -64,-130 -70,-196 -7,-10 -6,-11 -7,-24 -54,-287 6,-559 195,-784 173,-207 430,-326 700,-327 591,-1 1012,533 898,1111 -1,13 0,14 -7,24 -7,66 -51,136 -70,196l15 -4c7,14 14,35 26,44 344,-710 -168,-1425 -859,-1426 -325,-1 -637,165 -814,438 -200,309 -207,660 -48,988z"/>
     <path fill="#00689C" d="M7968 1832c7,27 55,109 71,140 11,23 23,46 35,68 9,18 37,55 30,73 3,9 -94,165 -106,192 79,-8 519,-272 555,-326 -61,-40 -132,-73 -193,-113 -20,-13 -30,-74 -41,-112 -10,-34 -24,-85 -39,-118 -7,2 -220,159 -311,196z"/>
     <path fill="#00689C" d="M6147 2305c-12,-27 -109,-182 -106,-192 -8,-17 19,-53 28,-71 12,-23 25,-47 36,-70 16,-31 64,-113 71,-140 -90,-37 -305,-195 -311,-196 -15,32 -29,83 -38,115 -7,25 -22,101 -40,114 -61,41 -133,74 -195,114 36,54 476,318 555,326z"/>
     <path fill="#FEFDFE" d="M7622 1503c-2,11 -1,9 -7,16 -22,88 -123,205 -196,259 -207,152 -486,152 -693,1 -74,-54 -175,-171 -198,-260 -7,-5 -5,-7 -7,-17 -68,-176 -30,-393 83,-543 111,-147 281,-234 466,-234 395,-1 691,400 552,777zm-706 409c107,12 205,12 311,0 149,-52 247,-104 344,-234 300,-404 13,-990 -501,-989 -509,1 -800,583 -497,991 95,128 195,181 343,232z"/>
     <path fill="#712885" d="M6829 1899l12 6 75 7c-147,-51 -247,-104 -343,-232 -304,-409 -12,-990 497,-991 514,-1 802,585 501,989 -96,130 -195,182 -344,234l75 -7 12 -6c284,-130 445,-407 381,-720 -60,-295 -322,-506 -623,-507 -302,-1 -563,209 -625,505 -66,313 97,593 381,723z"/>
     <path fill="#FEFDFE" d="M7190 895c1,-6 2,-4 -5,-5 -29,2 -113,29 -147,38 -41,11 -112,22 -144,46 -44,33 -188,130 -214,161 17,2 130,-22 156,-27 156,-30 111,-4 253,-126 25,-22 77,-71 102,-86z"/>
     <path fill="#FEFDFE" d="M7066 1453l296 1c-4,-205 -303,-188 -296,-1z"/>
     <path fill="#FEFDFE" d="M7041 1697l0 -296c-82,-4 -149,66 -149,148 0,82 66,150 149,148z"/>
     <path fill="#FEFDFE" d="M7080 1143c29,63 100,100 170,83 58,-14 125,-81 111,-144l-236 -1 -45 62z"/>
     <path fill="#FEFDFE" d="M6824 1120c5,15 19,33 27,47 14,22 19,25 46,28 43,4 87,-5 126,-25 31,-16 58,-41 78,-69 13,-19 20,-29 12,-52 -5,-15 -13,-44 -22,-54 -26,15 -81,67 -107,90 -17,15 -129,31 -160,36z"/>
     <path fill="#FEFDFE" d="M6983 1365l18 8 39 5 1 -207c-22,6 -41,19 -65,25 -32,8 -51,6 -82,8 -8,66 24,141 88,161z"/>
     <path fill="#702784" d="M7236 547l4 15c-12,-1 -8,1 -17,-5l-30 -6c6,-29 40,-29 44,-4zm-49 54c-7,-9 -6,-14 -1,-25l17 5 72 11c5,-44 4,-76 -42,-89 -44,-12 -72,0 -84,43 -35,123 117,117 120,61l-37 -7c-14,15 -38,25 -46,1z"/>
     <path fill="#702784" d="M7495 697c-9,34 -45,21 -49,6 -9,-34 34,-18 49,-6zm-46 -69c14,7 19,16 32,14 20,-3 15,-8 35,7l-4 27c-28,-3 -68,-55 -97,-10 -28,43 18,77 58,74 7,17 6,21 31,28 11,-34 62,-80 50,-116 -9,-29 -83,-74 -106,-24z"/>
     <path fill="#702784" d="M6759 611c-10,-44 44,-57 58,8 9,41 -43,56 -58,-8zm16 -68c-104,27 -49,161 27,142 102,-26 51,-162 -27,-142z"/>
     <path fill="#702784" d="M6911 523l-10 -15 -31 6 23 133 40 -6c-3,-32 -34,-117 23,-106 20,21 13,69 23,96 14,1 28,-1 38,-7 -1,-22 -12,-96 -22,-112 -11,-17 -29,-19 -48,-15 -21,4 -25,16 -38,26z"/>
     <polygon fill="#702784" points="6556,613 6650,764 6684,744 6650,685 6702,651 6685,623 6632,655 6610,624 6672,582 6654,551 "/>
     <path fill="#004568" d="M6147 2305c7,3 10,-13 14,-23 4,-11 9,-20 13,-30 9,-20 17,-45 27,-63l-161 -75c-3,10 94,165 106,192z"/>
     <path fill="#004568" d="M7942 2189l46 108c6,14 2,12 8,9 12,-26 109,-182 106,-192l-161 75z"/>
     <path fill="#FDFDFE" d="M6548 2025l1 41c-11,-2 -20,-4 -28,-12l27 -29zm-115 61c0,20 17,17 34,23 17,6 29,19 44,10 2,-23 -9,-11 -23,-23l17 -20 45 14 1 29c-13,-3 -17,-8 -29,-2 -5,22 15,19 35,24 17,5 32,16 47,8 1,-22 -8,-11 -22,-23 -13,-20 8,-184 -47,-124 -24,26 -43,51 -67,76 -19,19 -13,-6 -34,9z"/>
     <path fill="#702784" d="M7310 667l35 15c18,-20 89,-93 96,-110l-39 -13 -54 73 5 -92 -41 -17 -2 143z"/>
     <path fill="#702784" d="M7093 627l31 1 -2 -31c-13,0 -19,2 -23,-10l-5 -9 2 -56 29 0c0,-14 2,-17 -3,-29l-23 -1 0 -40 -39 5c-8,68 -15,14 -20,42l0 20 16 5c4,38 -14,101 39,104z"/>
     <path fill="#FDFDFE" d="M7577 2043c36,-26 63,48 35,62 -36,19 -64,-42 -35,-62zm21 -34l5 10 -34 3c-61,45 -15,101 11,107 32,8 44,-12 70,-19 9,-3 28,-6 31,-16 6,-18 -18,-8 -27,-10l-20 -55c-7,-8 -6,-6 -8,-18l-3 -13 -7 -17c-11,-25 -83,36 -19,18l3 9z"/>
     <path fill="#FDFDFE" d="M7154 2124c39,-10 45,64 15,71 -41,10 -51,-61 -15,-71zm27 -34l2 17c-28,-5 -51,-9 -68,19 -13,21 -11,52 5,71 24,29 45,14 70,11 12,-1 32,4 44,-4 22,-15 -15,-17 -19,-18l-11 -118c-10,-2 -35,-3 -42,4 -16,15 15,15 20,17z"/>
     <path fill="#FDFDFE" d="M7454 2099l-12 3 5 -10c9,-20 38,-28 46,-2l-39 9zm71 11c-34,-9 -11,18 -33,31 -18,11 -41,2 -43,-19l73 -20c2,-68 -106,-65 -103,10 3,86 125,56 106,-2z"/>
     <path fill="#FDFDFE" d="M7011 2148c4,-28 46,-29 49,1l-49 -1zm70 26c-29,-9 -12,19 -38,24 -23,5 -35,-9 -35,-30 32,-2 106,17 72,-39 -19,-31 -69,-30 -87,-2 -18,27 -16,72 16,86 30,14 89,-4 73,-40z"/>
     <path fill="#FDFDFE" d="M6717 2135c-28,-10 -16,6 -32,15 -14,9 -34,1 -37,-16 -8,-37 30,-73 50,-43 0,3 -25,24 3,30 23,4 28,-20 20,-37 -13,-28 -64,-30 -86,-4 -21,26 -21,69 10,86 29,16 80,4 71,-32z"/>
     <path fill="#FDFDFE" d="M6839 2157c-28,-13 -16,10 -34,19 -54,26 -46,-104 12,-63 -4,15 -13,2 -7,27 44,15 45,-36 9,-50 -31,-12 -61,0 -73,31 -36,93 108,95 92,36z"/>
     <path fill="#FDFDFE" d="M7327 2085c-14,8 -12,0 -15,17 20,22 16,-17 26,42 3,17 5,38 24,43 62,15 59,-76 30,-58 -17,16 7,21 -9,35 -19,15 -24,-45 -25,-59 18,-10 31,1 30,-24 -15,-6 -19,0 -35,0 -2,-11 -2,-30 -17,-27 -15,3 -8,20 -7,31z"/>
     <path fill="#FDFDFE" d="M6884 2122c0,13 -1,34 -3,47 -4,36 -9,6 -27,23 0,20 60,22 72,14 -1,-23 -6,-9 -21,-17 -2,-26 -2,-82 38,-63 -5,20 -13,0 -10,27 45,21 50,-52 -3,-50 -10,0 -16,4 -22,3 -11,-1 -43,-13 -44,4 -1,13 9,8 19,13z"/>
     <path fill="#FDFDFE" d="M7239 2105c3,19 5,12 23,12l9 65c-14,7 -12,-2 -22,9 4,22 16,11 36,9 18,-2 36,4 35,-17 -14,-11 -8,2 -23,-7 -4,-21 -5,-42 -9,-63 -2,-16 -3,-17 -19,-16 -12,1 -21,0 -30,9z"/>
     <path fill="#FDFDFE" d="M6719 1317l41 5c1,-15 -2,-30 -3,-45 -4,-34 -3,-17 7,-40 2,-15 -12,1 -5,-49 2,-18 6,-38 6,-56 -14,6 -10,13 -14,48 -7,57 -5,31 -14,46 -7,13 0,11 0,23 1,19 -23,49 -18,67z"/>
     <path fill="#FEFDFE" d="M6759 611c15,64 67,48 58,8 -14,-65 -69,-52 -58,-8z"/>
     <path fill="#008AD0" d="M7577 2043c-29,20 -1,82 35,62 28,-15 1,-88 -35,-62z"/>
     <path fill="#008AD0" d="M7154 2124c-35,9 -26,80 15,71 30,-7 23,-81 -15,-71z"/>
     <path fill="#FEFDFE" d="M7495 697c-15,-12 -58,-28 -49,6 4,15 40,29 49,-6z"/>
     <path fill="#FEFDFE" d="M7223 557l14 3 -1 -12c-4,-25 -38,-25 -44,4l30 6z"/>
     <path fill="#038CD1" d="M7011 2148l49 1c-3,-30 -45,-29 -49,-1z"/>
     <path fill="#008AD0" d="M7447 2091l0 7 7 0 39 -9c-8,-26 -37,-18 -46,2z"/>
     <path fill="#FDFDFE" d="M7254 2088c13,7 14,5 26,-2l-1 -19c-22,-8 -31,-1 -25,21z"/>
     <path fill="#038CD1" d="M6521 2055c8,8 17,9 28,12l-1 -41 -27 29z"/>
     <path fill="#B692C1" d="M7098 587l-1 -62 29 0c1,-6 2,-11 2,-17 0,-17 1,-11 -7,-15 5,12 3,16 3,29l-29 0 -2 56 5 9z"/>
     <path fill="#B692C1" d="M7093 627c11,6 20,6 32,2l2 -22c-2,-17 -1,-5 -6,-10l2 31 -31 -1z"/>
     <path fill="#65B8E3" d="M7570 2021l34 -3 -5 -10 0 7c-15,-1 -19,-1 -29,6z"/>
     <path fill="#B995C3" d="M7188 601l-1 -22 18 2 -17 -5c-5,11 -6,16 1,25z"/>
     <path fill="#B995C3" d="M7962 1527c7,-10 6,-11 7,-24 -6,10 -5,12 -7,24z"/>
     <path fill="#B995C3" d="M6182 1527c-2,-12 -1,-14 -7,-24 1,13 0,14 7,24z"/>
     <path fill="#83C6E8" d="M6823 1901c5,7 8,4 17,4l-12 -6 -6 2z"/>
     <path fill="#83C6E8" d="M7303 1905c11,1 10,2 17,-4l-6 -2 -12 6z"/>
     <path fill="#C6A9CE" d="M7223 557c9,7 5,5 17,5l-4 -15 1 12 -14 -3z"/>
     <path fill="#C6A9CE" d="M7190 895c6,-5 6,8 4,-8l-9 3c7,1 6,-1 5,5z"/>
     <polygon fill="#65B8E3" points="7454,2099 7447,2098 7447,2091 7442,2102 "/>
     <path fill="#B28BBD" d="M6529 1520l-7 -17c2,10 0,11 7,17z"/>
     <path fill="#B995C3" d="M7002 1373l-18 -8c8,7 7,6 18,8z"/>
     <path fill="#8CCAEA" d="M7622 1999c-1,-12 0,-10 -7,-17l7 17z"/>
     <path fill="#B28BBD" d="M7615 1520c7,-7 5,-5 7,-16l-7 16z"/>
     <path fill="#93CEEB" d="M7634 2029l-8 -18c3,11 1,10 8,18z"/>
     <path fill="#7BC3E7" d="M7648 1826l18 -6c-12,2 -9,0 -18,6z"/>
     <path fill="#7BC3E7" d="M6495 1826c-9,-7 -5,-5 -18,-6l18 6z"/>
    </g>
    <g>
     <polygon fill="url(#id0)" points="7154,3646 7154,3646 7154,3619 2899,3619 2899,3646 "/>
     <polygon fill="#5E5E5E" fill-rule="nonzero" points="4448,3805 4443,3774 4300,3774 4300,3805 4355,3805 4355,3958 4390,3958 4390,3805 "/>
     <path id="1" fill="#5E5E5E" fill-rule="nonzero" d="M4598 3831c0,19 -14,30 -35,30l-18 0 0 -58 19 0c22,0 34,10 34,29zm-2 50c23,-8 37,-25 37,-52 0,-36 -25,-55 -66,-55l-57 0 0 184 35 0 0 -70 16 0 48 72 36 -7 -49 -72z"/>
     <path id="2" fill="#5E5E5E" fill-rule="nonzero" d="M4865 3953l-67 -180 -38 0 -69 184 35 0 17 -47 69 0 18 48 35 -6zm-63 -71l-50 0 25 -71 25 71z"/>
     <polygon id="3" fill="#5E5E5E" fill-rule="nonzero" points="4965,3958 4965,3774 4929,3774 4929,3958 "/>
     <polygon id="4" fill="#5E5E5E" fill-rule="nonzero" points="5190,3958 5190,3774 5158,3774 5158,3894 5075,3774 5042,3774 5042,3958 5075,3958 5075,3831 5161,3958 "/>
     <polygon id="5" fill="#5E5E5E" fill-rule="nonzero" points="5303,3958 5303,3774 5268,3774 5268,3958 "/>
     <polygon id="6" fill="#5E5E5E" fill-rule="nonzero" points="5529,3958 5529,3774 5496,3774 5496,3894 5414,3774 5380,3774 5380,3958 5413,3958 5413,3831 5500,3958 "/>
     <path id="7" fill="#5E5E5E" fill-rule="nonzero" d="M5753 3942l0 -88 -74 0 4 28 37 0 0 41c-9,5 -18,7 -31,7 -37,0 -56,-26 -56,-65 0,-39 18,-65 54,-65 20,0 37,7 51,17l5 -33c-15,-9 -32,-15 -56,-15 -56,0 -90,39 -90,96 0,57 32,95 90,95 24,0 47,-7 64,-19z"/>
     <g>
      <g>
       <path fill="#1C80B7" d="M6527 3510l180 -1c8,1 17,0 17,-8 0,-10 -27,-3 -51,-11 -16,-5 -20,-20 -24,-39 -5,-30 -6,-83 -6,-118 0,-23 -5,-240 -7,-243 4,0 47,47 53,54 17,18 37,37 52,56 14,17 86,87 107,108 36,36 71,71 107,107 16,16 95,102 112,102 14,0 11,-55 11,-71 0,-26 1,-54 2,-80 2,-54 2,-109 2,-163 0,-53 3,-107 3,-161 0,-21 1,-61 8,-74 16,-31 57,-9 57,-27 0,-8 -25,-6 -34,-6l-58 2 -77 -2c-10,0 -34,-2 -35,7 5,23 65,-19 76,50 5,29 4,89 4,122 0,82 6,165 6,247 -7,-1 -48,-46 -55,-53 -17,-19 -35,-38 -53,-56 -36,-36 -71,-73 -108,-110l-161 -165c-9,-10 -44,-53 -56,-53 -14,0 -11,57 -11,74 0,25 1,59 -1,85 -2,26 0,58 -2,84 -2,24 -1,60 -1,85 0,56 -3,113 -3,168 0,25 -2,60 -18,68 -7,4 -25,6 -36,6 -24,0 -17,14 -2,14z"/>
       <path fill="#1C80B7" d="M6167 3081c2,1 73,186 73,194 0,5 -28,3 -34,3 -18,0 -107,1 -113,-1l74 -196zm-288 419c0,15 29,9 45,9 18,-1 37,1 54,-1 14,-2 37,1 52,1 12,0 46,5 46,-7 0,-16 -53,5 -53,-27 0,-28 16,-61 25,-85 4,-9 27,-73 32,-73l169 0c10,0 17,30 20,38 9,22 49,121 49,130 0,14 -18,5 -18,18 8,8 61,6 79,6l93 1c9,0 29,0 29,-8 0,-10 -11,-6 -20,-7 -23,-2 -41,-5 -57,-27 -17,-24 -26,-44 -38,-73 -22,-51 -44,-105 -65,-158 -20,-52 -44,-105 -64,-158 -10,-26 -21,-53 -32,-79 -5,-13 -26,-73 -38,-73 -16,0 -33,56 -39,71 -11,27 -22,52 -32,79 -10,26 -21,52 -32,78 -10,27 -21,53 -32,79 -11,26 -21,52 -31,78 -11,26 -22,52 -32,79 -8,22 -22,58 -35,76 -30,43 -76,21 -76,34z"/>
       <path fill="#1C80B7" d="M5559 2943c0,17 49,0 66,23 11,14 10,53 10,79l0 309c0,34 0,71 -4,102 -2,15 -5,31 -17,36 -9,4 -43,4 -43,10l0 3c0,11 46,6 58,6 21,0 44,-3 64,-1 20,2 44,1 64,1 13,0 57,7 57,-8 0,-15 -64,6 -76,-28 -7,-22 -8,-67 -8,-97l0 -394c0,-13 21,-13 34,-13 72,0 121,63 121,137 0,43 -12,75 -37,99 -20,20 -36,30 -64,31 -10,1 -20,1 -22,10 3,6 8,8 17,8l13 0c103,0 182,-79 182,-183 0,-45 -24,-81 -50,-101 -33,-26 -84,-34 -135,-33l-101 2c-39,0 -77,-3 -118,-2 -4,0 -11,2 -11,6z"/>
       <path fill="#1C80B7" d="M5227 3065l0 10c0,76 60,133 103,167 44,35 118,79 118,153 0,91 -132,117 -189,50 -16,-19 -23,-43 -26,-68 -1,-9 1,-22 -9,-22 -10,0 -11,37 -11,49 0,23 -2,49 -2,76 0,20 27,27 44,31 37,9 53,9 91,9 97,0 181,-63 181,-158l0 -12c0,-161 -225,-209 -225,-305l0 -11c0,-42 40,-72 83,-72 37,0 60,6 83,31 38,41 15,70 34,70 11,0 8,-43 8,-56 0,-10 4,-57 2,-61 -5,-13 -88,-19 -112,-19 -91,0 -174,51 -174,139z"/>
      </g>
      <path fill="#5E5E5E" d="M4897 3143c3,-11 4,-23 6,-35 1,-6 8,-34 2,-34l-118 0c-6,0 -11,45 -12,53l-29 166c-7,37 -12,73 -19,110 -4,18 -7,37 -10,55 -2,15 -9,43 -9,56l124 0c1,-13 6,-36 9,-50l27 -152c6,-34 10,-70 24,-94 12,-21 38,-49 69,-49l10 0c32,0 47,27 47,59l2 8 -48 278 124 0c6,-25 9,-54 14,-80l28 -161c7,-41 11,-53 11,-97 0,-123 -119,-133 -194,-87 -10,6 -22,16 -31,25 -4,4 -24,29 -27,30z"/>
      <path fill="#5E5E5E" d="M3195 3399c0,41 7,67 27,92 18,22 43,28 80,32 33,3 66,-11 87,-23 33,-20 50,-49 58,-54l-12 66 124 0c8,-34 13,-74 19,-110 6,-37 13,-74 20,-110 11,-57 19,-109 29,-166 1,-7 12,-53 7,-53 -18,0 -112,-1 -122,1 0,10 -14,84 -17,101 -5,34 -12,67 -18,102 -6,36 -10,66 -24,94 -13,26 -39,47 -77,47 -34,0 -51,-24 -51,-59 0,-30 17,-107 23,-143 4,-24 24,-132 24,-142 0,-1 -1,-2 -3,-2l-118 0c-5,0 -8,32 -9,38 -2,14 -5,27 -7,40 -4,27 -9,54 -14,81 -6,27 -9,54 -14,81 -5,26 -10,54 -10,85z"/>
      <path fill="#5E5E5E" d="M2978 3073l-67 0 -18 101 67 0 -59 338 124 0 59 -338 89 0c5,0 9,-36 10,-43 3,-16 5,-31 8,-45 3,-16 10,-13 -35,-13 -18,0 -36,0 -54,0 0,-15 12,-65 17,-77 8,-19 29,-39 55,-39 39,0 28,4 51,10l19 -105c-6,-7 -47,-10 -61,-10 -93,0 -161,54 -187,132 -5,15 -18,71 -18,89z"/>
      <path fill="#5E5E5E" d="M3671 3225l0 17c0,60 64,86 109,103 22,8 59,21 48,53 -8,24 -41,33 -74,33 -34,0 -65,-9 -91,-25 -4,-3 -21,-14 -24,-15l-19 111c12,1 31,18 109,21 38,2 83,-5 111,-17 35,-14 54,-28 77,-53 17,-19 35,-60 35,-96l0 -14c0,-55 -59,-85 -101,-100 -20,-7 -56,-19 -56,-45 0,-26 31,-42 58,-42 27,0 40,1 66,9 9,3 40,20 41,20l18 -105 -49 -12c-71,-13 -147,-2 -197,36 -31,23 -63,67 -63,120z"/>
      <path fill="#5E5E5E" d="M3983 3513l124 0c8,-35 12,-74 19,-110 7,-36 13,-74 20,-110 7,-37 14,-74 19,-111 3,-19 6,-36 9,-55 1,-8 12,-53 7,-53l-119 0c-6,0 -10,45 -12,53 -3,18 -6,37 -10,55 -7,36 -13,74 -19,111 -6,36 -13,73 -19,110 -3,17 -19,102 -19,111z"/>
      <path fill="#5E5E5E" d="M4132 3005l7 0c43,0 81,-38 81,-86 0,-32 -25,-54 -57,-54l-9 0c-89,0 -114,140 -22,140z"/>
      <g>
       <path fill="#1C80B7" d="M4475 3342c0,30 38,20 38,-9 0,-30 -38,-20 -38,9z"/>
       <path fill="#1C80B7" d="M4428 3328c0,31 37,22 37,-10 0,-29 -37,-19 -37,10z"/>
       <path fill="#1C80B7" d="M4382 3309c0,11 6,19 17,19 20,0 31,-45 4,-45 -12,0 -21,14 -21,26z"/>
       <path fill="#1C80B7" d="M4339 3291c0,11 6,18 17,18 10,0 19,-14 19,-28 0,-9 -5,-17 -16,-17 -10,0 -20,15 -20,27z"/>
       <path fill="#1C80B7" d="M4505 3309c26,0 29,-45 6,-45 -23,0 -27,45 -6,45z"/>
       <path fill="#1C80B7" d="M4522 3352c0,31 36,22 36,-8 0,-28 -36,-20 -36,8z"/>
       <path fill="#1C80B7" d="M4447 3277c0,31 35,22 35,-10 0,-7 -5,-15 -12,-15l-5 0c-10,0 -18,14 -18,25z"/>
       <path fill="#1C80B7" d="M4350 3401c0,27 36,27 36,0 0,-10 -7,-19 -19,-19 -8,0 -16,10 -16,19z"/>
       <path fill="#1C80B7" d="M4394 3418c0,26 37,24 37,-3 0,-24 -37,-20 -37,3z"/>
       <path fill="#1C80B7" d="M4583 3128l0 0zm-15 -6l-1 -1 1 1zm-1 -1l-1 -1 1 1zm-9 0l-1 -1 1 1zm8 -1l-1 -1 1 1zm-9 0l0 0zm8 -1l0 0zm-21 -5l0 0zm-1 -2l1 2 -1 -2zm-1 -2l1 2 -1 -2zm14 -1l1 1 5 4c-2,0 -1,0 -3,-2 -1,-1 -1,-2 -2,-3l0 -1zm-8 -1l0 0zm10 -3l0 0zm0 15l14 13 2 -2 -7 -10 15 11 1 -1 -1 -4 9 -3c0,-5 -19,-20 -29,-22l-5 1c0,0 -1,1 -1,2l-3 -1 -3 0 4 5 -7 -4 -2 0 0 3 -3 -2 -4 1 1 4 -4 -3 -5 1c2,10 7,23 15,23l-3 -15c5,4 6,14 16,15l-3 -10z"/>
       <path fill="#1C80B7" d="M4285 3315c0,34 30,28 30,-4 0,-28 -30,-21 -30,4z"/>
       <path fill="#1C80B7" d="M4566 3360c0,28 31,19 31,-7 0,-9 0,-20 -13,-20 -10,0 -18,16 -18,27z"/>
       <path fill="#1C80B7" d="M4426 3216c0,28 34,13 34,-13 0,-11 -7,-13 -13,-13 -10,0 -20,15 -20,25z"/>
       <path fill="#1C80B7" d="M4465 3225l0 9c0,5 5,13 13,13 18,0 27,-42 5,-42 -9,0 -17,12 -17,21z"/>
       <path fill="#1C80B7" d="M4505 3237c0,30 30,26 30,-5 0,-24 -30,-23 -30,5z"/>
       <path fill="#1C80B7" d="M4543 3244c0,31 28,29 28,2 0,-29 -28,-29 -28,-2z"/>
       <path fill="#1C80B7" d="M4389 3202c0,24 35,10 35,-16 0,-5 -5,-10 -10,-10 -11,0 -25,15 -25,26z"/>
       <path fill="#1C80B7" d="M4254 3299c0,28 26,23 26,-12 0,-6 -3,-16 -10,-16 -10,0 -16,18 -16,28z"/>
       <path fill="#1C80B7" d="M4297 3208c0,22 34,6 34,-19 0,-20 -34,-2 -34,19z"/>
       <path fill="#1C80B7" d="M4604 3364c0,31 26,9 26,-16 0,-11 -3,-13 -10,-13 -8,0 -16,20 -16,30z"/>
       <path fill="#1C80B7" d="M4248 3236c0,27 28,1 28,-23 0,-25 -28,-1 -28,23z"/>
       <path fill="#1C80B7" d="M4342 3438c0,21 31,26 31,3 0,-21 -31,-24 -31,-3z"/>
       <path fill="#1C80B7" d="M4381 3456c0,21 33,21 33,-1 0,-10 -8,-14 -17,-14 -7,0 -15,9 -15,15z"/>
       <path fill="#1C80B7" d="M4330 3169c0,21 37,-4 37,-20 0,-3 -4,-6 -8,-6 -11,0 -29,15 -29,26z"/>
       <path fill="#1C80B7" d="M4274 3193c0,18 33,-3 33,-24 0,-18 -33,4 -33,24z"/>
       <path fill="#1C80B7" d="M4586 3420c0,18 29,1 29,-27 0,-6 -4,-8 -9,-6 -8,4 -20,21 -20,32z"/>
       <path fill="#1C80B7" d="M4460 3482c0,19 37,6 37,-9 0,-20 -37,-4 -37,9z"/>
       <path fill="#1C80B7" d="M4230 3280c0,26 21,21 21,-19 0,-7 -2,-11 -8,-11 -7,0 -13,20 -13,30z"/>
       <path fill="#1C80B7" d="M4610 3244c0,31 21,39 21,19l0 -10c0,-22 -21,-36 -21,-10z"/>
       <path fill="#1C80B7" d="M4482 3182c0,10 -1,16 12,16 6,0 13,-11 13,-24 0,-21 -25,-12 -25,8z"/>
       <path fill="#1C80B7" d="M4418 3163c0,18 33,4 33,-15 0,-17 -33,-4 -33,15z"/>
       <path fill="#1C80B7" d="M4449 3176c0,20 29,6 29,-16 0,-4 -4,-9 -8,-9 -10,0 -21,15 -21,25z"/>
       <path fill="#1C80B7" d="M4390 3150c0,14 36,1 36,-18 0,-14 -36,0 -36,18z"/>
       <path fill="#1C80B7" d="M4309 3152c0,3 0,3 1,5 23,5 46,-31 31,-31 -11,0 -32,16 -32,26z"/>
       <path fill="#1C80B7" d="M4225 3318c0,36 18,31 18,7 0,-31 -18,-30 -18,-7z"/>
       <path fill="#1C80B7" d="M4575 3188l0 8c0,11 7,26 16,27 12,-11 -1,-41 -12,-41 -3,0 -5,3 -5,7z"/>
       <path fill="#1C80B7" d="M4634 3360c0,16 0,8 2,15 8,0 10,-5 13,-11 4,-9 5,-15 5,-25 0,-2 -2,-8 -4,-8 -9,0 -15,19 -15,28z"/>
       <path fill="#1C80B7" d="M4497 3491c0,15 36,-2 36,-16 0,-12 -36,3 -36,16z"/>
       <path fill="#1C80B7" d="M4560 3463c0,14 33,-9 33,-25 0,-13 -33,10 -33,25z"/>
       <path fill="#1C80B7" d="M4641 3299c0,7 -1,25 8,25 11,0 10,-50 -1,-45 -4,2 -7,13 -7,20z"/>
       <path fill="#1C80B7" d="M4634 3234c0,12 1,35 13,38 8,-6 2,-29 -1,-36 -6,-13 -12,-8 -12,-1z"/>
       <path fill="#1C80B7" d="M4247 3376c0,10 9,36 17,31 0,0 4,1 4,-8 0,-9 -7,-31 -16,-31 -3,0 -5,4 -5,8z"/>
       <path fill="#1C80B7" d="M4598 3185c0,12 3,24 11,34 3,3 4,4 10,4 4,-17 -10,-41 -16,-41 -2,0 -4,2 -4,4z"/>
       <path fill="#1C80B7" d="M4296 3138c0,15 37,-14 37,-24 0,-12 -37,13 -37,24z"/>
       <path fill="#1C80B7" d="M4234 3220c0,20 27,-15 22,-36 -12,-3 -22,27 -22,36z"/>
       <path fill="#1C80B7" d="M4354 3125c13,0 37,-13 37,-21 0,-10 -25,1 -37,12 -2,2 -6,9 0,9z"/>
       <path fill="#1C80B7" d="M4260 3179c15,3 39,-36 29,-36 -7,0 -29,19 -29,36z"/>
       <path fill="#1C80B7" d="M4616 3420c0,14 24,-11 24,-34 0,-8 -11,2 -17,12 -3,6 -7,13 -7,22z"/>
       <path fill="#1C80B7" d="M4437 3507c0,8 19,5 26,0 6,-4 7,-5 7,-12 -5,-1 -1,-2 -10,-2 -9,0 -23,5 -23,13z"/>
       <path fill="#1C80B7" d="M4218 3267c0,6 -1,7 3,10 6,-2 17,-33 11,-45 -10,1 -13,27 -13,36z"/>
       <path fill="#1C80B7" d="M4530 3497c7,0 18,-6 22,-9 9,-7 15,-17 9,-17 -15,0 -43,26 -31,26z"/>
       <path fill="#1C80B7" d="M4671 3289c-3,-5 0,-12 -7,-16 -8,6 -7,43 2,45 6,-4 5,-19 5,-29z"/>
       <path fill="#1C80B7" d="M4561 3141c0,8 3,16 7,24 2,3 4,5 6,8 6,5 8,2 8,-4 0,-16 -21,-38 -21,-27z"/>
       <path fill="#1C80B7" d="M4587 3464l3 0c8,0 27,-22 27,-31 0,-11 -30,17 -30,31z"/>
       <path fill="#1C80B7" d="M4338 3108c0,9 28,-5 34,-9 3,-2 6,-4 6,-9 -11,0 -16,2 -23,5 -4,2 -17,8 -17,13z"/>
       <path fill="#1C80B7" d="M4297 3457c12,0 -1,-30 -13,-30 -11,0 4,30 13,30z"/>
       <path fill="#1C80B7" d="M4616 3183c0,9 3,17 7,24 2,3 3,6 5,9 17,22 3,-35 -11,-36 -1,1 -1,1 -1,3z"/>
       <path fill="#1C80B7" d="M4663 3240l-1 -3 -1 -3c-4,-4 -4,-12 -11,-13 -3,12 4,45 14,42 0,-18 -2,-18 -2,-24z"/>
       <path fill="#1C80B7" d="M4654 3359l1 10c9,-1 16,-31 13,-44 -9,1 -13,27 -13,35z"/>
       <path fill="#1C80B7" d="M4470 3516c19,0 45,-18 27,-18 -19,0 -40,18 -27,18z"/>
       <path fill="#1C80B7" d="M4438 3077l9 1c-5,0 -4,1 -8,1l20 3c-4,0 -10,0 -14,1l6 3c10,-1 22,-2 25,-5l-15 -1c3,0 5,0 8,0 5,-1 4,0 6,-2 -3,-1 -4,-1 -9,-1l0 -1c5,0 6,-1 10,-1l0 -2c-6,0 -15,-1 -21,0 -2,0 -6,1 -10,1 -5,1 -6,0 -7,3z"/>
       <path fill="#1C80B7" d="M4228 3352c0,11 0,15 4,25 2,5 5,12 10,13 4,-7 -4,-40 -13,-40 -1,1 -1,1 -1,3z"/>
       <path fill="#1C80B7" d="M4398 3100c11,0 15,-2 25,-5 2,-1 5,-2 8,-3l-11 -6c-5,1 -10,3 -11,3 -3,1 -6,2 -9,4 -2,1 -8,7 -2,7z"/>
       <path fill="#1C80B7" d="M4594 3156c-2,-1 -1,0 -2,-3 -4,-3 -8,-14 -17,-14 1,7 10,23 14,29 2,2 10,12 11,4 1,-4 -5,-12 -6,-16z"/>
       <path fill="#1C80B7" d="M4626 3177c0,6 9,25 13,30 3,4 3,6 9,6 0,-10 -4,-15 -8,-24 -2,-3 -7,-11 -9,-13 -1,-1 -5,-2 -5,1z"/>
       <path fill="#1C80B7" d="M4592 3153c2,1 1,0 2,3 2,2 6,7 8,10 3,4 5,7 11,7 0,-9 -2,-10 -7,-16 -1,-2 -2,-3 -3,-5 -4,-5 -10,-14 -17,-15 0,7 4,10 6,15z"/>
       <path fill="#1C80B7" d="M4634 3418c7,0 10,-8 14,-16 3,-5 8,-15 8,-22 0,-1 -1,-2 -2,-3 -4,3 -10,13 -12,18 -4,7 -8,12 -8,22z"/>
       <path fill="#1C80B7" d="M4286 3129c-6,0 -14,10 -18,14 -21,21 -14,32 13,-3 3,-3 5,-6 5,-11z"/>
       <path fill="#1C80B7" d="M4407 3079c-7,2 -19,4 -20,9 6,3 18,0 24,-1l7 -2 -10 -6z"/>
       <path fill="#1C80B7" d="M4292 3127c5,0 25,-14 30,-18 3,-3 7,-4 7,-9 -8,0 -36,14 -38,27z"/>
       <path fill="#1C80B7" d="M4228 3209c4,-1 6,-5 8,-8 2,-4 4,-6 6,-10 2,-3 11,-20 8,-23 -3,-3 -12,14 -14,17 -3,7 -9,14 -9,24z"/>
       <path fill="#1C80B7" d="M4214 3301c0,15 0,12 3,26 4,-1 3,-2 4,-6 1,-7 3,-34 -3,-39 -4,3 -4,13 -4,18z"/>
       <path fill="#1C80B7" d="M4278 3442c0,-11 -10,-32 -19,-32 0,8 3,13 6,19 3,5 7,13 13,13z"/>
       <path fill="#1C80B7" d="M4524 3507c2,-3 3,-1 3,-6 -9,0 -14,2 -21,5 -5,2 -13,6 -15,11 6,3 20,-4 25,-7 2,-1 5,-3 8,-4z"/>
       <path fill="#1C80B7" d="M4552 3494c8,0 15,-6 20,-9 3,-2 6,-4 8,-6 3,-3 6,-4 6,-8 -11,0 -32,16 -34,24z"/>
       <path fill="#1C80B7" d="M4337 3099c7,0 24,-7 31,-11 4,-2 7,-2 8,-6 -12,0 -24,4 -33,9 -3,2 -6,3 -7,8z"/>
       <path fill="#1C80B7" d="M4623 3170c0,-10 -15,-26 -24,-33 -6,-4 -7,-1 -4,3l19 23c6,7 4,7 9,7z"/>
       <path fill="#1C80B7" d="M4443 3065c0,0 1,0 1,0 0,0 1,0 1,0l6 1c3,0 6,0 9,0l0 1c-6,0 -10,0 -15,1 -5,1 -1,-1 -4,2 5,3 29,1 37,0 -1,-2 2,-2 -4,-2l10 -1c-4,-5 -34,-4 -39,-3z"/>
       <path fill="#1C80B7" d="M4654 3207c3,-4 -6,-19 -8,-23 -2,-3 -4,-6 -6,-9 -2,-3 -3,-7 -8,-8 0,7 1,7 3,11l14 25c2,3 1,3 4,3z"/>
       <path fill="#1C80B7" d="M4226 3372c0,-10 -1,-15 -3,-22 -1,-5 -4,-16 -9,-17 0,9 4,29 8,36 1,3 1,2 4,3z"/>
       <path fill="#1C80B7" d="M4339 3089c6,0 16,-5 21,-7 4,-1 7,-3 10,-4 7,-3 8,-2 9,-6 -10,0 -16,2 -24,5 -5,2 -5,3 -10,5 -4,2 -6,3 -7,7z"/>
       <path fill="#1C80B7" d="M4661 3234c1,1 1,-2 1,3 1,1 1,-2 1,3 4,5 3,11 7,14 3,-7 -3,-27 -7,-34 -2,-4 -4,-7 -7,-8 0,9 4,13 5,21z"/>
       <path fill="#1C80B7" d="M4314 3479c9,0 -8,-19 -21,-19 0,10 16,19 21,19z"/>
       <path fill="#1C80B7" d="M4508 3117c0,8 10,6 12,-6l-12 2c0,2 0,3 0,4z"/>
       <path fill="#1C80B7" d="M4418 3069c3,0 7,-1 9,-2 -1,-3 2,-1 -3,-3 -2,-1 -4,0 -6,0 -3,0 -5,0 -8,0l9 5zm-30 0c-1,1 -2,2 -2,4 3,0 6,0 8,-1l-6 -3z"/>
       <path fill="#1C80B7" d="M4213 3256l3 0c1,-6 13,-34 10,-41 -7,4 -13,34 -13,41z"/>
       <path fill="#1C80B7" d="M4425 3073c1,0 1,-1 1,-1 -1,-1 -4,-1 -6,-1l4 2zm-29 1l-1 0c-6,2 -9,2 -10,6 10,0 15,-1 19,-2l-8 -4z"/>
       <path fill="#1C80B7" d="M4522 3110c0,7 1,16 7,17 5,-3 3,-13 2,-19l-8 1z"/>
       <path fill="#1C80B7" d="M4258 3426c-1,-8 -9,-20 -14,-27 -6,-9 -10,-8 -4,4 3,6 11,22 18,23z"/>
       <path fill="#1C80B7" d="M4600 3131c0,5 4,6 7,9 3,3 4,5 7,8 4,4 12,17 14,15 3,-3 -16,-29 -28,-32z"/>
       <path fill="#1C80B7" d="M4671 3289c0,0 0,0 0,1 0,0 0,1 0,1l1 12c2,-1 4,-1 4,-9 0,-3 0,-9 0,-13 0,-5 -3,-16 -7,-18 -2,5 1,19 1,26z"/>
       <path fill="#1C80B7" d="M4434 3522c4,2 20,0 25,0 5,-1 10,-1 12,-4 -4,-2 -24,-1 -32,1 -5,1 -2,-1 -4,2z"/>
       <path fill="#1C80B7" d="M4272 3446c3,13 29,30 18,14 -4,-5 -10,-14 -18,-14z"/>
       <path fill="#1C80B7" d="M4612 3453c6,-1 23,-23 23,-29 -5,1 -22,25 -23,29z"/>
       <path fill="#1C80B7" d="M4460 3091c3,-1 7,-1 10,-2 4,-1 5,-1 6,-4 -8,0 -16,2 -22,3l6 3z"/>
       <path fill="#1C80B7" d="M4524 3507c-1,1 0,1 -1,3 7,0 10,-2 15,-4 6,-3 10,-4 11,-8 -5,0 -10,2 -13,4 -3,1 -9,5 -12,6z"/>
       <path fill="#1C80B7" d="M4326 3496c-4,-7 -20,-20 -26,-21 1,5 21,21 26,21z"/>
       <path fill="#1C80B7" d="M4669 3343c4,-1 3,-3 5,-14 1,-6 1,-10 1,-17 -3,2 -4,10 -5,14 -1,6 -1,10 -1,17z"/>
       <path fill="#1C80B7" d="M4557 3111l-1 0c1,1 1,2 2,3 2,2 1,1 3,2l-5 -4z"/>
      </g>
      <g>
       <polygon fill="#1C80B7" points="4733,3128 4737,3129 4748,3066 4744,3066 "/>
       <path fill="#1C80B7" d="M4748 3142c2,-8 -4,-16 -12,-17 -8,-2 -16,4 -17,12l-8 42 8 1 6 -29 -3 30 4 1 2 -8 0 8 4 1 8 -30 -5 31 6 1 8 -42z"/>
       <path fill="#1C80B7" d="M4744 3125c0,2 -4,3 -8,2 -4,-1 -7,-3 -7,-5 0,-2 4,-3 8,-2 4,1 7,3 7,5z"/>
       <polygon fill="#1C80B7" points="4748,3064 4754,3064 4508,2948 4232,2970 4478,3101 4709,3069 4515,3016 "/>
       <path fill="#1C80B7" d="M4345 3044l-12 62c0,0 35,65 134,84 94,18 142,-28 142,-28l13 -68 -146 23 -132 -73z"/>
      </g>
     </g>
    </g>
   </g>
  </g>
 </g>
</svg>
