<?xml version="1.0" encoding="UTF-8"?>
<!DOCTYPE svg PUBLIC "-//W3C//DTD SVG 1.1//EN" "http://www.w3.org/Graphics/SVG/1.1/DTD/svg11.dtd">
<!-- Creator: CorelDRAW X6 -->
<svg xmlns="http://www.w3.org/2000/svg" xml:space="preserve" width="199.338mm" height="178.747mm" version="1.1" shape-rendering="geometricPrecision" text-rendering="geometricPrecision" image-rendering="optimizeQuality" fill-rule="evenodd" clip-rule="evenodd"
viewBox="0 0 7054 6325"
 xmlns:xlink="http://www.w3.org/1999/xlink">
 <defs>
     <linearGradient id="id0" gradientUnits="userSpaceOnUse" x1="4741.92" y1="2853.95" x2="6563.85" y2="2853.95">
      <stop offset="0" stop-color="#979797"/>
      <stop offset="1" stop-color="#D2D4D2"/>
     </linearGradient>
 </defs>
 <g id="Layer_x0020_1">
  <metadata id="CorelCorpID_0Corel-Layer"/>
  <path fill="white" fill-opacity="0.600000" d="M4399 452l1525 0c-19,-84 -94,-146 -183,-146 -16,0 -33,2 -48,6 -44,-95 -140,-160 -251,-160 -29,0 -57,4 -82,13 -60,-99 -169,-165 -293,-165m-668 452l0 0 0 0z"/>
  <path fill="white" fill-opacity="0.600000" d="M5068 0c-148,0 -273,94 -321,225m321 -225l0 0 0 0z"/>
  <g id="_1797167376">
   <g>
    <g>
     <path fill="#C5D2DB" fill-opacity="0.160784" d="M6399 4859c141,-694 90,-1335 -272,-1946 -258,-435 -707,-799 -1219,-808 -484,-9 -919,288 -1397,364 -786,124 -1599,-363 -2363,-140 -409,119 -741,435 -929,812 -188,376 -241,807 -211,1224 52,742 386,1480 954,1960l4632 0c389,-446 713,-1017 805,-1465z"/>
    </g>
    <g>
     <g>
      <g>
       <g>
        <path fill="white" d="M4916 1738c0,-54 -44,-99 -99,-99l-3287 0c-54,0 -99,44 -99,99l0 81 3484 0 0 -81z"/>
        <path fill="#548DCA" d="M4921 1824l-3495 0 0 -86c0,-57 46,-104 104,-104l3287 0c57,0 104,46 104,104l0 86 0 0zm-3484 -11l3474 0 0 -76c0,-52 -42,-93 -93,-93l-3287 0c-52,0 -93,42 -93,93l0 76z"/>
       </g>
       <g>
        <path fill="#E3F6FF" d="M1431 1819l0 2097c0,54 44,99 99,99l3287 0c54,0 99,-44 99,-99l0 -2097 -3484 0z"/>
        <path fill="#548DCA" d="M4817 4020l-3287 0c-57,0 -104,-46 -104,-104l0 -2102 3495 0 0 2102c0,57 -47,104 -104,104zm-3380 -2195l0 2091c0,52 42,93 93,93l3287 0c52,0 93,-42 93,-93l0 -2091 -3473 0z"/>
       </g>
       <g>
        <g>
         <circle fill="white" transform="matrix(0.700915 -0.0631995 0.0631995 0.700915 1600.34 1729.55)" r="50"/>
         <path fill="#548DCA" d="M1600 1770c-22,0 -41,-18 -41,-41 0,-22 18,-41 41,-41 22,0 41,18 41,41 0,22 -18,41 -41,41zm0 -71c-16,0 -30,14 -30,30 0,16 14,30 30,30 16,0 30,-14 30,-30 0,-16 -13,-30 -30,-30z"/>
        </g>
        <g>
         <circle fill="white" transform="matrix(0.700915 -0.0631995 0.0631995 0.700915 1737.61 1729.55)" r="50"/>
         <path fill="#548DCA" d="M1738 1770c-22,0 -41,-18 -41,-41 0,-22 18,-41 41,-41 22,0 41,18 41,41 0,22 -18,41 -41,41zm0 -71c-16,0 -30,14 -30,30 0,16 14,30 30,30 16,0 30,-14 30,-30 0,-16 -13,-30 -30,-30z"/>
        </g>
        <g>
         <circle fill="white" transform="matrix(0.700915 -0.0631995 0.0631995 0.700915 1874.87 1729.55)" r="50"/>
         <path fill="#548DCA" d="M1875 1770c-22,0 -41,-18 -41,-41 0,-22 18,-41 41,-41 22,0 41,18 41,41 0,22 -18,41 -41,41zm0 -71c-16,0 -30,14 -30,30 0,16 14,30 30,30 16,0 30,-14 30,-30 0,-16 -13,-30 -30,-30z"/>
        </g>
       </g>
      </g>
      <polygon fill="#CFDBE5" fill-opacity="0.400000" points="1795,3703 4552,3703 4552,2048 1795,2048 "/>
     </g>
     <g>
      <path fill="#F37652" d="M3675 4009l-900 0c-33,-311 -42,-590 -12,-775 8,-51 19,-94 33,-129l379 -77 441 40c74,191 86,536 60,942z"/>
      <rect fill="#1B1B43" x="3198" y="3113" width="10.5588" height="358.983"/>
      <path fill="#1B1B43" fill-opacity="0.200000" d="M3616 3067c0,0 -355,249 -853,167 8,-51 19,-94 33,-129l379 -77 441 40z"/>
      <path fill="#1B1B43" d="M2996 1660c0,0 -171,218 -130,403l601 -25c0,0 5,-363 -126,-394l-345 15z"/>
      <path fill="#1B1B43" d="M3513 2016l-11 0c0,-238 -124,-347 -125,-348l7 -8c1,1 129,114 129,356z"/>
      <g>
       <path fill="#FFBC96" d="M2875 2910c-1,25 -5,49 -14,71 -22,59 -68,107 -126,130 -14,6 -29,10 -45,13 -28,5 -61,8 -100,8 -194,0 -335,-147 -352,-193 -16,-45 30,-29 30,-29 17,-38 55,-8 55,-8 11,-40 48,-3 48,-3 0,0 1,-22 22,-21 13,1 54,26 84,45 16,10 33,15 51,15 7,0 14,-1 22,-3 37,-8 65,-38 72,-75l58 -317 138 0 44 57c-3,79 16,214 12,310z"/>
       <path fill="#FE5B52" fill-opacity="0.400000" d="M2854 2983c-22,59 -68,107 -126,130 -5,-12 -8,-24 -8,-38 0,-54 44,-98 98,-98 13,0 24,3 35,6z"/>
       <path fill="#548DCA" d="M3147 1926l-283 58c-104,21 -186,102 -208,206l-77 364 257 36 310 -664z"/>
       <path fill="#548DCA" d="M3246 1926l283 58c104,21 186,102 208,206l35 258 -250 44 -276 -566z"/>
       <path fill="#548DCA" d="M2837 2590c0,0 -14,415 -41,515 0,0 384,134 820,-38l-35 -765 -335 -376 -99 0 -334 434 24 230z"/>
       <path fill="#FFBC96" d="M4101 1936c2,27 -43,109 -77,168 -25,43 -22,76 -47,141 -142,359 -100,635 -203,770 -22,29 -65,28 -107,22 -30,-4 -54,-16 -74,-34 -136,-121 -70,-511 -70,-511l169 -29c0,0 82,44 62,-429 -5,-112 62,-52 62,-52 14,-34 52,-14 52,-14 27,-44 62,-10 62,-10 21,-41 79,31 79,31 38,-18 91,-111 94,-54z"/>
       <rect fill="#3C76AA" transform="matrix(0.0335559 -0.702956 0.702956 0.0335559 2831.46 2589.32)" width="495.712" height="15.004"/>
       <polygon fill="#3C76AA" points="3517,2498 3496,2221 3506,2220 3527,2486 3690,2458 3692,2468 "/>
       <polygon fill="#D28572" points="3708,2755 3698,2757 3688,2445 3698,2442 "/>
       <path fill="#FE5B52" fill-opacity="0.400000" d="M3774 3015c-30,20 -65,28 -107,22 -30,-4 -54,-16 -74,-34 16,-33 50,-54 88,-54 43,0 79,27 93,66z"/>
       <g>
        <rect fill="#D28572" transform="matrix(0.695496 -0.10746 0.10746 0.695496 3809.34 1983.42)" width="15.004" height="90.622"/>
        <rect fill="#D28572" transform="matrix(0.668614 -0.219634 0.219634 0.668614 3862.69 1970.94)" width="15.004" height="92.4196"/>
        <rect fill="#D28572" transform="matrix(0.662984 -0.236031 0.236031 0.662984 3923.05 1955.28)" width="15.004" height="97.2216"/>
       </g>
       <path fill="#3C76AA" d="M3188 2118c-73,0 -122,-44 -123,-45l7 -8c4,4 108,94 233,0l6 8c-44,33 -86,45 -123,45z"/>
       <g>
        <path fill="#D28572" d="M2410 2944c-22,-9 -47,-27 -71,-54l8 -7c23,25 46,43 67,52l-4 10z"/>
        <path fill="#D28572" d="M2350 2960c-22,-14 -41,-36 -59,-68l9 -5c17,30 35,52 55,64l-5 9z"/>
        <path fill="#D28572" d="M2307 2979c-26,-19 -49,-46 -73,-82l9 -5c22,35 45,61 70,79l-6 8z"/>
       </g>
      </g>
      <g>
       <path fill="#FFBC96" d="M3188 2050l0 0c-59,0 -107,-48 -107,-107l0 -181 215 0 0 181c0,59 -48,107 -107,107z"/>
       <path fill="#D28572" d="M3081 1780c66,111 137,120 215,1l-215 -1z"/>
       <path fill="#FFBC96" d="M3188 1826l0 0c-82,0 -149,-67 -149,-149l0 -251 297 0 0 250c0,82 -67,149 -149,149z"/>
       <path fill="#1B1B43" d="M3335 1584c0,6 5,-119 -189,-145 0,0 -109,63 -97,153l-60 -11c-23,-63 -15,-230 120,-218 0,0 29,-41 76,-42 242,-4 204,264 198,272l-48 -7z"/>
       <g>
        <ellipse fill="#FFBC96" transform="matrix(0.220408 -0.668332 0.668332 0.220408 3359.55 1624.16)" rx="94" ry="77"/>
       </g>
       <g>
        <ellipse fill="#FFBC96" transform="matrix(0.668332 -0.220408 0.220408 0.668332 3014.67 1624.38)" rx="77" ry="94"/>
       </g>
      </g>
     </g>
     <g>
      <g>
       <path fill="white" d="M2212 2734l-1031 0c-30,0 -53,-24 -53,-53l0 -424c0,-30 24,-53 53,-53l1031 0c30,0 53,24 53,53l0 424c0,30 -24,53 -53,53z"/>
       <path fill="#548DCA" d="M2212 2739l-1031 0c-32,0 -58,-26 -58,-58l0 -424c0,-32 26,-58 58,-58l1031 0c32,0 58,26 58,58l0 424c0,32 -26,58 -58,58zm-1031 -530c-27,0 -48,22 -48,48l0 424c0,27 22,48 48,48l1031 0c27,0 48,-22 48,-48l0 -424c0,-27 -22,-48 -48,-48l-1031 0 0 0z"/>
      </g>
      <g>
       <rect fill="#E0E0FF" x="1255" y="2335" width="884.368" height="10.5588"/>
       <rect fill="#E0E0FF" x="1255" y="2464" width="884.368" height="10.5588"/>
       <rect fill="#E0E0FF" x="1255" y="2593" width="884.368" height="10.5588"/>
      </g>
      <polygon fill="#548DCA" points="1270,2605 1261,2598 1324,2519 1433,2556 1526,2454 1621,2531 1732,2406 1834,2523 1924,2289 2018,2436 2126,2279 2135,2285 2018,2455 1926,2312 1837,2543 1732,2422 1622,2545 1527,2469 1436,2568 1328,2531 "/>
     </g>
     <g>
      <g>
       <path fill="white" d="M4120 1295l-51 -412c-205,25 -364,200 -364,412 0,229 186,415 415,415 229,0 415,-186 415,-415 0,-12 0,-24 -2,-36l-413 36z"/>
       <path fill="#548DCA" d="M4120 1716c-232,0 -420,-188 -420,-420 0,-212 158,-391 369,-417l5 -1 51 412 413 -36 0 5c1,13 2,25 2,36 0,232 -188,421 -420,421zm-55 -826c-202,27 -354,201 -354,406 0,226 184,410 410,410 226,0 410,-184 410,-410 0,-10 0,-19 -1,-30l-413 36 -51 -411z"/>
      </g>
      <path fill="#548DCA" d="M4337 1211l413 -36c-7,-77 -35,-149 -78,-208l-335 244z"/>
      <g>
       <path fill="#E3F6FF" d="M4455 1051c-76,-103 -198,-171 -335,-171 -17,0 -34,1 -51,3l51 412 335 -245z"/>
       <path fill="#548DCA" d="M4116 1305l-53 -426 5 -1c18,-2 35,-3 52,-3 134,0 261,65 340,173l3 4 -346 253zm-41 -416l49 397 324 -236c-77,-103 -199,-164 -328,-164 -15,0 -30,1 -45,3z"/>
      </g>
     </g>
     <g>
      <g>
       <path fill="white" d="M908 3471l-758 0c-36,0 -65,-29 -65,-65l0 -831c0,-36 29,-65 65,-65l758 0c36,0 65,29 65,65l0 832c0,36 -29,65 -65,65z"/>
       <path fill="#548DCA" d="M908 3476l-758 0c-39,0 -71,-32 -71,-71l0 -831c0,-39 32,-71 71,-71l758 0c39,0 71,32 71,71l0 832c0,38 -32,70 -71,70zm-758 -962c-33,0 -60,27 -60,60l0 832c0,33 27,60 60,60l758 0c33,0 60,-27 60,-60l0 -831c0,-33 -27,-60 -60,-60l-758 0 0 0z"/>
      </g>
      <g>
       <rect fill="#E3F6FF" x="186" y="2646" width="686.292" height="10.9796"/>
       <rect fill="#E3F6FF" x="186" y="2815" width="686.292" height="10.9796"/>
       <rect fill="#E3F6FF" x="186" y="2984" width="686.292" height="10.9796"/>
       <rect fill="#E3F6FF" x="186" y="3153" width="686.292" height="10.9796"/>
       <rect fill="#E3F6FF" x="186" y="3322" width="686.292" height="10.9796"/>
      </g>
      <g>
       <rect fill="#E3F6FF" x="186" y="2873" width="58.2823" height="459.921"/>
       <rect fill="#E3F6FF" x="313" y="3044" width="58.2823" height="288.877"/>
       <rect fill="#E3F6FF" x="440" y="2938" width="58.2823" height="395.303"/>
       <rect fill="#E3F6FF" x="567" y="2867" width="58.2823" height="466.256"/>
       <rect fill="#E3F6FF" x="694" y="2781" width="58.2823" height="552.412"/>
       <rect fill="#E3F6FF" x="821" y="2689" width="58.2823" height="644.059"/>
      </g>
     </g>
     <g>
      <g>
       <path fill="white" d="M2637 941l-518 0c-34,0 -62,27 -62,62l0 209c0,34 27,62 62,62l353 0 136 116 0 -116 28 0c34,0 62,-27 62,-62l0 -209c0,-34 -28,-62 -62,-62z"/>
       <path fill="#548DCA" d="M2614 1402l-144 -122 -351 0c-37,0 -67,-30 -67,-67l0 -209c0,-37 30,-67 67,-67l518 0c37,0 67,30 67,67l0 209c0,37 -30,67 -67,67l-23 0 0 122zm-495 -455c-31,0 -56,25 -56,56l0 209c0,31 25,56 56,56l356 0 128 110 0 -110 34 0c31,0 56,-25 56,-56l0 -209c0,-31 -25,-56 -56,-56l-518 0z"/>
      </g>
      <g>
       <rect fill="#548DCA" x="2136" y="1025" width="414.309" height="10.5588"/>
       <rect fill="#548DCA" x="2136" y="1097" width="469.636" height="10.5588"/>
       <rect fill="#548DCA" x="2136" y="1168" width="329.842" height="10.5588"/>
      </g>
     </g>
     <g>
      <g>
       <path fill="white" d="M7049 2028c0,-44 -36,-80 -80,-80l-2671 0c-44,0 -80,36 -80,80l0 66 2831 0 0 -66z"/>
       <path fill="#548DCA" d="M7054 2098l-2840 0 0 -70c0,-47 38,-84 84,-84l2671 0c47,0 84,38 84,84l0 70 0 0zm-2831 -9l2823 0 0 -61c0,-42 -34,-76 -76,-76l-2671 0c-42,0 -76,34 -76,76l0 61z"/>
      </g>
      <g>
       <path fill="#FEFEFE" d="M4218 2094l0 1232c0,44 36,80 80,80l2671 0c44,0 80,-36 80,-80l0 -1232 -2831 0z"/>
       <path fill="#548DCA" d="M6970 3416l-2671 0c-47,0 -84,-38 -84,-84l0 -1242 2840 0 0 1242c0,47 -38,84 -84,84zm-2747 -1318l0 1234c0,42 34,76 76,76l2671 0c42,0 76,-34 76,-76l0 -1234 -2823 0z"/>
      </g>
      <g>
       <g>
        <circle fill="white" transform="matrix(0.569588 -0.0513582 0.0513582 0.569588 4355.39 2021.06)" r="50"/>
        <path fill="#548DCA" d="M4355 2054c-18,0 -33,-15 -33,-33 0,-18 15,-33 33,-33 18,0 33,15 33,33 0,18 -15,33 -33,33zm0 -57c-13,0 -24,11 -24,24 0,13 11,24 24,24 13,0 24,-11 24,-24 0,-13 -11,-24 -24,-24z"/>
       </g>
       <g>
        <circle fill="white" transform="matrix(0.569588 -0.0513582 0.0513582 0.569588 4466.93 2021.06)" r="50"/>
        <path fill="#548DCA" d="M4467 2054c-18,0 -33,-15 -33,-33 0,-18 15,-33 33,-33 18,0 33,15 33,33 0,18 -15,33 -33,33zm0 -57c-13,0 -24,11 -24,24 0,13 11,24 24,24 13,0 24,-11 24,-24 0,-13 -11,-24 -24,-24z"/>
       </g>
       <g>
        <circle fill="white" transform="matrix(0.569588 -0.0513582 0.0513582 0.569588 4578.48 2021.06)" r="50"/>
        <path fill="#548DCA" d="M4578 2054c-18,0 -33,-15 -33,-33 0,-18 15,-33 33,-33 18,0 33,15 33,33 0,18 -15,33 -33,33zm0 -57c-13,0 -24,11 -24,24 0,13 11,24 24,24 13,0 24,-11 24,-24 0,-13 -11,-24 -24,-24z"/>
       </g>
      </g>
     </g>
    </g>
    <g>
     <rect fill="#B0B0D2" x="2351" y="4529" width="148" height="1795"/>
     <rect fill="#B0B0D2" x="3856" y="4529" width="148" height="1795"/>
     <polygon fill="#1B1B43" fill-opacity="0.301961" points="2351,4840 2499,4840 2499,4524 2351,4524 "/>
     <polygon fill="#1B1B43" fill-opacity="0.301961" points="3856,4840 4003,4840 4003,4524 3856,4524 "/>
     <rect fill="#9898A5" x="1517" y="4467" width="3320" height="149"/>
    </g>
    <g>
     <rect fill="#1B1B43" x="4062" y="4417" width="384.324" height="51.1029"/>
     <path fill="#1B1B43" d="M4119 4468l-57 0 -227 -598c-7,-17 6,-36 25,-36l0 0c11,0 21,7 25,17l234 617z"/>
    </g>
    <g>
     <rect fill="#1B1B43" x="1996" y="4417" width="384.324" height="51.1029"/>
     <path fill="#1B1B43" d="M2323 4468l57 0 227 -598c7,-17 -6,-36 -25,-36l0 0c-11,0 -21,7 -25,17l-234 617z"/>
    </g>
    <g>
     <g>
      <g>
       <polygon fill="#D28572" points="1240,3779 1449,3813 1452,3698 1454,3584 1456,3486 1398,3458 1298,3575 "/>
       <path fill="#925D4F" d="M1366 3583c0,0 25,53 86,116l2 -114 -88 -1z"/>
       <path fill="#D28572" d="M1599 3441c3,1 66,99 38,108 -29,9 -65,5 -65,5l27 -114z"/>
       <path fill="#D28572" d="M1620 3358l-27 244c-2,21 -16,38 -35,46l0 0c-14,5 -29,5 -42,-1l-151 -64 -20 -137 122 -128 152 40z"/>
       <polygon fill="#FED3D1" points="1258,3646 1186,3806 1466,3850 1485,3725 "/>
       <path fill="#595959" d="M1441 3445c0,0 124,-21 179,-87 0,0 20,-128 -168,-145 -205,-19 -397,271 -397,271l250 218 136 -257z"/>
       <ellipse fill="#D28572" transform="matrix(0.625827 -0.321816 0.321816 0.625827 1433.44 3455.89)" rx="61" ry="79"/>
       <path fill="#1B1B43" d="M1442 3476c-1,-6 -5,-22 -14,-29 -3,-3 -7,-3 -12,-2l-2 -10c8,-2 14,0 20,4 15,10 19,35 19,36l-11 1z"/>
      </g>
      <g>
       <path fill="#F05069" d="M1557 4165c-16,61 -59,113 -120,138 -3,1 -7,3 -11,4 -4,1 -7,3 -11,4 -113,44 -201,137 -237,254 -2,7 -4,13 -5,19 0,0 -235,34 -473,-98 0,0 131,-465 420,-685 67,-51 155,-66 235,-41 35,11 68,28 98,49 30,21 56,47 77,77l5 7 25 186c5,30 3,58 -5,86z"/>
       <path fill="#BE443D" d="M1557 4165c-16,61 -59,113 -120,138 -3,1 -7,3 -11,4 -4,1 -7,3 -11,4 -36,-90 -67,-232 -67,-232l176 23 32 63z"/>
       <path fill="#D28572" d="M1937 3966c0,0 155,-165 203,-153 21,5 -42,71 -42,71 0,0 60,1 157,-49 11,-5 24,-1 28,10l0 0c3,7 2,15 -3,21 -21,25 -82,94 -167,124l-36 46 -90 43 -50 -114z"/>
       <path fill="#F05069" d="M2078 4037l-202 360c-25,45 -72,73 -124,73 -21,0 -41,-5 -59,-13 -18,-8 -35,-21 -48,-36l-296 -342 188 -185 205 281 195 -209 141 71z"/>
       <path fill="#E04664" d="M1799 4279c-119,-185 -276,-404 -361,-476l7 -8c98,83 274,340 363,479l-9 5z"/>
       <path fill="#E04664" d="M1757 4479c-22,0 -44,-6 -67,-18 -65,-35 -334,-365 -345,-379l8 -7c3,3 279,343 342,376 71,38 120,3 143,-21 36,-39 233,-394 235,-397l9 5c-8,15 -200,359 -237,399 -25,27 -56,41 -88,41z"/>
      </g>
      <g>
       <path fill="#1B1B43" d="M1425 5907l-182 359 40 5 66 -94 207 146 121 0c0,0 24,-24 -38,-90 -74,-77 -117,-178 -114,-283l0 -9 -50 -51 -49 17z"/>
       <path fill="#5C5D70" d="M1433 6019l-40 304 40 0 52 -102 193 98 152 0c0,0 21,-27 -51,-84 -84,-66 -140,-160 -153,-264l-1 -9 -56 -43 -136 100z"/>
       <path fill="#2D2D2D" d="M1647 6057l283 -994c23,-80 -15,-165 -90,-201l-255 -122 -15 1180 78 137z"/>
       <path fill="#39393B" d="M702 4486l-57 271c-33,158 87,307 249,307l533 0c-53,261 -19,619 0,987l220 5 152 -947c25,-158 -64,-313 -214,-370l-410 -155 -472 -98z"/>
       <path fill="white" fill-opacity="0.400000" d="M1583 6057l-11 -1c1,-9 116,-895 84,-1058 -32,-168 -356,-217 -530,-243 -16,-2 -30,-5 -43,-6 -44,-7 -75,-26 -92,-56 -35,-60 -5,-141 -3,-145l10 4c0,1 -30,81 3,136 16,27 44,44 85,51 13,2 27,4 42,6 177,27 506,76 539,251 13,69 3,269 -30,593 -24,242 -54,466 -54,468z"/>
      </g>
     </g>
     <g>
      <g>
       <polygon fill="#717189" points="823,5107 786,5318 612,6325 539,6325 713,5318 749,5107 "/>
       <polygon fill="#717189" points="1308,6325 1235,6325 1061,5318 1024,5107 1098,5107 1134,5318 "/>
       <polygon fill="#1B1B43" fill-opacity="0.301961" points="823,5107 786,5318 713,5318 749,5107 "/>
       <polygon fill="#1B1B43" fill-opacity="0.301961" points="1134,5318 1061,5318 1024,5107 1098,5107 "/>
      </g>
      <path fill="#717189" d="M1247 5164l-686 0 0 -101 686 0c28,0 50,22 50,50l0 0c0,28 -23,50 -50,50z"/>
      <path fill="#717189" d="M658 5164l-97 0 -327 -801c-9,-22 1,-48 23,-58l0 0c24,-11 52,0 61,24l340 835z"/>
     </g>
    </g>
    <g>
     <g>
      <g>
       <path fill="#FFBC96" d="M5112 3434c-3,1 -70,96 -42,106 28,10 64,8 64,8l-22 -114z"/>
       <polygon fill="#FFBC96" points="5454,3786 5229,3813 5233,3698 5237,3584 5241,3487 5305,3461 5404,3581 "/>
       <path fill="#D28572" d="M5331 3586c0,0 -30,52 -98,112l4 -114 94 2z"/>
       <path fill="#FFBC96" d="M5095 3350l16 243c1,21 14,39 33,47l0 0c13,6 28,6 42,1l152 -57 26 -136 -116 -132 -153 33z"/>
       <path fill="#1B1B43" d="M5271 3449c0,0 -38,-73 -76,-84 0,0 -150,49 -183,-66 0,0 84,1 157,-50 73,-51 148,-27 201,21 0,0 171,8 36,310 0,0 -34,11 -120,-109l-14 -22z"/>
       <path fill="#FFBC96" d="M5313 3474c-15,27 -44,39 -64,27 -20,-11 -24,-43 -9,-69 15,-27 44,-39 64,-27 20,11 24,42 9,69z"/>
      </g>
      <polygon fill="#CBCBFF" points="5229,3813 5231,3695 5430,3644 5488,3790 "/>
      <path fill="#303033" d="M5259 3766c-100,97 -172,243 -264,391 0,0 -310,80 -399,169l160 81 546 -151 -42 -489z"/>
      <g>
       <path fill="#1B1B43" d="M4453 5970l-125 353 -389 -97c0,0 60,-83 243,-59l97 -273 174 76z"/>
       <path fill="#1B3466" d="M5231 4573l-562 183c-132,43 -233,150 -267,285l-226 937 306 79c120,-285 237,-624 317,-954l432 -530z"/>
       <path fill="#1B1B43" d="M5027 5997l46 327 -426 0c0,0 39,-95 222,-116l-11 -197 169 -14z"/>
       <path fill="#2B478B" d="M5741 4480l57 271c33,158 -85,316 -247,316l-512 0c29,263 57,610 38,979l-280 5 -152 -947c-25,-158 64,-313 214,-370l373 -160 509 -93z"/>
      </g>
      <path fill="#303033" d="M5759 4568c-46,-440 -112,-856 -444,-837 -20,1 -38,10 -52,24l0 0c-57,57 -86,136 -80,217l48 602c0,0 258,47 527,-5z"/>
      <g>
       <path fill="#FFBC96" d="M4596 4321c0,0 -195,37 -227,148l277 0 53 -37 -103 -111z"/>
       <path fill="#303033" d="M5317 3828l-253 393 -467 101 50 148 392 -2c105,-2 195,-57 254,-144l218 -313 -193 -182z"/>
      </g>
      <path fill="#6D6D6D" d="M4598 4326l-2 -10 464 -100c12,-35 24,-71 37,-106 49,-144 95,-279 152,-353l8 6c-56,73 -102,207 -150,350 -12,36 -25,73 -38,109l-1 3 -3 0 -468 100z"/>
      <path fill="#6D6D6D" d="M4876 4476c-109,0 -221,-2 -230,-2l0 -11c4,0 381,6 428,-4l1 0c112,-25 205,-103 249,-210l52 -127 10 4 -52 127c-45,110 -141,190 -256,216l-1 0c-22,5 -109,6 -200,6z"/>
     </g>
     <g>
      <g>
       <polygon fill="#717189" points="5854,6325 5927,6325 5716,5107 5643,5107 "/>
       <polygon fill="#717189" points="5231,6325 5157,6325 5368,5107 5441,5107 "/>
       <g>
        <polygon fill="#1B1B43" fill-opacity="0.301961" points="5441,5107 5405,5318 5332,5318 5368,5107 "/>
        <polygon fill="#1B1B43" fill-opacity="0.301961" points="5753,5318 5679,5318 5643,5107 5716,5107 "/>
       </g>
      </g>
      <path fill="#717189" d="M5218 5164l686 0 0 -101 -686 0c-28,0 -50,22 -50,50l0 0c0,28 23,50 50,50z"/>
      <path fill="#717189" d="M5808 5164l97 0 327 -801c9,-22 -1,-48 -23,-58l0 0c-24,-11 -52,0 -61,24l-340 835z"/>
     </g>
    </g>
   </g>
   <path fill="white" fill-opacity="0.600000" d="M2558 657c-14,-63 -71,-109 -137,-109 -12,0 -24,2 -35,5 -33,-71 -105,-120 -188,-120 -22,0 -42,3 -62,9 -45,-74 -126,-124 -219,-124 -111,0 -205,70 -240,169 -25,-14 -54,-22 -85,-22 -97,0 -175,79 -175,175 0,6 0,11 1,17l1141 0z"/>
   <path fill="white" fill-opacity="0.600000" d="M1332 1505c-14,-63 -71,-109 -137,-109 -12,0 -24,2 -35,5 -33,-71 -105,-120 -188,-120 -22,0 -42,3 -62,9 -45,-74 -126,-124 -219,-124 -111,0 -205,70 -240,169 -25,-14 -54,-22 -85,-22 -97,0 -175,79 -175,175 0,6 0,11 1,17l1141 0z"/>
   <path fill="white" fill-opacity="0.600000" d="M6165 1194l-1208 0c15,-66 74,-116 145,-116 13,0 26,2 38,5 35,-75 111,-127 199,-127 23,0 45,3 65,10 47,-79 133,-131 232,-131m529 359l0 0 0 0z"/>
   <path fill="white" fill-opacity="0.600000" d="M5943 1539c117,0 217,74 254,178 27,-15 57,-23 90,-23 103,0 186,83 186,185m-530 -340l0 0 0 0z"/>
   <g>
    <g>
     <path fill="#1C80B7" d="M6523 2774l104 -1c4,1 10,0 10,-4 0,-6 -15,-2 -29,-6 -9,-3 -12,-11 -14,-22 -3,-17 -4,-48 -4,-68 0,-13 -3,-139 -4,-140 3,0 27,27 30,31 10,11 21,22 30,32 8,10 49,50 62,62 21,21 41,41 62,62 9,9 55,59 65,59 8,0 6,-32 6,-41 0,-15 1,-31 1,-46 1,-31 1,-63 1,-94 0,-30 1,-62 2,-93 0,-12 1,-35 5,-43 9,-18 33,-5 33,-16 0,-5 -14,-3 -19,-3l-33 1 -45 -1c-6,0 -19,-1 -20,4 3,14 38,-11 44,29 3,17 2,51 2,71 0,47 3,95 3,142 -4,0 -28,-26 -32,-31 -10,-11 -20,-22 -31,-32 -21,-21 -41,-42 -62,-63l-93 -95c-5,-6 -25,-30 -32,-30 -8,0 -6,33 -6,43 0,15 0,34 -1,49 -1,15 0,34 -1,49 -1,14 -1,35 -1,49 0,32 -2,65 -2,97 0,14 -1,35 -10,39 -4,2 -15,4 -21,4 -14,0 -10,8 -1,8z"/>
     <path fill="#1C80B7" d="M6315 2527c1,1 42,108 42,112 0,3 -16,2 -19,2 -11,0 -62,1 -65,0l43 -113zm-166 242c0,9 17,5 26,5 10,0 21,0 31,-1 8,-1 21,1 30,1 7,0 27,3 27,-4 0,-9 -31,3 -31,-16 0,-16 9,-35 15,-49 2,-5 15,-42 19,-42l97 0c6,0 10,17 12,22 5,13 28,70 28,75 0,8 -10,3 -11,11 4,5 35,3 46,3l54 1c5,0 17,0 17,-4 0,-6 -6,-4 -12,-4 -13,-1 -23,-3 -33,-16 -10,-14 -15,-26 -22,-42 -13,-30 -25,-61 -37,-91 -12,-30 -25,-61 -37,-91 -6,-15 -12,-31 -18,-46 -3,-7 -15,-42 -22,-42 -9,0 -19,32 -23,41 -6,15 -13,30 -18,46 -6,15 -12,30 -18,45 -6,15 -12,31 -18,46 -7,15 -12,30 -18,45 -6,15 -13,30 -18,46 -5,13 -13,34 -20,44 -18,25 -44,12 -44,20z"/>
     <path fill="#1C80B7" d="M5964 2447c0,10 28,0 38,13 6,8 6,31 6,45l0 179c0,19 0,41 -2,59 -1,8 -3,18 -10,21 -5,2 -25,2 -25,6l0 2c0,6 27,3 33,3 12,0 25,-2 37,-1 12,1 25,1 37,1 8,0 33,4 33,-4 0,-9 -37,4 -44,-16 -4,-13 -5,-39 -5,-56l0 -228c0,-7 12,-7 19,-7 42,0 70,37 70,79 0,25 -7,43 -21,57 -11,11 -21,17 -37,18 -6,0 -12,0 -13,6 2,4 4,4 10,4l8 0c60,0 105,-46 105,-106 0,-26 -14,-47 -29,-58 -19,-15 -48,-19 -78,-19l-58 1c-23,0 -45,-1 -68,-1 -2,0 -6,1 -6,3z"/>
     <path fill="#1C80B7" d="M5772 2517l0 6c0,44 35,77 60,97 25,20 68,45 68,89 0,53 -76,68 -109,29 -9,-11 -13,-25 -15,-39 -1,-5 1,-13 -5,-13 -6,0 -6,21 -6,28 0,13 -1,29 -1,44 0,12 16,15 26,18 21,5 31,5 53,5 56,0 105,-36 105,-91l0 -7c0,-93 -130,-121 -130,-176l0 -6c0,-24 23,-42 48,-42 21,0 35,3 48,18 22,24 9,40 20,40 6,0 4,-25 4,-32 0,-6 2,-33 1,-35 -3,-7 -51,-11 -65,-11 -52,0 -101,29 -101,80z"/>
    </g>
    <path fill="gray" d="M5581 2562c1,-6 2,-13 4,-20 1,-3 5,-20 1,-20l-68 0c-3,0 -6,26 -7,30l-17 96c-4,21 -7,42 -11,63 -2,10 -4,21 -6,32 -1,9 -5,25 -5,33l72 0c1,-8 4,-21 5,-29l15 -88c3,-20 6,-40 14,-54 7,-12 22,-28 40,-28l6 0c18,0 27,15 27,34l1 5 -28 161 72 0c3,-15 5,-31 8,-46l16 -93c4,-23 6,-31 6,-56 0,-71 -69,-77 -112,-50 -6,4 -13,9 -18,14 -3,3 -14,17 -15,17z"/>
    <path fill="gray" d="M4598 2710c0,23 4,39 16,53 10,13 25,16 46,18 19,2 38,-6 50,-14 19,-12 29,-28 33,-31l-7 38 72 0c5,-20 8,-43 11,-63 4,-21 7,-43 11,-64 6,-33 11,-63 17,-96 1,-4 7,-31 4,-31 -11,0 -65,-1 -71,1 0,6 -8,49 -10,59 -3,20 -7,39 -10,59 -3,21 -6,38 -14,54 -8,15 -23,27 -44,27 -20,0 -29,-14 -29,-34 0,-17 10,-62 13,-83 2,-14 14,-76 14,-82 0,-1 -1,-1 -2,-1l-68 0c-3,0 -5,18 -5,22 -1,8 -3,15 -4,23 -3,16 -5,31 -8,47 -3,16 -5,31 -8,47 -3,15 -6,31 -6,49z"/>
    <path fill="gray" d="M4472 2522l-39 0 -10 58 39 0 -34 195 72 0 34 -195 52 0c3,0 5,-21 6,-25 2,-9 3,-18 5,-26 2,-9 6,-8 -20,-8 -10,0 -21,0 -31,0 0,-9 7,-37 10,-44 5,-11 17,-22 32,-22 23,0 16,2 29,6l11 -61c-3,-4 -27,-6 -35,-6 -54,0 -93,31 -108,76 -3,9 -10,41 -10,51z"/>
    <path fill="gray" d="M4873 2610l0 10c0,35 37,49 63,59 13,5 34,12 28,31 -5,14 -24,19 -43,19 -19,0 -37,-5 -52,-14 -3,-2 -12,-8 -14,-8l-11 64c7,1 18,10 63,12 22,1 48,-3 64,-10 20,-8 31,-16 44,-31 10,-11 20,-35 20,-55l0 -8c0,-32 -34,-49 -59,-58 -12,-4 -32,-11 -32,-26 0,-15 18,-24 34,-24 16,0 23,0 38,5 5,2 23,11 24,11l10 -61 -28 -7c-41,-7 -85,-1 -114,21 -18,14 -36,39 -36,69z"/>
    <path fill="gray" d="M5053 2776l72 0c5,-20 7,-43 11,-63 4,-21 7,-43 11,-64 4,-21 8,-43 11,-64 2,-11 4,-21 5,-32 1,-5 7,-31 4,-31l-69 0c-3,0 -6,26 -7,31 -2,10 -4,21 -6,32 -4,21 -7,42 -11,64 -4,21 -8,42 -11,63 -2,10 -11,59 -11,64z"/>
    <path fill="gray" d="M5139 2483l4 0c25,0 47,-22 47,-50 0,-18 -15,-31 -33,-31l-5 0c-52,0 -66,81 -13,81z"/>
    <g>
     <path fill="#1C80B7" d="M5337 2678c0,17 22,12 22,-5 0,-17 -22,-12 -22,5z"/>
     <path fill="#1C80B7" d="M5310 2669c0,18 21,12 21,-6 0,-17 -21,-11 -21,6z"/>
     <path fill="#1C80B7" d="M5284 2659c0,6 3,11 10,11 12,0 18,-26 2,-26 -7,0 -12,8 -12,15z"/>
     <path fill="#1C80B7" d="M5259 2648c0,6 3,11 10,11 6,0 11,-8 11,-16 0,-5 -3,-10 -9,-10 -6,0 -12,9 -12,16z"/>
     <path fill="#1C80B7" d="M5355 2659c15,0 17,-26 3,-26 -13,0 -16,26 -3,26z"/>
     <path fill="#1C80B7" d="M5365 2683c0,18 21,13 21,-4 0,-16 -21,-11 -21,4z"/>
     <path fill="#1C80B7" d="M5321 2640c0,18 20,13 20,-6 0,-4 -3,-9 -7,-9l-3 0c-6,0 -11,8 -11,14z"/>
     <path fill="#1C80B7" d="M5265 2712c0,16 21,15 21,0 0,-6 -4,-11 -11,-11 -5,0 -9,6 -9,11z"/>
     <path fill="#1C80B7" d="M5291 2722c0,15 21,14 21,-2 0,-14 -21,-12 -21,2z"/>
     <path fill="#1C80B7" d="M5400 2554l0 0zm-9 -3l-1 -1 1 1zm-1 -1l-1 -1 1 1zm-5 0l-1 -1 1 1zm4 -1l-1 -1 1 1zm-5 0l0 0zm4 -1l0 0zm-12 -3l0 0zm-1 -1l1 1 -1 -1zm-1 -1l1 1 -1 -1zm8 -1l1 0 3 3c-1,0 -1,0 -2,-1 -1,-1 -1,-1 -1,-1l0 -1zm-4 -1l0 0zm6 -2l0 0zm0 9l8 7 1 -1 -4 -6 9 6 1 -1 -1 -2 5 -1c0,-3 -11,-11 -17,-13l-3 0c0,0 0,1 0,1l-2 -1 -2 0 2 3 -4 -2 -1 0 0 2 -2 -1 -2 0 0 2 -2 -2 -3 0c1,6 4,13 9,13l-1 -8c3,2 4,8 9,8l-2 -6z"/>
     <path fill="#1C80B7" d="M5228 2662c0,20 17,16 17,-2 0,-16 -17,-12 -17,2z"/>
     <path fill="#1C80B7" d="M5390 2688c0,16 18,11 18,-4 0,-5 0,-12 -7,-12 -6,0 -11,10 -11,16z"/>
     <path fill="#1C80B7" d="M5309 2605c0,16 19,8 19,-7 0,-7 -4,-7 -8,-7 -6,0 -12,9 -12,14z"/>
     <path fill="#1C80B7" d="M5332 2610l0 5c0,3 3,7 7,7 11,0 15,-24 3,-24 -5,0 -10,7 -10,12z"/>
     <path fill="#1C80B7" d="M5355 2617c0,17 17,15 17,-3 0,-14 -17,-14 -17,3z"/>
     <path fill="#1C80B7" d="M5377 2621c0,18 16,17 16,1 0,-17 -16,-17 -16,-1z"/>
     <path fill="#1C80B7" d="M5288 2596c0,14 20,6 20,-9 0,-3 -3,-6 -6,-6 -7,0 -14,9 -14,15z"/>
     <path fill="#1C80B7" d="M5210 2653c0,16 15,13 15,-7 0,-4 -2,-9 -6,-9 -6,0 -9,10 -9,16z"/>
     <path fill="#1C80B7" d="M5234 2600c0,13 19,4 19,-11 0,-11 -19,-1 -19,11z"/>
     <path fill="#1C80B7" d="M5412 2690c0,18 15,5 15,-9 0,-6 -2,-8 -6,-8 -4,0 -9,12 -9,17z"/>
     <path fill="#1C80B7" d="M5206 2616c0,16 16,0 16,-13 0,-14 -16,0 -16,13z"/>
     <path fill="#1C80B7" d="M5260 2733c0,12 18,15 18,2 0,-12 -18,-14 -18,-2z"/>
     <path fill="#1C80B7" d="M5283 2743c0,12 19,12 19,-1 0,-6 -4,-8 -10,-8 -4,0 -9,5 -9,9z"/>
     <path fill="#1C80B7" d="M5254 2577c0,12 21,-2 21,-12 0,-2 -2,-3 -4,-3 -6,0 -17,9 -17,15z"/>
     <path fill="#1C80B7" d="M5221 2591c0,10 19,-2 19,-14 0,-11 -19,2 -19,14z"/>
     <path fill="#1C80B7" d="M5401 2723c0,11 17,1 17,-16 0,-3 -2,-4 -5,-3 -5,2 -11,12 -11,19z"/>
     <path fill="#1C80B7" d="M5329 2758c0,11 21,4 21,-5 0,-12 -21,-3 -21,5z"/>
     <path fill="#1C80B7" d="M5196 2642c0,15 12,12 12,-11 0,-4 -1,-6 -4,-6 -4,0 -8,12 -8,17z"/>
     <path fill="#1C80B7" d="M5415 2621c0,18 12,22 12,11l0 -6c0,-12 -12,-21 -12,-6z"/>
     <path fill="#1C80B7" d="M5341 2585c0,5 0,9 7,9 4,0 8,-7 8,-14 0,-12 -14,-7 -14,4z"/>
     <path fill="#1C80B7" d="M5304 2574c0,11 19,2 19,-9 0,-10 -19,-2 -19,9z"/>
     <path fill="#1C80B7" d="M5322 2582c0,12 17,3 17,-9 0,-2 -2,-5 -4,-5 -6,0 -12,8 -12,14z"/>
     <path fill="#1C80B7" d="M5288 2567c0,8 21,1 21,-11 0,-8 -21,0 -21,11z"/>
     <path fill="#1C80B7" d="M5242 2568c0,2 0,2 1,3 13,3 27,-18 18,-18 -7,0 -18,9 -18,15z"/>
     <path fill="#1C80B7" d="M5193 2664c0,21 11,18 11,4 0,-18 -11,-18 -11,-4z"/>
     <path fill="#1C80B7" d="M5395 2589l0 4c0,6 4,15 9,16 7,-6 -1,-24 -7,-24 -2,0 -3,2 -3,4z"/>
     <path fill="#1C80B7" d="M5429 2688c0,9 0,4 1,9 5,0 6,-3 7,-6 2,-5 3,-9 3,-14 0,-1 -1,-4 -2,-4 -5,0 -9,11 -9,16z"/>
     <path fill="#1C80B7" d="M5350 2764c0,9 21,-1 21,-9 0,-7 -21,2 -21,9z"/>
     <path fill="#1C80B7" d="M5386 2748c0,8 19,-5 19,-14 0,-8 -19,5 -19,14z"/>
     <path fill="#1C80B7" d="M5433 2653c0,4 -1,14 4,14 6,0 6,-29 -1,-26 -2,1 -4,7 -4,11z"/>
     <path fill="#1C80B7" d="M5429 2615c0,7 0,20 8,22 5,-4 1,-17 -1,-21 -4,-7 -7,-5 -7,-1z"/>
     <path fill="#1C80B7" d="M5205 2697c0,6 5,21 10,18 0,0 2,0 2,-4 0,-5 -4,-18 -9,-18 -2,0 -3,3 -3,4z"/>
     <path fill="#1C80B7" d="M5409 2587c0,7 2,14 6,19 2,2 2,2 6,2 2,-10 -6,-24 -9,-24 -1,0 -2,1 -2,2z"/>
     <path fill="#1C80B7" d="M5234 2560c0,8 21,-8 21,-14 0,-7 -21,7 -21,14z"/>
     <path fill="#1C80B7" d="M5198 2607c0,11 16,-9 13,-21 -7,-2 -13,16 -13,21z"/>
     <path fill="#1C80B7" d="M5267 2552c7,0 21,-8 21,-12 0,-6 -15,0 -21,7 -1,1 -4,5 0,5z"/>
     <path fill="#1C80B7" d="M5213 2584c9,2 23,-21 17,-21 -4,0 -17,11 -17,21z"/>
     <path fill="#1C80B7" d="M5419 2723c0,8 14,-6 14,-19 0,-5 -6,1 -10,7 -2,3 -4,8 -4,12z"/>
     <path fill="#1C80B7" d="M5316 2773c0,5 11,3 15,0 4,-2 4,-3 4,-7 -3,-1 -1,-1 -6,-1 -5,0 -13,3 -13,8z"/>
     <path fill="#1C80B7" d="M5189 2634c0,3 0,4 2,6 4,-1 10,-19 6,-26 -6,0 -8,16 -8,21z"/>
     <path fill="#1C80B7" d="M5369 2767c4,0 10,-3 13,-5 5,-4 9,-10 5,-10 -9,0 -25,15 -18,15z"/>
     <path fill="#1C80B7" d="M5451 2647c-2,-3 0,-7 -4,-9 -5,3 -4,25 1,26 3,-2 3,-11 3,-17z"/>
     <path fill="#1C80B7" d="M5387 2561c0,5 2,9 4,14 1,2 2,3 3,4 3,3 5,1 5,-2 0,-9 -12,-22 -12,-16z"/>
     <path fill="#1C80B7" d="M5402 2748l2 0c5,0 16,-13 16,-18 0,-7 -17,10 -17,18z"/>
     <path fill="#1C80B7" d="M5258 2542c0,5 16,-3 20,-5 2,-1 4,-2 4,-5 -6,0 -9,1 -14,3 -2,1 -10,5 -10,7z"/>
     <path fill="#1C80B7" d="M5234 2744c7,0 -1,-17 -8,-17 -6,0 2,17 8,17z"/>
     <path fill="#1C80B7" d="M5419 2586c0,5 2,10 4,14 1,2 2,3 3,5 10,13 2,-20 -7,-21 0,1 -1,1 -1,2z"/>
     <path fill="#1C80B7" d="M5446 2619l-1 -2 -1 -2c-2,-3 -2,-7 -6,-7 -2,7 2,26 8,24 0,-10 -1,-10 -1,-14z"/>
     <path fill="#1C80B7" d="M5441 2688l1 6c5,0 9,-18 7,-26 -5,0 -8,16 -8,20z"/>
     <path fill="#1C80B7" d="M5334 2778c11,0 26,-11 16,-11 -11,0 -23,11 -16,11z"/>
     <path fill="#1C80B7" d="M5316 2525l5 1c-3,0 -2,0 -4,1l12 2c-2,0 -6,0 -8,1l3 2c6,0 13,-1 14,-3l-9 -1c2,0 3,0 5,0 3,0 2,0 4,-1 -2,-1 -3,-1 -5,-1l0 -1c3,0 3,0 6,-1l0 -1c-4,0 -9,0 -12,0 -1,0 -4,0 -6,1 -3,0 -4,0 -4,2z"/>
     <path fill="#1C80B7" d="M5195 2683c0,6 0,8 2,14 1,3 3,7 6,7 2,-4 -2,-23 -8,-23 0,1 -1,1 -1,2z"/>
     <path fill="#1C80B7" d="M5293 2538c7,0 9,-1 14,-3 1,0 3,-1 5,-2l-6 -4c-3,1 -6,2 -6,2 -2,1 -4,1 -5,2 -1,1 -5,4 -1,4z"/>
     <path fill="#1C80B7" d="M5406 2570c-1,-1 -1,0 -1,-2 -2,-2 -4,-8 -10,-8 0,4 6,14 8,17 1,1 6,7 6,3 0,-2 -3,-7 -3,-9z"/>
     <path fill="#1C80B7" d="M5425 2582c0,3 5,14 8,17 2,2 2,4 5,4 0,-6 -2,-9 -5,-14 -1,-2 -4,-7 -5,-8 -1,0 -3,-1 -3,0z"/>
     <path fill="#1C80B7" d="M5405 2569c1,1 1,0 1,2 1,1 3,4 5,6 2,2 3,4 7,4 0,-5 -1,-6 -4,-9 -1,-1 -1,-2 -2,-3 -2,-3 -6,-8 -10,-9 0,4 3,6 3,9z"/>
     <path fill="#1C80B7" d="M5429 2722c4,0 6,-5 8,-9 2,-3 5,-9 5,-13 0,0 -1,-1 -1,-2 -2,2 -6,8 -7,10 -2,4 -5,7 -5,13z"/>
     <path fill="#1C80B7" d="M5228 2555c-3,0 -8,6 -10,8 -12,12 -8,18 7,-1 2,-2 3,-3 3,-6z"/>
     <path fill="#1C80B7" d="M5298 2525c-4,1 -11,2 -12,5 3,2 11,0 14,-1l4 -1 -6 -3z"/>
     <path fill="#1C80B7" d="M5232 2554c3,0 14,-8 17,-10 2,-2 4,-2 4,-5 -5,0 -21,8 -22,16z"/>
     <path fill="#1C80B7" d="M5195 2601c3,-1 3,-3 5,-5 1,-2 2,-3 3,-6 1,-2 6,-12 5,-13 -2,-2 -7,8 -8,10 -2,4 -5,8 -5,14z"/>
     <path fill="#1C80B7" d="M5186 2654c0,9 0,7 2,15 2,-1 2,-1 2,-3 1,-4 2,-20 -2,-22 -2,2 -2,8 -2,11z"/>
     <path fill="#1C80B7" d="M5223 2735c0,-6 -6,-18 -11,-18 0,5 2,8 4,11 2,3 4,7 8,7z"/>
     <path fill="#1C80B7" d="M5366 2773c1,-2 1,-1 2,-3 -5,0 -8,1 -12,3 -3,1 -8,3 -8,7 3,2 11,-2 14,-4 1,-1 3,-2 4,-2z"/>
     <path fill="#1C80B7" d="M5382 2766c4,0 8,-3 11,-5 2,-1 3,-2 5,-4 2,-1 3,-2 3,-5 -6,0 -18,9 -19,14z"/>
     <path fill="#1C80B7" d="M5258 2537c4,0 14,-4 18,-6 2,-1 4,-1 5,-4 -7,0 -14,2 -19,5 -2,1 -4,2 -4,5z"/>
     <path fill="#1C80B7" d="M5423 2578c0,-6 -9,-15 -14,-19 -3,-3 -4,-1 -2,2l11 13c4,4 3,4 5,4z"/>
     <path fill="#1C80B7" d="M5319 2517c0,0 0,0 0,0 0,0 0,0 0,0l3 1c2,0 3,0 5,0l0 1c-3,0 -6,0 -9,1 -3,1 -1,-1 -2,1 3,2 17,0 21,0 -1,-1 1,-1 -2,-1l6 -1c-2,-3 -20,-3 -22,-2z"/>
     <path fill="#1C80B7" d="M5441 2600c2,-2 -3,-11 -5,-13 -1,-2 -2,-3 -3,-5 -1,-2 -2,-4 -4,-5 0,4 1,4 2,6l8 14c1,2 0,1 2,2z"/>
     <path fill="#1C80B7" d="M5194 2695c0,-6 0,-9 -2,-13 -1,-3 -2,-9 -5,-10 0,5 2,16 5,21 1,2 0,1 2,2z"/>
     <path fill="#1C80B7" d="M5259 2531c4,0 9,-3 12,-4 2,-1 4,-2 6,-2 4,-2 4,-1 5,-3 -6,0 -9,1 -14,3 -3,1 -3,2 -6,3 -2,1 -4,2 -4,4z"/>
     <path fill="#1C80B7" d="M5445 2615c1,1 1,-1 1,2 1,1 1,-1 1,2 2,3 2,7 4,8 2,-4 -2,-15 -4,-19 -1,-2 -2,-4 -4,-4 0,5 2,8 3,12z"/>
     <path fill="#1C80B7" d="M5244 2757c5,0 -4,-11 -12,-11 0,6 9,11 12,11z"/>
     <path fill="#1C80B7" d="M5356 2547c0,5 6,3 7,-4l-7 1c0,1 0,2 0,3z"/>
     <path fill="#1C80B7" d="M5304 2520c2,0 4,-1 5,-1 -1,-2 1,-1 -2,-2 -1,0 -3,0 -4,0 -2,0 -3,0 -5,0l5 3zm-17 0c-1,0 -1,1 -1,2 2,0 3,0 5,0l-4 -2z"/>
     <path fill="#1C80B7" d="M5186 2628l2 0c1,-4 8,-20 6,-24 -4,3 -7,20 -7,24z"/>
     <path fill="#1C80B7" d="M5309 2522c0,0 1,0 1,-1 -1,0 -2,-1 -3,-1l3 1zm-17 0l0 0c-3,1 -5,1 -6,3 6,0 8,-1 11,-1l-5 -3z"/>
     <path fill="#1C80B7" d="M5365 2544c0,4 0,9 4,10 3,-2 2,-8 1,-11l-5 1z"/>
     <path fill="#1C80B7" d="M5212 2726c0,-5 -5,-12 -8,-15 -3,-5 -6,-5 -2,2 2,3 6,13 10,13z"/>
     <path fill="#1C80B7" d="M5410 2556c0,3 2,3 4,5 2,2 2,3 4,5 2,2 7,10 8,9 2,-2 -9,-17 -16,-18z"/>
     <path fill="#1C80B7" d="M5451 2647c0,0 0,0 0,0 0,0 0,0 0,0l1 7c1,0 2,-1 2,-5 0,-2 0,-5 0,-7 0,-3 -2,-9 -4,-11 -1,3 1,11 1,15z"/>
     <path fill="#1C80B7" d="M5313 2782c3,1 12,0 14,0 3,0 6,-1 7,-2 -3,-1 -14,-1 -19,1 -3,1 -1,-1 -3,1z"/>
     <path fill="#1C80B7" d="M5220 2738c2,8 17,17 10,8 -2,-3 -6,-8 -10,-8z"/>
     <path fill="#1C80B7" d="M5416 2742c4,-1 13,-13 13,-17 -3,1 -13,14 -13,17z"/>
     <path fill="#1C80B7" d="M5329 2533c2,0 4,-1 6,-1 2,-1 3,0 4,-2 -4,0 -9,1 -13,2l3 2z"/>
     <path fill="#1C80B7" d="M5366 2773c0,1 0,1 -1,2 4,0 6,-1 9,-2 3,-2 6,-2 6,-5 -3,0 -5,1 -8,2 -2,1 -5,3 -7,3z"/>
     <path fill="#1C80B7" d="M5251 2767c-2,-4 -12,-11 -15,-12 1,3 12,12 15,12z"/>
     <path fill="#1C80B7" d="M5450 2678c2,-1 2,-2 3,-8 0,-4 1,-6 1,-10 -2,1 -2,6 -3,8 -1,4 -1,6 -1,10z"/>
     <path fill="#1C80B7" d="M5385 2544l0 0c0,1 1,1 1,1 1,1 1,1 2,1l-3 -3z"/>
    </g>
    <g>
     <polygon fill="#1C80B7" points="5486,2554 5488,2554 5495,2518 5493,2518 "/>
     <path fill="#1C80B7" d="M5495 2562c1,-5 -2,-9 -7,-10 -5,-1 -9,2 -10,7l-5 24 4 1 3 -17 -2 17 2 0 1 -5 0 5 2 0 4 -17 -3 18 3 1 5 -24z"/>
     <path fill="#1C80B7" d="M5492 2552c0,1 -2,2 -5,1 -2,0 -4,-2 -4,-3 0,-1 2,-2 5,-1 2,0 4,2 4,3z"/>
     <polygon fill="#1C80B7" points="5495,2517 5498,2517 5356,2450 5197,2462 5339,2538 5473,2520 5361,2489 "/>
     <path fill="#1C80B7" d="M5262 2506l-7 36c0,0 20,38 78,49 54,10 82,-16 82,-16l7 -39 -84 13 -76 -42z"/>
    </g>
    <polygon fill="url(#id0)" points="6884,2862 6884,2862 6884,2846 4422,2846 4422,2862 "/>
    <path fill="gray" fill-rule="nonzero" d="M5211 3004l0 -66 -21 0 0 66c0,17 -8,26 -23,26 -15,0 -23,-10 -23,-27l0 -65 -21 0 0 66c0,28 17,44 43,44 26,0 44,-16 44,-44z"/>
    <polygon id="1" fill="gray" fill-rule="nonzero" points="5343,3046 5343,2938 5323,2938 5323,3009 5275,2938 5255,2938 5255,3046 5274,3046 5274,2971 5325,3046 "/>
    <polygon id="2" fill="gray" fill-rule="nonzero" points="5409,3046 5409,2938 5388,2938 5388,3046 "/>
    <polygon id="3" fill="gray" fill-rule="nonzero" points="5548,2938 5526,2938 5497,3020 5469,2937 5447,2940 5486,3046 5507,3046 "/>
    <polygon id="4" fill="gray" fill-rule="nonzero" points="5649,3046 5649,3028 5605,3028 5605,2999 5640,2999 5638,2981 5605,2981 5605,2955 5647,2955 5647,2938 5584,2938 5584,3046 "/>
    <path id="5" fill="gray" fill-rule="nonzero" d="M5740 2971c0,11 -8,17 -21,17l-11 0 0 -34 11 0c13,0 20,6 20,17zm-1 29c13,-5 22,-15 22,-30 0,-21 -15,-33 -39,-33l-34 0 0 108 21 0 0 -41 9 0 28 43 21 -4 -29 -43z"/>
    <path id="6" fill="gray" fill-rule="nonzero" d="M5869 3015c0,-17 -8,-24 -30,-34 -15,-6 -19,-10 -19,-16 0,-7 5,-12 15,-12 8,0 18,3 26,8l3 -19c-8,-4 -16,-7 -29,-7 -20,0 -35,11 -35,30 0,17 8,24 30,32 16,7 19,10 19,18 0,9 -7,13 -16,13 -11,0 -22,-4 -31,-10l-3 19c10,5 21,8 34,8 21,0 36,-11 36,-32z"/>
    <polygon id="7" fill="gray" fill-rule="nonzero" points="5930,3046 5930,2938 5909,2938 5909,3046 "/>
    <polygon id="8" fill="gray" fill-rule="nonzero" points="6056,2956 6053,2938 5969,2938 5969,2956 6001,2956 6001,3046 6022,3046 6022,2956 "/>
    <polygon id="9" fill="gray" fill-rule="nonzero" points="6182,2938 6160,2938 6133,2986 6106,2937 6084,2940 6122,3005 6122,3046 6143,3046 6143,3005 "/>
   </g>
  </g>
 </g>
</svg>
